<ttFont>
    <TTGlyph name="A" xMin="-7" yMin="0" xMax="1555" yMax="1573">
      <contour>
        <pt x="1058" y="85" on="1"/>
        <pt x="1196" y="108" on="1"/>
        <pt x="1038" y="497" on="1"/>
        <pt x="438" y="497" on="1"/>
        <pt x="281" y="108" on="1"/>
        <pt x="422" y="85" on="1"/>
        <pt x="422" y="0" on="1"/>
        <pt x="-7" y="0" on="1"/>
        <pt x="-7" y="85" on="1"/>
        <pt x="151" y="108" on="1"/>
        <pt x="676" y="1406" on="1"/>
        <pt x="634" y="1505" on="1"/>
        <pt x="796" y="1573" on="1"/>
        <pt x="1394" y="108" on="1"/>
        <pt x="1555" y="85" on="1"/>
        <pt x="1555" y="0" on="1"/>
        <pt x="1058" y="0" on="1"/>
      </contour>
      <contour>
        <pt x="485" y="618" on="1"/>
        <pt x="994" y="618" on="1"/>
        <pt x="739" y="1260" on="1"/>
      </contour>
    </TTGlyph>
    <TTGlyph name="AE" xMin="-7" yMin="0" xMax="1809" yMax="1508">
      <contour>
        <pt x="1786" y="1211" on="1"/>
        <pt x="1701" y="1211" on="1"/>
        <pt x="1647" y="1387" on="1"/>
        <pt x="1135" y="1387" on="1"/>
        <pt x="1135" y="843" on="1"/>
        <pt x="1492" y="843" on="1"/>
        <pt x="1522" y="949" on="1"/>
        <pt x="1593" y="949" on="1"/>
        <pt x="1593" y="618" on="1"/>
        <pt x="1522" y="618" on="1"/>
        <pt x="1492" y="723" on="1"/>
        <pt x="1135" y="723" on="1"/>
        <pt x="1135" y="120" on="1"/>
        <pt x="1663" y="120" on="1"/>
        <pt x="1737" y="297" on="1"/>
        <pt x="1809" y="297" on="1"/>
        <pt x="1779" y="0" on="1"/>
        <pt x="798" y="0" on="1"/>
        <pt x="798" y="85" on="1"/>
        <pt x="949" y="108" on="1"/>
        <pt x="949" y="577" on="1"/>
        <pt x="555" y="577" on="1"/>
        <pt x="281" y="108" on="1"/>
        <pt x="386" y="85" on="1"/>
        <pt x="386" y="0" on="1"/>
        <pt x="-7" y="0" on="1"/>
        <pt x="-7" y="85" on="1"/>
        <pt x="155" y="108" on="1"/>
        <pt x="917" y="1404" on="1"/>
        <pt x="800" y="1423" on="1"/>
        <pt x="800" y="1508" on="1"/>
        <pt x="1764" y="1508" on="1"/>
      </contour>
      <contour>
        <pt x="949" y="695" on="1"/>
        <pt x="949" y="1260" on="1"/>
        <pt x="949" y="1260" on="0"/>
        <pt x="620" y="695" on="1"/>
      </contour>
    </TTGlyph>
    <TTGlyph name="AEacute" xMin="-7" yMin="0" xMax="1809" yMax="2000">
      <component glyphName="AE" x="0" y="0" flags="0x1204"/>
      <component glyphName="acute.cap" x="736" y="0" flags="0x1004"/>
    </TTGlyph>
    <TTGlyph name="Aacute" xMin="-7" yMin="0" xMax="1555" yMax="2000">
      <component glyphName="A" x="0" y="0" flags="0x1204"/>
      <component glyphName="acute.cap" x="490" y="0" flags="0x1004"/>
    </TTGlyph>
    <TTGlyph name="Abreve" xMin="-7" yMin="0" xMax="1555" yMax="1999">
      <component glyphName="A" x="0" y="0" flags="0x1204"/>
      <component glyphName="breve.cap" x="490" y="0" flags="0x1004"/>
    </TTGlyph>
    <TTGlyph name="Acircumflex" xMin="-7" yMin="0" xMax="1555" yMax="2000">
      <component glyphName="A" x="0" y="0" flags="0x1204"/>
      <component glyphName="circumflex.cap" x="491" y="0" flags="0x1004"/>
    </TTGlyph>
    <TTGlyph name="Adieresis" xMin="-7" yMin="0" xMax="1555" yMax="2000">
      <component glyphName="A" x="0" y="0" flags="0x1204"/>
      <component glyphName="dieresis.cap" x="491" y="0" flags="0x1004"/>
    </TTGlyph>
    <TTGlyph name="Agrave" xMin="-7" yMin="0" xMax="1555" yMax="1999">
      <component glyphName="A" x="0" y="0" flags="0x1204"/>
      <component glyphName="grave.cap" x="493" y="0" flags="0x1004"/>
    </TTGlyph>
    <TTGlyph name="Amacron" xMin="-7" yMin="0" xMax="1555" yMax="1896">
      <component glyphName="A" x="0" y="0" flags="0x1204"/>
      <component glyphName="macron.cap" x="490" y="0" flags="0x1004"/>
    </TTGlyph>
    <TTGlyph name="Aogonek" xMin="-7" yMin="-436" xMax="1555" yMax="1573">
      <contour>
        <pt x="1491" y="-396" on="1"/>
        <pt x="1440" y="-436" on="0"/>
        <pt x="1346" y="-436" on="1"/>
        <pt x="1190" y="-436" on="0"/>
        <pt x="1134" y="-324" on="1"/>
        <pt x="1115" y="-286" on="0"/>
        <pt x="1115" y="-192" on="0"/>
        <pt x="1144" y="-110" on="0"/>
        <pt x="1164" y="-76" on="1"/>
        <pt x="1208" y="-4" on="0"/>
        <pt x="1248" y="10" on="1"/>
        <pt x="1258" y="36" on="0"/>
        <pt x="1350" y="72" on="1"/>
        <pt x="1399" y="91" on="1"/>
        <pt x="1299" y="-15" on="0"/>
        <pt x="1270" y="-135" on="1"/>
        <pt x="1261" y="-172" on="0"/>
        <pt x="1261" y="-203" on="1"/>
        <pt x="1261" y="-301" on="0"/>
        <pt x="1335" y="-301" on="1"/>
        <pt x="1367" y="-301" on="0"/>
        <pt x="1384" y="-286" on="1"/>
        <pt x="1411" y="-261" on="0"/>
        <pt x="1411" y="-239" on="1"/>
        <pt x="1452" y="-239" on="1"/>
      </contour>
      <contour>
        <pt x="1058" y="85" on="1"/>
        <pt x="1196" y="108" on="1"/>
        <pt x="1038" y="497" on="1"/>
        <pt x="438" y="497" on="1"/>
        <pt x="281" y="108" on="1"/>
        <pt x="422" y="85" on="1"/>
        <pt x="422" y="0" on="1"/>
        <pt x="-7" y="0" on="1"/>
        <pt x="-7" y="85" on="1"/>
        <pt x="151" y="108" on="1"/>
        <pt x="676" y="1406" on="1"/>
        <pt x="634" y="1505" on="1"/>
        <pt x="796" y="1573" on="1"/>
        <pt x="1394" y="108" on="1"/>
        <pt x="1555" y="85" on="1"/>
        <pt x="1555" y="0" on="1"/>
        <pt x="1058" y="0" on="1"/>
      </contour>
      <contour>
        <pt x="485" y="618" on="1"/>
        <pt x="994" y="618" on="1"/>
        <pt x="739" y="1260" on="1"/>
      </contour>
    </TTGlyph>
    <TTGlyph name="Aring" xMin="-7" yMin="0" xMax="1555" yMax="2000">
      <component glyphName="A" x="0" y="0" flags="0x1204"/>
      <component glyphName="ring.cap" x="492" y="0" flags="0x1004"/>
    </TTGlyph>
    <TTGlyph name="Atilde" xMin="-7" yMin="0" xMax="1555" yMax="1935">
      <component glyphName="A" x="0" y="0" flags="0x1204"/>
      <component glyphName="tilde.cap" x="490" y="0" flags="0x1004"/>
    </TTGlyph>
    <TTGlyph name="B" xMin="82" yMin="0" xMax="1322" yMax="1508">
      <contour>
        <pt x="1230" y="1158" on="1"/>
        <pt x="1230" y="1080" on="0"/>
        <pt x="1175" y="966" on="0"/>
        <pt x="1134" y="925" on="1"/>
        <pt x="1061" y="854" on="0"/>
        <pt x="952" y="813" on="1"/>
        <pt x="1128" y="779" on="0"/>
        <pt x="1210" y="708" on="1"/>
        <pt x="1322" y="610" on="0"/>
        <pt x="1322" y="416" on="1"/>
        <pt x="1322" y="242" on="0"/>
        <pt x="1188" y="127" on="1"/>
        <pt x="1041" y="0" on="0"/>
        <pt x="776" y="0" on="1"/>
        <pt x="82" y="0" on="1"/>
        <pt x="82" y="85" on="1"/>
        <pt x="234" y="108" on="1"/>
        <pt x="234" y="1400" on="1"/>
        <pt x="82" y="1423" on="1"/>
        <pt x="82" y="1508" on="1"/>
        <pt x="749" y="1508" on="1"/>
        <pt x="985" y="1508" on="0"/>
        <pt x="1111" y="1412" on="1"/>
        <pt x="1230" y="1322" on="0"/>
      </contour>
      <contour>
        <pt x="422" y="739" on="1"/>
        <pt x="422" y="120" on="1"/>
        <pt x="705" y="120" on="1"/>
        <pt x="1037" y="120" on="0"/>
        <pt x="1107" y="301" on="1"/>
        <pt x="1129" y="358" on="0"/>
        <pt x="1129" y="493" on="0"/>
        <pt x="1082" y="606" on="0"/>
        <pt x="1035" y="648" on="1"/>
        <pt x="933" y="739" on="0"/>
        <pt x="754" y="739" on="1"/>
      </contour>
      <contour>
        <pt x="422" y="1387" on="1"/>
        <pt x="422" y="848" on="1"/>
        <pt x="707" y="848" on="1"/>
        <pt x="919" y="848" on="0"/>
        <pt x="1003" y="992" on="1"/>
        <pt x="1035" y="1046" on="0"/>
        <pt x="1035" y="1130" on="1"/>
        <pt x="1035" y="1264" on="0"/>
        <pt x="887" y="1387" on="0"/>
        <pt x="726" y="1387" on="1"/>
      </contour>
    </TTGlyph>
    <TTGlyph name="C" xMin="78" yMin="-23" xMax="1401" yMax="1531">
      <contour>
        <pt x="898" y="1531" on="1"/>
        <pt x="1101" y="1531" on="0"/>
        <pt x="1270" y="1480" on="1"/>
        <pt x="1344" y="1457" on="0"/>
        <pt x="1394" y="1429" on="1"/>
        <pt x="1371" y="1162" on="1"/>
        <pt x="1305" y="1162" on="1"/>
        <pt x="1305" y="1273" on="0"/>
        <pt x="1196" y="1340" on="1"/>
        <pt x="1080" y="1411" on="0"/>
        <pt x="877" y="1411" on="1"/>
        <pt x="614" y="1411" on="0"/>
        <pt x="442" y="1234" on="1"/>
        <pt x="271" y="1056" on="0"/>
        <pt x="271" y="789" on="1"/>
        <pt x="271" y="506" on="0"/>
        <pt x="429" y="309" on="1"/>
        <pt x="536" y="176" on="0"/>
        <pt x="700" y="124" on="1"/>
        <pt x="784" y="97" on="0"/>
        <pt x="998" y="97" on="0"/>
        <pt x="1164" y="122" on="0"/>
        <pt x="1217" y="150" on="1"/>
        <pt x="1321" y="205" on="0"/>
        <pt x="1321" y="336" on="1"/>
        <pt x="1387" y="336" on="1"/>
        <pt x="1401" y="78" on="1"/>
        <pt x="1227" y="-23" on="0"/>
        <pt x="888" y="-23" on="1"/>
        <pt x="514" y="-23" on="0"/>
        <pt x="291" y="194" on="1"/>
        <pt x="78" y="401" on="0"/>
        <pt x="78" y="728" on="1"/>
        <pt x="78" y="1090" on="0"/>
        <pt x="330" y="1318" on="1"/>
        <pt x="563" y="1531" on="0"/>
      </contour>
    </TTGlyph>
    <TTGlyph name="Cacute" xMin="78" yMin="-23" xMax="1401" yMax="2000">
      <component glyphName="C" x="0" y="0" flags="0x1204"/>
      <component glyphName="acute.cap" x="584" y="0" flags="0x1004"/>
    </TTGlyph>
    <TTGlyph name="Ccaron" xMin="78" yMin="-23" xMax="1401" yMax="2000">
      <component glyphName="C" x="0" y="0" flags="0x1204"/>
      <component glyphName="caron.cap" x="586" y="0" flags="0x1004"/>
    </TTGlyph>
    <TTGlyph name="Ccedilla" xMin="78" yMin="-528" xMax="1401" yMax="1531">
      <component glyphName="C" x="0" y="0" flags="0x1204"/>
      <component glyphName="cedilla" x="571" y="0" flags="0x1004"/>
    </TTGlyph>
    <TTGlyph name="Ccircumflex" xMin="78" yMin="-23" xMax="1401" yMax="2000">
      <component glyphName="C" x="0" y="0" flags="0x1204"/>
      <component glyphName="circumflex.cap" x="585" y="0" flags="0x1004"/>
    </TTGlyph>
    <TTGlyph name="Cdotaccent" xMin="78" yMin="-23" xMax="1401" yMax="2000">
      <component glyphName="C" x="0" y="0" flags="0x1204"/>
      <component glyphName="dotaccent.cap" x="595" y="0" flags="0x1004"/>
    </TTGlyph>
    <TTGlyph name="D" xMin="131" yMin="0" xMax="1607" yMax="1508">
      <contour>
        <pt x="286" y="1400" on="1"/>
        <pt x="131" y="1423" on="1"/>
        <pt x="131" y="1508" on="1"/>
        <pt x="773" y="1508" on="1"/>
        <pt x="1170" y="1508" on="0"/>
        <pt x="1391" y="1314" on="1"/>
        <pt x="1607" y="1123" on="0"/>
        <pt x="1607" y="791" on="1"/>
        <pt x="1607" y="552" on="0"/>
        <pt x="1496" y="364" on="1"/>
        <pt x="1394" y="191" on="0"/>
        <pt x="1213" y="94" on="1"/>
        <pt x="1037" y="0" on="0"/>
        <pt x="834" y="0" on="1"/>
        <pt x="131" y="0" on="1"/>
        <pt x="131" y="85" on="1"/>
        <pt x="286" y="108" on="1"/>
      </contour>
      <contour>
        <pt x="471" y="1387" on="1"/>
        <pt x="471" y="120" on="1"/>
        <pt x="832" y="120" on="1"/>
        <pt x="1083" y="120" on="0"/>
        <pt x="1248" y="278" on="1"/>
        <pt x="1418" y="443" on="0"/>
        <pt x="1418" y="709" on="1"/>
        <pt x="1418" y="1218" on="0"/>
        <pt x="1062" y="1344" on="1"/>
        <pt x="939" y="1387" on="0"/>
        <pt x="768" y="1387" on="1"/>
      </contour>
    </TTGlyph>
    <TTGlyph name="Dcaron" xMin="131" yMin="0" xMax="1607" yMax="2000">
      <component glyphName="D" x="0" y="0" flags="0x1204"/>
      <component glyphName="caron.cap" x="458" y="0" flags="0x1004"/>
    </TTGlyph>
    <TTGlyph name="Dcroat" xMin="31" yMin="0" xMax="1552" yMax="1508">
      <component glyphName="Eth" x="0" y="0" flags="0x1204"/>
    </TTGlyph>
    <TTGlyph name="Delta" xMin="117" yMin="1" xMax="1590" yMax="1516">
      <contour>
        <pt x="117" y="22" on="1"/>
        <pt x="805" y="1516" on="1"/>
        <pt x="837" y="1516" on="1"/>
        <pt x="1590" y="27" on="1"/>
        <pt x="1574" y="1" on="1"/>
        <pt x="131" y="1" on="1"/>
      </contour>
      <contour>
        <pt x="1374" y="130" on="1"/>
        <pt x="819" y="1234" on="1"/>
        <pt x="329" y="128" on="1"/>
      </contour>
    </TTGlyph>
    <TTGlyph name="E" xMin="82" yMin="0" xMax="1127" yMax="1508">
      <contour>
        <pt x="790" y="723" on="1"/>
        <pt x="422" y="723" on="1"/>
        <pt x="422" y="120" on="1"/>
        <pt x="979" y="120" on="1"/>
        <pt x="1051" y="297" on="1"/>
        <pt x="1127" y="297" on="1"/>
        <pt x="1094" y="0" on="1"/>
        <pt x="82" y="0" on="1"/>
        <pt x="82" y="85" on="1"/>
        <pt x="234" y="108" on="1"/>
        <pt x="234" y="1400" on="1"/>
        <pt x="82" y="1423" on="1"/>
        <pt x="82" y="1508" on="1"/>
        <pt x="1050" y="1508" on="1"/>
        <pt x="1073" y="1211" on="1"/>
        <pt x="985" y="1211" on="1"/>
        <pt x="931" y="1387" on="1"/>
        <pt x="422" y="1387" on="1"/>
        <pt x="422" y="843" on="1"/>
        <pt x="790" y="843" on="1"/>
        <pt x="820" y="949" on="1"/>
        <pt x="891" y="949" on="1"/>
        <pt x="891" y="618" on="1"/>
        <pt x="820" y="618" on="1"/>
      </contour>
    </TTGlyph>
    <TTGlyph name="Eacute" xMin="82" yMin="0" xMax="1127" yMax="2000">
      <component glyphName="E" x="0" y="0" flags="0x1204"/>
      <component glyphName="acute.cap" x="372" y="0" flags="0x1004"/>
    </TTGlyph>
    <TTGlyph name="Ebreve" xMin="82" yMin="0" xMax="1127" yMax="1999">
      <component glyphName="E" x="0" y="0" flags="0x1204"/>
      <component glyphName="breve.cap" x="372" y="0" flags="0x1004"/>
    </TTGlyph>
    <TTGlyph name="Ecaron" xMin="82" yMin="0" xMax="1127" yMax="2000">
      <component glyphName="E" x="0" y="0" flags="0x1204"/>
      <component glyphName="caron.cap" x="374" y="0" flags="0x1004"/>
    </TTGlyph>
    <TTGlyph name="Ecircumflex" xMin="82" yMin="0" xMax="1127" yMax="2000">
      <component glyphName="E" x="0" y="0" flags="0x1204"/>
      <component glyphName="circumflex.cap" x="373" y="0" flags="0x1004"/>
    </TTGlyph>
    <TTGlyph name="Edieresis" xMin="82" yMin="0" xMax="1127" yMax="2000">
      <component glyphName="E" x="0" y="0" flags="0x1204"/>
      <component glyphName="dieresis.cap" x="373" y="0" flags="0x1004"/>
    </TTGlyph>
    <TTGlyph name="Edotaccent" xMin="82" yMin="0" xMax="1127" yMax="2000">
      <component glyphName="E" x="0" y="0" flags="0x1204"/>
      <component glyphName="dotaccent.cap" x="383" y="0" flags="0x1004"/>
    </TTGlyph>
    <TTGlyph name="Egrave" xMin="82" yMin="0" xMax="1127" yMax="1999">
      <component glyphName="E" x="0" y="0" flags="0x1204"/>
      <component glyphName="grave.cap" x="375" y="0" flags="0x1004"/>
    </TTGlyph>
    <TTGlyph name="Emacron" xMin="82" yMin="0" xMax="1127" yMax="1896">
      <component glyphName="E" x="0" y="0" flags="0x1204"/>
      <component glyphName="macron.cap" x="372" y="0" flags="0x1004"/>
    </TTGlyph>
    <TTGlyph name="Eng" xMin="72" yMin="-560" xMax="1592" yMax="1508">
      <contour>
        <pt x="1441" y="268" on="1"/>
        <pt x="1441" y="99" on="1"/>
        <pt x="1441" y="-110" on="0"/>
        <pt x="1322" y="-310" on="1"/>
        <pt x="1244" y="-440" on="0"/>
        <pt x="1144" y="-515" on="1"/>
        <pt x="1084" y="-560" on="0"/>
        <pt x="1038" y="-560" on="1"/>
        <pt x="914" y="-560" on="0"/>
        <pt x="834" y="-497" on="1"/>
        <pt x="897" y="-290" on="1"/>
        <pt x="962" y="-290" on="1"/>
        <pt x="962" y="-347" on="0"/>
        <pt x="1016" y="-376" on="1"/>
        <pt x="1037" y="-387" on="0"/>
        <pt x="1106" y="-387" on="0"/>
        <pt x="1172" y="-354" on="0"/>
        <pt x="1198" y="-320" on="1"/>
        <pt x="1254" y="-243" on="0"/>
        <pt x="1254" y="-108" on="1"/>
        <pt x="1254" y="268" on="1"/>
      </contour>
      <contour>
        <pt x="342" y="1218" on="1"/>
        <pt x="342" y="108" on="1"/>
        <pt x="494" y="85" on="1"/>
        <pt x="494" y="0" on="1"/>
        <pt x="72" y="0" on="1"/>
        <pt x="72" y="85" on="1"/>
        <pt x="227" y="108" on="1"/>
        <pt x="227" y="1400" on="1"/>
        <pt x="72" y="1423" on="1"/>
        <pt x="72" y="1508" on="1"/>
        <pt x="348" y="1508" on="1"/>
        <pt x="1324" y="290" on="1"/>
        <pt x="1324" y="1400" on="1"/>
        <pt x="1173" y="1423" on="1"/>
        <pt x="1173" y="1508" on="1"/>
        <pt x="1592" y="1508" on="1"/>
        <pt x="1592" y="1423" on="1"/>
        <pt x="1441" y="1400" on="1"/>
        <pt x="1441" y="99" on="1"/>
        <pt x="1317" y="0" on="1"/>
      </contour>
    </TTGlyph>
    <TTGlyph name="Eogonek" xMin="82" yMin="-436" xMax="1127" yMax="1508">
      <contour>
        <pt x="1077" y="-396" on="1"/>
        <pt x="1026" y="-436" on="0"/>
        <pt x="932" y="-436" on="1"/>
        <pt x="852" y="-436" on="0"/>
        <pt x="776" y="-393" on="0"/>
        <pt x="750" y="-364" on="1"/>
        <pt x="701" y="-311" on="0"/>
        <pt x="701" y="-192" on="0"/>
        <pt x="730" y="-110" on="0"/>
        <pt x="750" y="-76" on="1"/>
        <pt x="794" y="-4" on="0"/>
        <pt x="834" y="10" on="1"/>
        <pt x="944" y="50" on="1"/>
        <pt x="854" y="-61" on="0"/>
        <pt x="854" y="-198" on="1"/>
        <pt x="854" y="-301" on="0"/>
        <pt x="921" y="-301" on="1"/>
        <pt x="953" y="-301" on="0"/>
        <pt x="970" y="-286" on="1"/>
        <pt x="997" y="-261" on="0"/>
        <pt x="997" y="-239" on="1"/>
        <pt x="1038" y="-239" on="1"/>
      </contour>
      <contour>
        <pt x="790" y="723" on="1"/>
        <pt x="422" y="723" on="1"/>
        <pt x="422" y="120" on="1"/>
        <pt x="979" y="120" on="1"/>
        <pt x="1051" y="297" on="1"/>
        <pt x="1127" y="297" on="1"/>
        <pt x="1094" y="0" on="1"/>
        <pt x="82" y="0" on="1"/>
        <pt x="82" y="85" on="1"/>
        <pt x="234" y="108" on="1"/>
        <pt x="234" y="1400" on="1"/>
        <pt x="82" y="1423" on="1"/>
        <pt x="82" y="1508" on="1"/>
        <pt x="1050" y="1508" on="1"/>
        <pt x="1073" y="1211" on="1"/>
        <pt x="985" y="1211" on="1"/>
        <pt x="931" y="1387" on="1"/>
        <pt x="422" y="1387" on="1"/>
        <pt x="422" y="843" on="1"/>
        <pt x="790" y="843" on="1"/>
        <pt x="820" y="949" on="1"/>
        <pt x="891" y="949" on="1"/>
        <pt x="891" y="618" on="1"/>
        <pt x="820" y="618" on="1"/>
      </contour>
    </TTGlyph>
    <TTGlyph name="Eth" xMin="31" yMin="0" xMax="1552" yMax="1508">
      <contour>
        <pt x="56" y="838" on="1"/>
        <pt x="227" y="838" on="1"/>
        <pt x="227" y="1400" on="1"/>
        <pt x="72" y="1423" on="1"/>
        <pt x="72" y="1508" on="1"/>
        <pt x="744" y="1508" on="1"/>
        <pt x="1122" y="1508" on="0"/>
        <pt x="1338" y="1314" on="1"/>
        <pt x="1552" y="1121" on="0"/>
        <pt x="1552" y="791" on="1"/>
        <pt x="1552" y="552" on="0"/>
        <pt x="1443" y="364" on="1"/>
        <pt x="1343" y="191" on="0"/>
        <pt x="1168" y="94" on="1"/>
        <pt x="998" y="0" on="0"/>
        <pt x="805" y="0" on="1"/>
        <pt x="72" y="0" on="1"/>
        <pt x="72" y="85" on="1"/>
        <pt x="227" y="108" on="1"/>
        <pt x="227" y="719" on="1"/>
        <pt x="31" y="719" on="1"/>
      </contour>
      <contour>
        <pt x="412" y="1387" on="1"/>
        <pt x="412" y="838" on="1"/>
        <pt x="841" y="838" on="1"/>
        <pt x="815" y="719" on="1"/>
        <pt x="412" y="719" on="1"/>
        <pt x="412" y="120" on="1"/>
        <pt x="803" y="120" on="1"/>
        <pt x="1039" y="120" on="0"/>
        <pt x="1196" y="278" on="1"/>
        <pt x="1359" y="440" on="0"/>
        <pt x="1359" y="699" on="1"/>
        <pt x="1359" y="997" on="0"/>
        <pt x="1209" y="1183" on="1"/>
        <pt x="1044" y="1387" on="0"/>
        <pt x="739" y="1387" on="1"/>
      </contour>
    </TTGlyph>
    <TTGlyph name="Euro" xMin="88" yMin="-23" xMax="1216" yMax="1524">
      <contour>
        <pt x="184" y="665" on="1"/>
        <pt x="184" y="796" on="0"/>
        <pt x="191" y="848" on="1"/>
        <pt x="108" y="848" on="1"/>
        <pt x="160" y="966" on="1"/>
        <pt x="209" y="966" on="1"/>
        <pt x="268" y="1223" on="0"/>
        <pt x="444" y="1375" on="1"/>
        <pt x="617" y="1524" on="0"/>
        <pt x="839" y="1524" on="1"/>
        <pt x="1022" y="1524" on="0"/>
        <pt x="1136" y="1472" on="1"/>
        <pt x="1187" y="1449" on="0"/>
        <pt x="1216" y="1420" on="1"/>
        <pt x="1192" y="1178" on="1"/>
        <pt x="1126" y="1178" on="1"/>
        <pt x="1126" y="1331" on="0"/>
        <pt x="975" y="1384" on="1"/>
        <pt x="918" y="1404" on="0"/>
        <pt x="742" y="1404" on="0"/>
        <pt x="595" y="1337" on="0"/>
        <pt x="540" y="1278" on="1"/>
        <pt x="431" y="1162" on="0"/>
        <pt x="393" y="966" on="1"/>
        <pt x="909" y="966" on="1"/>
        <pt x="855" y="848" on="1"/>
        <pt x="380" y="848" on="1"/>
        <pt x="378" y="814" on="0"/>
        <pt x="378" y="717" on="0"/>
        <pt x="382" y="665" on="1"/>
        <pt x="909" y="665" on="1"/>
        <pt x="855" y="546" on="1"/>
        <pt x="396" y="546" on="1"/>
        <pt x="453" y="226" on="0"/>
        <pt x="653" y="128" on="1"/>
        <pt x="724" y="94" on="0"/>
        <pt x="904" y="94" on="0"/>
        <pt x="1020" y="133" on="0"/>
        <pt x="1056" y="166" on="1"/>
        <pt x="1121" y="225" on="0"/>
        <pt x="1121" y="323" on="1"/>
        <pt x="1185" y="323" on="1"/>
        <pt x="1208" y="80" on="1"/>
        <pt x="1066" y="-23" on="0"/>
        <pt x="820" y="-23" on="1"/>
        <pt x="554" y="-23" on="0"/>
        <pt x="388" y="138" on="1"/>
        <pt x="236" y="287" on="0"/>
        <pt x="196" y="546" on="1"/>
        <pt x="88" y="546" on="1"/>
        <pt x="139" y="665" on="1"/>
      </contour>
    </TTGlyph>
    <TTGlyph name="F" xMin="72" yMin="0" xMax="1113" yMax="1508">
      <contour>
        <pt x="799" y="699" on="1"/>
        <pt x="412" y="699" on="1"/>
        <pt x="412" y="108" on="1"/>
        <pt x="639" y="85" on="1"/>
        <pt x="639" y="0" on="1"/>
        <pt x="72" y="0" on="1"/>
        <pt x="72" y="85" on="1"/>
        <pt x="224" y="108" on="1"/>
        <pt x="224" y="1400" on="1"/>
        <pt x="72" y="1423" on="1"/>
        <pt x="72" y="1508" on="1"/>
        <pt x="1090" y="1508" on="1"/>
        <pt x="1113" y="1211" on="1"/>
        <pt x="1025" y="1211" on="1"/>
        <pt x="971" y="1387" on="1"/>
        <pt x="412" y="1387" on="1"/>
        <pt x="412" y="820" on="1"/>
        <pt x="799" y="820" on="1"/>
        <pt x="829" y="926" on="1"/>
        <pt x="891" y="926" on="1"/>
        <pt x="891" y="593" on="1"/>
        <pt x="829" y="593" on="1"/>
      </contour>
    </TTGlyph>
    <TTGlyph name="G" xMin="98" yMin="-23" xMax="1593" yMax="1531">
      <contour>
        <pt x="1002" y="679" on="1"/>
        <pt x="1593" y="679" on="1"/>
        <pt x="1593" y="571" on="1"/>
        <pt x="1537" y="571" on="1"/>
        <pt x="1507" y="571" on="0"/>
        <pt x="1476" y="552" on="0"/>
        <pt x="1476" y="526" on="1"/>
        <pt x="1476" y="94" on="1"/>
        <pt x="1404" y="94" on="0"/>
        <pt x="1316" y="64" on="1"/>
        <pt x="1188" y="22" on="1"/>
        <pt x="1045" y="-23" on="0"/>
        <pt x="714" y="-23" on="0"/>
        <pt x="419" y="96" on="0"/>
        <pt x="211" y="302" on="0"/>
        <pt x="98" y="580" on="0"/>
        <pt x="98" y="861" on="0"/>
        <pt x="157" y="1075" on="0"/>
        <pt x="263" y="1251" on="0"/>
        <pt x="410" y="1388" on="0"/>
        <pt x="498" y="1435" on="1"/>
        <pt x="679" y="1531" on="0"/>
        <pt x="892" y="1531" on="1"/>
        <pt x="1221" y="1531" on="0"/>
        <pt x="1414" y="1429" on="1"/>
        <pt x="1391" y="1182" on="1"/>
        <pt x="1325" y="1182" on="1"/>
        <pt x="1325" y="1274" on="0"/>
        <pt x="1211" y="1339" on="1"/>
        <pt x="1085" y="1411" on="0"/>
        <pt x="887" y="1411" on="1"/>
        <pt x="630" y="1411" on="0"/>
        <pt x="460" y="1226" on="1"/>
        <pt x="294" y="1046" on="0"/>
        <pt x="294" y="789" on="1"/>
        <pt x="294" y="507" on="0"/>
        <pt x="450" y="309" on="1"/>
        <pt x="618" y="97" on="0"/>
        <pt x="903" y="97" on="1"/>
        <pt x="1217" y="97" on="0"/>
        <pt x="1273" y="232" on="1"/>
        <pt x="1290" y="274" on="0"/>
        <pt x="1290" y="323" on="1"/>
        <pt x="1290" y="526" on="1"/>
        <pt x="1290" y="553" on="0"/>
        <pt x="1259" y="571" on="0"/>
        <pt x="1233" y="571" on="1"/>
        <pt x="1002" y="571" on="1"/>
      </contour>
    </TTGlyph>
    <TTGlyph name="Gbreve" xMin="98" yMin="-23" xMax="1593" yMax="1999">
      <component glyphName="G" x="0" y="0" flags="0x1204"/>
      <component glyphName="breve.cap" x="589" y="0" flags="0x1004"/>
    </TTGlyph>
    <TTGlyph name="Gcircumflex" xMin="98" yMin="-23" xMax="1593" yMax="2000">
      <component glyphName="G" x="0" y="0" flags="0x1204"/>
      <component glyphName="circumflex.cap" x="590" y="0" flags="0x1004"/>
    </TTGlyph>
    <TTGlyph name="Gcommaaccent" xMin="98" yMin="-560" xMax="1593" yMax="1531">
      <component glyphName="G" x="0" y="0" flags="0x1204"/>
      <component glyphName="commaaccent" x="573" y="0" flags="0x1004"/>
    </TTGlyph>
    <TTGlyph name="Gdotaccent" xMin="98" yMin="-23" xMax="1593" yMax="2000">
      <component glyphName="G" x="0" y="0" flags="0x1204"/>
      <component glyphName="dotaccent.cap" x="600" y="0" flags="0x1004"/>
    </TTGlyph>
    <TTGlyph name="H" xMin="98" yMin="0" xMax="1608" yMax="1508">
      <contour>
        <pt x="98" y="1508" on="1"/>
        <pt x="588" y="1508" on="1"/>
        <pt x="588" y="1423" on="1"/>
        <pt x="435" y="1400" on="1"/>
        <pt x="435" y="829" on="1"/>
        <pt x="1270" y="829" on="1"/>
        <pt x="1270" y="1400" on="1"/>
        <pt x="1118" y="1423" on="1"/>
        <pt x="1118" y="1508" on="1"/>
        <pt x="1608" y="1508" on="1"/>
        <pt x="1608" y="1423" on="1"/>
        <pt x="1457" y="1400" on="1"/>
        <pt x="1457" y="108" on="1"/>
        <pt x="1608" y="85" on="1"/>
        <pt x="1608" y="0" on="1"/>
        <pt x="1118" y="0" on="1"/>
        <pt x="1118" y="85" on="1"/>
        <pt x="1270" y="108" on="1"/>
        <pt x="1270" y="709" on="1"/>
        <pt x="435" y="709" on="1"/>
        <pt x="435" y="108" on="1"/>
        <pt x="588" y="85" on="1"/>
        <pt x="588" y="0" on="1"/>
        <pt x="98" y="0" on="1"/>
        <pt x="98" y="85" on="1"/>
        <pt x="250" y="108" on="1"/>
        <pt x="250" y="1400" on="1"/>
        <pt x="98" y="1423" on="1"/>
      </contour>
    </TTGlyph>
    <TTGlyph name="Hbar" xMin="58" yMin="0" xMax="1653" yMax="1508">
      <contour>
        <pt x="85" y="1013" on="1"/>
        <pt x="1653" y="1014" on="1"/>
        <pt x="1625" y="884" on="1"/>
        <pt x="58" y="884" on="1"/>
      </contour>
      <contour>
        <pt x="98" y="1508" on="1"/>
        <pt x="588" y="1508" on="1"/>
        <pt x="588" y="1423" on="1"/>
        <pt x="435" y="1400" on="1"/>
        <pt x="435" y="655" on="1"/>
        <pt x="1270" y="655" on="1"/>
        <pt x="1270" y="1400" on="1"/>
        <pt x="1118" y="1423" on="1"/>
        <pt x="1118" y="1508" on="1"/>
        <pt x="1608" y="1508" on="1"/>
        <pt x="1608" y="1423" on="1"/>
        <pt x="1457" y="1400" on="1"/>
        <pt x="1457" y="108" on="1"/>
        <pt x="1608" y="85" on="1"/>
        <pt x="1608" y="0" on="1"/>
        <pt x="1118" y="0" on="1"/>
        <pt x="1118" y="85" on="1"/>
        <pt x="1270" y="108" on="1"/>
        <pt x="1270" y="535" on="1"/>
        <pt x="435" y="535" on="1"/>
        <pt x="435" y="108" on="1"/>
        <pt x="588" y="85" on="1"/>
        <pt x="588" y="0" on="1"/>
        <pt x="98" y="0" on="1"/>
        <pt x="98" y="85" on="1"/>
        <pt x="250" y="108" on="1"/>
        <pt x="250" y="1400" on="1"/>
        <pt x="98" y="1423" on="1"/>
      </contour>
    </TTGlyph>
    <TTGlyph name="Hcircumflex" xMin="495" yMin="1661" xMax="1159" yMax="2000">
      <component glyphName="circumflex.cap" x="544" y="0" flags="0x1004"/>
    </TTGlyph>
    <TTGlyph name="I" xMin="96" yMin="0" xMax="586" yMax="1508">
      <contour>
        <pt x="96" y="1508" on="1"/>
        <pt x="586" y="1508" on="1"/>
        <pt x="586" y="1423" on="1"/>
        <pt x="435" y="1400" on="1"/>
        <pt x="435" y="108" on="1"/>
        <pt x="586" y="85" on="1"/>
        <pt x="586" y="0" on="1"/>
        <pt x="96" y="0" on="1"/>
        <pt x="96" y="85" on="1"/>
        <pt x="250" y="108" on="1"/>
        <pt x="250" y="1400" on="1"/>
        <pt x="96" y="1423" on="1"/>
      </contour>
    </TTGlyph>
    <TTGlyph name="IJ" xMin="96" yMin="-560" xMax="1283" yMax="1508">
      <component glyphName="I" x="0" y="0" flags="0x1004"/>
      <component glyphName="J" x="682" y="0" flags="0x1004"/>
    </TTGlyph>
    <TTGlyph name="Iacute" xMin="96" yMin="0" xMax="622" yMax="2000">
      <component glyphName="I" x="0" y="0" flags="0x1204"/>
      <component glyphName="acute.cap" x="57" y="0" flags="0x1004"/>
    </TTGlyph>
    <TTGlyph name="Ibreve" xMin="45" yMin="0" xMax="637" yMax="1999">
      <component glyphName="I" x="0" y="0" flags="0x1204"/>
      <component glyphName="breve.cap" x="57" y="0" flags="0x1004"/>
    </TTGlyph>
    <TTGlyph name="Icircumflex" xMin="9" yMin="0" xMax="673" yMax="2000">
      <component glyphName="I" x="0" y="0" flags="0x1204"/>
      <component glyphName="circumflex.cap" x="58" y="0" flags="0x1004"/>
    </TTGlyph>
    <TTGlyph name="Idieresis" xMin="32" yMin="0" xMax="651" yMax="2000">
      <component glyphName="I" x="0" y="0" flags="0x1204"/>
      <component glyphName="dieresis.cap" x="58" y="0" flags="0x1004"/>
    </TTGlyph>
    <TTGlyph name="Idotaccent" xMin="96" yMin="0" xMax="586" yMax="2000">
      <component glyphName="I" x="0" y="0" flags="0x1204"/>
      <component glyphName="dotaccent.cap" x="68" y="0" flags="0x1004"/>
    </TTGlyph>
    <TTGlyph name="Igrave" xMin="30" yMin="0" xMax="586" yMax="1999">
      <component glyphName="I" x="0" y="0" flags="0x1204"/>
      <component glyphName="grave.cap" x="60" y="0" flags="0x1004"/>
    </TTGlyph>
    <TTGlyph name="Imacron" xMin="39" yMin="0" xMax="643" yMax="1896">
      <component glyphName="I" x="0" y="0" flags="0x1204"/>
      <component glyphName="macron.cap" x="57" y="0" flags="0x1004"/>
    </TTGlyph>
    <TTGlyph name="Iogonek" xMin="96" yMin="-436" xMax="586" yMax="1508">
      <contour>
        <pt x="586" y="-396" on="1"/>
        <pt x="535" y="-436" on="0"/>
        <pt x="441" y="-436" on="1"/>
        <pt x="285" y="-436" on="0"/>
        <pt x="229" y="-324" on="1"/>
        <pt x="210" y="-286" on="0"/>
        <pt x="210" y="-192" on="0"/>
        <pt x="239" y="-110" on="0"/>
        <pt x="260" y="-76" on="1"/>
        <pt x="303" y="-4" on="0"/>
        <pt x="343" y="10" on="1"/>
        <pt x="353" y="36" on="0"/>
        <pt x="445" y="72" on="1"/>
        <pt x="494" y="91" on="1"/>
        <pt x="407" y="24" on="0"/>
        <pt x="372" y="-123" on="1"/>
        <pt x="363" y="-164" on="0"/>
        <pt x="363" y="-199" on="1"/>
        <pt x="363" y="-301" on="0"/>
        <pt x="430" y="-301" on="1"/>
        <pt x="462" y="-301" on="0"/>
        <pt x="479" y="-286" on="1"/>
        <pt x="506" y="-261" on="0"/>
        <pt x="506" y="-239" on="1"/>
        <pt x="547" y="-239" on="1"/>
      </contour>
      <contour>
        <pt x="96" y="1508" on="1"/>
        <pt x="586" y="1508" on="1"/>
        <pt x="586" y="1423" on="1"/>
        <pt x="435" y="1400" on="1"/>
        <pt x="435" y="108" on="1"/>
        <pt x="586" y="85" on="1"/>
        <pt x="586" y="0" on="1"/>
        <pt x="96" y="0" on="1"/>
        <pt x="96" y="85" on="1"/>
        <pt x="250" y="108" on="1"/>
        <pt x="250" y="1400" on="1"/>
        <pt x="96" y="1423" on="1"/>
      </contour>
    </TTGlyph>
    <TTGlyph name="Itilde" xMin="-13" yMin="0" xMax="695" yMax="1935">
      <component glyphName="I" x="0" y="0" flags="0x1204"/>
      <component glyphName="tilde.cap" x="57" y="0" flags="0x1004"/>
    </TTGlyph>
    <TTGlyph name="J" xMin="-157" yMin="-560" xMax="601" yMax="1508">
      <contour>
        <pt x="450" y="89" on="1"/>
        <pt x="450" y="-170" on="0"/>
        <pt x="346" y="-330" on="1"/>
        <pt x="282" y="-426" on="0"/>
        <pt x="193" y="-501" on="0"/>
        <pt x="162" y="-520" on="1"/>
        <pt x="95" y="-560" on="0"/>
        <pt x="49" y="-560" on="1"/>
        <pt x="-76" y="-560" on="0"/>
        <pt x="-157" y="-497" on="1"/>
        <pt x="-94" y="-300" on="1"/>
        <pt x="-29" y="-300" on="1"/>
        <pt x="-29" y="-357" on="0"/>
        <pt x="24" y="-386" on="1"/>
        <pt x="46" y="-397" on="0"/>
        <pt x="115" y="-397" on="0"/>
        <pt x="181" y="-364" on="0"/>
        <pt x="206" y="-330" on="1"/>
        <pt x="263" y="-253" on="0"/>
        <pt x="263" y="-118" on="1"/>
        <pt x="263" y="1400" on="1"/>
        <pt x="111" y="1423" on="1"/>
        <pt x="111" y="1508" on="1"/>
        <pt x="601" y="1508" on="1"/>
        <pt x="601" y="1423" on="1"/>
        <pt x="450" y="1400" on="1"/>
      </contour>
    </TTGlyph>
    <TTGlyph name="Jcircumflex" xMin="-157" yMin="-560" xMax="647" yMax="2000">
      <component glyphName="J" x="0" y="0" flags="0x1204"/>
      <component glyphName="circumflex.cap" x="32" y="0" flags="0x1004"/>
    </TTGlyph>
    <TTGlyph name="K" xMin="95" yMin="0" xMax="1472" yMax="1508">
      <contour>
        <pt x="1113" y="1402" on="1"/>
        <pt x="1000" y="1423" on="1"/>
        <pt x="1000" y="1508" on="1"/>
        <pt x="1469" y="1508" on="1"/>
        <pt x="1469" y="1423" on="1"/>
        <pt x="1290" y="1402" on="1"/>
        <pt x="654" y="791" on="1"/>
        <pt x="1264" y="139" on="1"/>
        <pt x="1342" y="101" on="1"/>
        <pt x="1472" y="85" on="1"/>
        <pt x="1472" y="0" on="1"/>
        <pt x="1120" y="0" on="1"/>
        <pt x="443" y="753" on="1"/>
      </contour>
      <contour>
        <pt x="95" y="1508" on="1"/>
        <pt x="585" y="1508" on="1"/>
        <pt x="585" y="1423" on="1"/>
        <pt x="435" y="1400" on="1"/>
        <pt x="435" y="108" on="1"/>
        <pt x="585" y="85" on="1"/>
        <pt x="585" y="0" on="1"/>
        <pt x="95" y="0" on="1"/>
        <pt x="95" y="85" on="1"/>
        <pt x="250" y="108" on="1"/>
        <pt x="250" y="1400" on="1"/>
        <pt x="95" y="1423" on="1"/>
      </contour>
    </TTGlyph>
    <TTGlyph name="Kcommaaccent" xMin="73" yMin="-560" xMax="1450" yMax="1508">
      <component glyphName="K" x="-22" y="0" flags="0x1204"/>
      <component glyphName="commaaccent" x="488" y="0" flags="0x1004"/>
    </TTGlyph>
    <TTGlyph name="L" xMin="72" yMin="0" xMax="1101" yMax="1508">
      <contour>
        <pt x="562" y="1508" on="1"/>
        <pt x="562" y="1423" on="1"/>
        <pt x="412" y="1400" on="1"/>
        <pt x="412" y="120" on="1"/>
        <pt x="960" y="120" on="1"/>
        <pt x="1019" y="344" on="1"/>
        <pt x="1101" y="344" on="1"/>
        <pt x="1092" y="0" on="1"/>
        <pt x="72" y="0" on="1"/>
        <pt x="72" y="85" on="1"/>
        <pt x="224" y="108" on="1"/>
        <pt x="224" y="1400" on="1"/>
        <pt x="72" y="1423" on="1"/>
        <pt x="72" y="1508" on="1"/>
      </contour>
    </TTGlyph>
    <TTGlyph name="Lacute" xMin="72" yMin="0" xMax="1101" yMax="2000">
      <component glyphName="L" x="0" y="0" flags="0x1204"/>
      <component glyphName="acute.cap" x="465" y="0" flags="0x1004"/>
    </TTGlyph>
    <TTGlyph name="Lcaron" xMin="72" yMin="0" xMax="1101" yMax="1533">
      <contour>
        <pt x="803" y="1083" on="1"/>
        <pt x="862" y="1166" on="0"/>
        <pt x="862" y="1249" on="1"/>
        <pt x="862" y="1294" on="0"/>
        <pt x="832" y="1327" on="0"/>
        <pt x="796" y="1353" on="0"/>
        <pt x="766" y="1381" on="0"/>
        <pt x="766" y="1419" on="0"/>
        <pt x="790" y="1463" on="0"/>
        <pt x="808" y="1484" on="1"/>
        <pt x="853" y="1533" on="0"/>
        <pt x="898" y="1533" on="1"/>
        <pt x="935" y="1533" on="0"/>
        <pt x="970" y="1489" on="1"/>
        <pt x="1003" y="1447" on="0"/>
        <pt x="1003" y="1343" on="0"/>
        <pt x="983" y="1242" on="0"/>
        <pt x="967" y="1200" on="1"/>
        <pt x="907" y="1043" on="0"/>
        <pt x="776" y="968" on="1"/>
        <pt x="745" y="1022" on="1"/>
        <pt x="777" y="1047" on="0"/>
      </contour>
      <contour>
        <pt x="562" y="1508" on="1"/>
        <pt x="562" y="1423" on="1"/>
        <pt x="412" y="1400" on="1"/>
        <pt x="412" y="120" on="1"/>
        <pt x="960" y="120" on="1"/>
        <pt x="1019" y="344" on="1"/>
        <pt x="1101" y="344" on="1"/>
        <pt x="1092" y="0" on="1"/>
        <pt x="72" y="0" on="1"/>
        <pt x="72" y="85" on="1"/>
        <pt x="224" y="108" on="1"/>
        <pt x="224" y="1400" on="1"/>
        <pt x="72" y="1423" on="1"/>
        <pt x="72" y="1508" on="1"/>
      </contour>
    </TTGlyph>
    <TTGlyph name="Lcommaaccent" xMin="72" yMin="-560" xMax="1101" yMax="1508">
      <component glyphName="L" x="0" y="0" flags="0x1204"/>
      <component glyphName="commaaccent" x="376" y="0" flags="0x1004"/>
    </TTGlyph>
    <TTGlyph name="Ldot" xMin="72" yMin="0" xMax="1101" yMax="1508">
      <component glyphName="L" x="0" y="0" flags="0x1204"/>
      <component glyphName="periodcentered" x="706" y="357" flags="0x1004"/>
    </TTGlyph>
    <TTGlyph name="Lslash" xMin="-5" yMin="0" xMax="1071" yMax="1508">
      <contour>
        <pt x="-5" y="737" on="1"/>
        <pt x="685" y="921" on="1"/>
        <pt x="714" y="807" on="1"/>
        <pt x="29" y="622" on="1"/>
      </contour>
      <contour>
        <pt x="562" y="1508" on="1"/>
        <pt x="562" y="1423" on="1"/>
        <pt x="412" y="1400" on="1"/>
        <pt x="412" y="120" on="1"/>
        <pt x="930" y="120" on="1"/>
        <pt x="989" y="344" on="1"/>
        <pt x="1071" y="344" on="1"/>
        <pt x="1062" y="0" on="1"/>
        <pt x="72" y="0" on="1"/>
        <pt x="72" y="85" on="1"/>
        <pt x="224" y="108" on="1"/>
        <pt x="224" y="1400" on="1"/>
        <pt x="72" y="1423" on="1"/>
        <pt x="72" y="1508" on="1"/>
      </contour>
    </TTGlyph>
    <TTGlyph name="M" xMin="87" yMin="0" xMax="1964" yMax="1508">
      <contour>
        <pt x="405" y="1258" on="1"/>
        <pt x="405" y="1258" on="0"/>
        <pt x="363" y="108" on="1"/>
        <pt x="502" y="85" on="1"/>
        <pt x="502" y="0" on="1"/>
        <pt x="87" y="0" on="1"/>
        <pt x="87" y="85" on="1"/>
        <pt x="229" y="108" on="1"/>
        <pt x="301" y="1400" on="1"/>
        <pt x="160" y="1423" on="1"/>
        <pt x="160" y="1508" on="1"/>
        <pt x="502" y="1508" on="1"/>
        <pt x="1039" y="337" on="1"/>
        <pt x="1580" y="1508" on="1"/>
        <pt x="1893" y="1508" on="1"/>
        <pt x="1893" y="1423" on="1"/>
        <pt x="1743" y="1400" on="1"/>
        <pt x="1759" y="1074" on="0"/>
        <pt x="1795" y="428" on="0"/>
        <pt x="1810" y="108" on="1"/>
        <pt x="1964" y="85" on="1"/>
        <pt x="1964" y="0" on="1"/>
        <pt x="1475" y="0" on="1"/>
        <pt x="1475" y="85" on="1"/>
        <pt x="1625" y="108" on="1"/>
        <pt x="1580" y="1243" on="1"/>
        <pt x="998" y="0" on="1"/>
      </contour>
    </TTGlyph>
    <TTGlyph name="N" xMin="95" yMin="0" xMax="1608" yMax="1508">
      <contour>
        <pt x="365" y="1218" on="1"/>
        <pt x="365" y="108" on="1"/>
        <pt x="517" y="85" on="1"/>
        <pt x="517" y="0" on="1"/>
        <pt x="95" y="0" on="1"/>
        <pt x="95" y="85" on="1"/>
        <pt x="250" y="108" on="1"/>
        <pt x="250" y="1400" on="1"/>
        <pt x="95" y="1423" on="1"/>
        <pt x="95" y="1508" on="1"/>
        <pt x="371" y="1508" on="1"/>
        <pt x="1340" y="290" on="1"/>
        <pt x="1340" y="1400" on="1"/>
        <pt x="1189" y="1423" on="1"/>
        <pt x="1189" y="1508" on="1"/>
        <pt x="1608" y="1508" on="1"/>
        <pt x="1608" y="1423" on="1"/>
        <pt x="1457" y="1400" on="1"/>
        <pt x="1457" y="0" on="1"/>
        <pt x="1333" y="0" on="1"/>
      </contour>
    </TTGlyph>
    <TTGlyph name="Nacute" xMin="80" yMin="0" xMax="1593" yMax="2000">
      <component glyphName="N" x="-15" y="0" flags="0x1204"/>
      <component glyphName="acute.cap" x="548" y="0" flags="0x1004"/>
    </TTGlyph>
    <TTGlyph name="Ncaron" xMin="80" yMin="0" xMax="1593" yMax="2000">
      <component glyphName="N" x="-15" y="0" flags="0x1204"/>
      <component glyphName="caron.cap" x="550" y="0" flags="0x1004"/>
    </TTGlyph>
    <TTGlyph name="Ncommaaccent" xMin="80" yMin="-560" xMax="1593" yMax="1508">
      <component glyphName="N" x="-15" y="0" flags="0x1204"/>
      <component glyphName="commaaccent" x="528" y="0" flags="0x1004"/>
    </TTGlyph>
    <TTGlyph name="Ntilde" xMin="80" yMin="0" xMax="1593" yMax="1935">
      <component glyphName="N" x="-15" y="0" flags="0x1204"/>
      <component glyphName="tilde.cap" x="548" y="0" flags="0x1004"/>
    </TTGlyph>
    <TTGlyph name="O" xMin="77" yMin="-23" xMax="1587" yMax="1531">
      <contour>
        <pt x="178" y="295" on="0"/>
        <pt x="77" y="570" on="0"/>
        <pt x="77" y="851" on="0"/>
        <pt x="133" y="1067" on="0"/>
        <pt x="232" y="1245" on="0"/>
        <pt x="371" y="1385" on="0"/>
        <pt x="454" y="1433" on="1"/>
        <pt x="623" y="1531" on="0"/>
        <pt x="1009" y="1531" on="0"/>
        <pt x="1293" y="1418" on="0"/>
        <pt x="1390" y="1319" on="1"/>
        <pt x="1587" y="1118" on="0"/>
        <pt x="1587" y="791" on="1"/>
        <pt x="1587" y="427" on="0"/>
        <pt x="1366" y="197" on="1"/>
        <pt x="1264" y="91" on="0"/>
        <pt x="993" y="-23" on="0"/>
        <pt x="658" y="-23" on="0"/>
        <pt x="373" y="93" on="0"/>
      </contour>
      <contour>
        <pt x="349" y="1141" on="0"/>
        <pt x="270" y="915" on="0"/>
        <pt x="270" y="699" on="0"/>
        <pt x="302" y="527" on="0"/>
        <pt x="365" y="374" on="0"/>
        <pt x="460" y="244" on="0"/>
        <pt x="523" y="197" on="1"/>
        <pt x="657" y="97" on="0"/>
        <pt x="839" y="97" on="1"/>
        <pt x="1088" y="97" on="0"/>
        <pt x="1244" y="266" on="1"/>
        <pt x="1397" y="432" on="0"/>
        <pt x="1397" y="699" on="1"/>
        <pt x="1397" y="993" on="0"/>
        <pt x="1264" y="1188" on="1"/>
        <pt x="1112" y="1411" on="0"/>
        <pt x="820" y="1411" on="1"/>
        <pt x="579" y="1411" on="0"/>
        <pt x="422" y="1226" on="1"/>
      </contour>
    </TTGlyph>
    <TTGlyph name="OE" xMin="80" yMin="-23" xMax="2143" yMax="1531">
      <contour>
        <pt x="1764" y="723" on="1"/>
        <pt x="1429" y="723" on="1"/>
        <pt x="1429" y="120" on="1"/>
        <pt x="1995" y="120" on="1"/>
        <pt x="2069" y="297" on="1"/>
        <pt x="2143" y="297" on="1"/>
        <pt x="2111" y="0" on="1"/>
        <pt x="1429" y="0" on="1"/>
        <pt x="1211" y="0" on="0"/>
        <pt x="966" y="-16" on="0"/>
        <pt x="902" y="-20" on="0"/>
        <pt x="860" y="-23" on="0"/>
        <pt x="843" y="-23" on="1"/>
        <pt x="488" y="-23" on="0"/>
        <pt x="278" y="194" on="1"/>
        <pt x="80" y="400" on="0"/>
        <pt x="80" y="728" on="1"/>
        <pt x="80" y="1088" on="0"/>
        <pt x="304" y="1315" on="1"/>
        <pt x="517" y="1531" on="0"/>
        <pt x="827" y="1531" on="1"/>
        <pt x="870" y="1531" on="0"/>
        <pt x="960" y="1525" on="1"/>
        <pt x="1213" y="1508" on="0"/>
        <pt x="1429" y="1508" on="1"/>
        <pt x="2036" y="1508" on="1"/>
        <pt x="2060" y="1211" on="1"/>
        <pt x="1973" y="1211" on="1"/>
        <pt x="1919" y="1387" on="1"/>
        <pt x="1429" y="1387" on="1"/>
        <pt x="1429" y="843" on="1"/>
        <pt x="1764" y="843" on="1"/>
        <pt x="1794" y="949" on="1"/>
        <pt x="1865" y="949" on="1"/>
        <pt x="1865" y="618" on="1"/>
        <pt x="1794" y="618" on="1"/>
      </contour>
      <contour>
        <pt x="353" y="1141" on="0"/>
        <pt x="274" y="915" on="0"/>
        <pt x="274" y="699" on="0"/>
        <pt x="305" y="527" on="0"/>
        <pt x="368" y="374" on="0"/>
        <pt x="463" y="244" on="0"/>
        <pt x="526" y="197" on="1"/>
        <pt x="660" y="97" on="0"/>
        <pt x="841" y="97" on="1"/>
        <pt x="1099" y="97" on="0"/>
        <pt x="1174" y="158" on="1"/>
        <pt x="1216" y="192" on="0"/>
        <pt x="1241" y="310" on="0"/>
        <pt x="1241" y="402" on="1"/>
        <pt x="1241" y="1067" on="1"/>
        <pt x="1241" y="1176" on="0"/>
        <pt x="1206" y="1310" on="0"/>
        <pt x="1113" y="1385" on="0"/>
        <pt x="950" y="1411" on="0"/>
        <pt x="699" y="1411" on="0"/>
        <pt x="497" y="1311" on="0"/>
      </contour>
    </TTGlyph>
    <TTGlyph name="Oacute" xMin="77" yMin="-23" xMax="1587" yMax="2000">
      <component glyphName="O" x="0" y="0" flags="0x1204"/>
      <component glyphName="acute.cap" x="548" y="0" flags="0x1004"/>
    </TTGlyph>
    <TTGlyph name="Obreve" xMin="77" yMin="-23" xMax="1587" yMax="1999">
      <component glyphName="O" x="0" y="0" flags="0x1204"/>
      <component glyphName="breve.cap" x="548" y="0" flags="0x1004"/>
    </TTGlyph>
    <TTGlyph name="Ocircumflex" xMin="77" yMin="-23" xMax="1587" yMax="2000">
      <component glyphName="O" x="0" y="0" flags="0x1204"/>
      <component glyphName="circumflex.cap" x="549" y="0" flags="0x1004"/>
    </TTGlyph>
    <TTGlyph name="Odieresis" xMin="77" yMin="-23" xMax="1587" yMax="2000">
      <component glyphName="O" x="0" y="0" flags="0x1204"/>
      <component glyphName="dieresis.cap" x="549" y="0" flags="0x1004"/>
    </TTGlyph>
    <TTGlyph name="Ograve" xMin="77" yMin="-23" xMax="1587" yMax="1999">
      <component glyphName="O" x="0" y="0" flags="0x1204"/>
      <component glyphName="grave.cap" x="551" y="0" flags="0x1004"/>
    </TTGlyph>
    <TTGlyph name="Ohungarumlaut" xMin="77" yMin="-23" xMax="1587" yMax="2000">
      <component glyphName="O" x="0" y="0" flags="0x1204"/>
      <component glyphName="hungarumlaut.cap" x="548" y="0" flags="0x1004"/>
    </TTGlyph>
    <TTGlyph name="Omacron" xMin="77" yMin="-23" xMax="1587" yMax="1896">
      <component glyphName="O" x="0" y="0" flags="0x1204"/>
      <component glyphName="macron.cap" x="548" y="0" flags="0x1004"/>
    </TTGlyph>
    <TTGlyph name="Omega" xMin="122" yMin="0" xMax="1755" yMax="1553">
      <contour>
        <pt x="965" y="1553" on="1"/>
        <pt x="1082" y="1553" on="0"/>
        <pt x="1335" y="1461" on="0"/>
        <pt x="1427" y="1372" on="1"/>
        <pt x="1624" y="1183" on="0"/>
        <pt x="1618" y="857" on="1"/>
        <pt x="1615" y="649" on="0"/>
        <pt x="1466" y="414" on="1"/>
        <pt x="1380" y="279" on="0"/>
        <pt x="1275" y="188" on="1"/>
        <pt x="1225" y="144" on="0"/>
        <pt x="1165" y="114" on="0"/>
        <pt x="1134" y="80" on="0"/>
        <pt x="1118" y="60" on="1"/>
        <pt x="1087" y="24" on="1"/>
        <pt x="1072" y="7" on="0"/>
        <pt x="1059" y="0" on="1"/>
        <pt x="1059" y="126" on="1"/>
        <pt x="1214" y="219" on="0"/>
        <pt x="1307" y="412" on="1"/>
        <pt x="1401" y="607" on="0"/>
        <pt x="1401" y="850" on="1"/>
        <pt x="1401" y="1147" on="0"/>
        <pt x="1260" y="1318" on="1"/>
        <pt x="1133" y="1471" on="0"/>
        <pt x="938" y="1471" on="1"/>
        <pt x="594" y="1471" on="0"/>
        <pt x="492" y="1128" on="1"/>
        <pt x="457" y="1010" on="0"/>
        <pt x="457" y="768" on="0"/>
        <pt x="489" y="609" on="0"/>
        <pt x="544" y="463" on="0"/>
        <pt x="617" y="334" on="0"/>
        <pt x="658" y="281" on="1"/>
        <pt x="741" y="172" on="0"/>
        <pt x="824" y="126" on="1"/>
        <pt x="824" y="0" on="1"/>
        <pt x="672" y="121" on="1"/>
        <pt x="580" y="160" on="0"/>
        <pt x="480" y="272" on="1"/>
        <pt x="314" y="456" on="0"/>
        <pt x="259" y="692" on="1"/>
        <pt x="215" y="881" on="0"/>
        <pt x="272" y="1084" on="1"/>
        <pt x="353" y="1368" on="0"/>
        <pt x="604" y="1484" on="1"/>
        <pt x="751" y="1553" on="0"/>
      </contour>
      <contour>
        <pt x="229" y="152" on="1"/>
        <pt x="645" y="152" on="1"/>
        <pt x="824" y="0" on="1"/>
        <pt x="122" y="0" on="1"/>
      </contour>
      <contour>
        <pt x="1173" y="152" on="1"/>
        <pt x="1618" y="152" on="1"/>
        <pt x="1739" y="0" on="1"/>
        <pt x="1059" y="0" on="1"/>
      </contour>
      <contour>
        <pt x="1656" y="362" on="1"/>
        <pt x="1755" y="362" on="1"/>
        <pt x="1739" y="0" on="1"/>
        <pt x="1550" y="39" on="1"/>
      </contour>
      <contour>
        <pt x="279" y="42" on="1"/>
        <pt x="122" y="0" on="1"/>
        <pt x="122" y="362" on="1"/>
        <pt x="221" y="362" on="1"/>
      </contour>
    </TTGlyph>
    <TTGlyph name="Oslash" xMin="89" yMin="-85" xMax="1622" yMax="1580">
      <contour>
        <pt x="440" y="80" on="1"/>
        <pt x="440" y="83" on="1"/>
        <pt x="321" y="-85" on="1"/>
        <pt x="244" y="-31" on="1"/>
        <pt x="357" y="135" on="1"/>
        <pt x="226" y="238" on="0"/>
        <pt x="89" y="545" on="0"/>
        <pt x="89" y="851" on="0"/>
        <pt x="146" y="1067" on="0"/>
        <pt x="248" y="1245" on="0"/>
        <pt x="389" y="1385" on="0"/>
        <pt x="474" y="1433" on="1"/>
        <pt x="646" y="1531" on="0"/>
        <pt x="1078" y="1531" on="0"/>
        <pt x="1261" y="1434" on="1"/>
        <pt x="1261" y="1432" on="1"/>
        <pt x="1361" y="1580" on="1"/>
        <pt x="1440" y="1526" on="1"/>
        <pt x="1342" y="1382" on="1"/>
        <pt x="1547" y="1239" on="0"/>
        <pt x="1604" y="970" on="1"/>
        <pt x="1622" y="884" on="0"/>
        <pt x="1622" y="666" on="0"/>
        <pt x="1566" y="449" on="0"/>
        <pt x="1465" y="268" on="0"/>
        <pt x="1325" y="126" on="0"/>
        <pt x="1240" y="77" on="1"/>
        <pt x="1068" y="-23" on="0"/>
        <pt x="619" y="-23" on="0"/>
      </contour>
      <contour>
        <pt x="532" y="214" on="1"/>
        <pt x="666" y="108" on="0"/>
        <pt x="861" y="108" on="1"/>
        <pt x="1111" y="108" on="0"/>
        <pt x="1268" y="271" on="1"/>
        <pt x="1429" y="437" on="0"/>
        <pt x="1429" y="699" on="1"/>
        <pt x="1429" y="943" on="0"/>
        <pt x="1325" y="1128" on="1"/>
        <pt x="1290" y="1191" on="0"/>
        <pt x="1243" y="1241" on="1"/>
      </contour>
      <contour>
        <pt x="1170" y="1303" on="1"/>
        <pt x="1032" y="1400" on="0"/>
        <pt x="842" y="1400" on="1"/>
        <pt x="602" y="1400" on="0"/>
        <pt x="442" y="1221" on="1"/>
        <pt x="285" y="1045" on="0"/>
        <pt x="285" y="789" on="1"/>
        <pt x="285" y="564" on="0"/>
        <pt x="384" y="386" on="1"/>
        <pt x="416" y="328" on="0"/>
        <pt x="458" y="281" on="1"/>
      </contour>
    </TTGlyph>
    <TTGlyph name="Otilde" xMin="77" yMin="-23" xMax="1587" yMax="1935">
      <component glyphName="O" x="0" y="0" flags="0x1204"/>
      <component glyphName="tilde.cap" x="548" y="0" flags="0x1004"/>
    </TTGlyph>
    <TTGlyph name="P" xMin="72" yMin="0" xMax="1153" yMax="1508">
      <contour>
        <pt x="72" y="0" on="1"/>
        <pt x="72" y="85" on="1"/>
        <pt x="224" y="108" on="1"/>
        <pt x="224" y="1400" on="1"/>
        <pt x="72" y="1423" on="1"/>
        <pt x="72" y="1508" on="1"/>
        <pt x="565" y="1508" on="1"/>
        <pt x="991" y="1508" on="0"/>
        <pt x="1109" y="1278" on="1"/>
        <pt x="1153" y="1193" on="0"/>
        <pt x="1153" y="954" on="0"/>
        <pt x="1074" y="770" on="0"/>
        <pt x="996" y="706" on="1"/>
        <pt x="835" y="572" on="0"/>
        <pt x="532" y="572" on="1"/>
        <pt x="412" y="572" on="1"/>
        <pt x="412" y="108" on="1"/>
        <pt x="609" y="85" on="1"/>
        <pt x="609" y="0" on="1"/>
      </contour>
      <contour>
        <pt x="412" y="1387" on="1"/>
        <pt x="412" y="678" on="1"/>
        <pt x="560" y="678" on="1"/>
        <pt x="759" y="678" on="0"/>
        <pt x="864" y="784" on="1"/>
        <pt x="957" y="880" on="0"/>
        <pt x="957" y="1043" on="1"/>
        <pt x="957" y="1211" on="0"/>
        <pt x="868" y="1294" on="1"/>
        <pt x="769" y="1387" on="0"/>
        <pt x="541" y="1387" on="1"/>
      </contour>
    </TTGlyph>
    <TTGlyph name="Q" xMin="77" yMin="-362" xMax="2064" yMax="1531">
      <contour>
        <pt x="1835" y="-185" on="0"/>
        <pt x="1913" y="-185" on="0"/>
        <pt x="2010" y="-119" on="1"/>
        <pt x="2064" y="-173" on="1"/>
        <pt x="1868" y="-362" on="0"/>
        <pt x="1783" y="-362" on="1"/>
        <pt x="1713" y="-362" on="0"/>
        <pt x="1520" y="-263" on="1"/>
        <pt x="1279" y="-135" on="1"/>
        <pt x="1064" y="-23" on="0"/>
        <pt x="891" y="38" on="1"/>
        <pt x="1115" y="59" on="1"/>
        <pt x="1280" y="34" on="0"/>
        <pt x="1461" y="-49" on="1"/>
        <pt x="1540" y="-86" on="1"/>
        <pt x="1694" y="-157" on="0"/>
      </contour>
      <contour>
        <pt x="178" y="295" on="0"/>
        <pt x="77" y="570" on="0"/>
        <pt x="77" y="851" on="0"/>
        <pt x="133" y="1067" on="0"/>
        <pt x="232" y="1245" on="0"/>
        <pt x="371" y="1385" on="0"/>
        <pt x="454" y="1433" on="1"/>
        <pt x="623" y="1531" on="0"/>
        <pt x="1009" y="1531" on="0"/>
        <pt x="1293" y="1418" on="0"/>
        <pt x="1390" y="1319" on="1"/>
        <pt x="1587" y="1118" on="0"/>
        <pt x="1587" y="791" on="1"/>
        <pt x="1587" y="427" on="0"/>
        <pt x="1366" y="197" on="1"/>
        <pt x="1264" y="91" on="0"/>
        <pt x="993" y="-23" on="0"/>
        <pt x="658" y="-23" on="0"/>
        <pt x="373" y="93" on="0"/>
      </contour>
      <contour>
        <pt x="349" y="1141" on="0"/>
        <pt x="270" y="915" on="0"/>
        <pt x="270" y="699" on="0"/>
        <pt x="302" y="527" on="0"/>
        <pt x="365" y="374" on="0"/>
        <pt x="460" y="244" on="0"/>
        <pt x="523" y="197" on="1"/>
        <pt x="657" y="97" on="0"/>
        <pt x="839" y="97" on="1"/>
        <pt x="1088" y="97" on="0"/>
        <pt x="1244" y="266" on="1"/>
        <pt x="1397" y="432" on="0"/>
        <pt x="1397" y="699" on="1"/>
        <pt x="1397" y="993" on="0"/>
        <pt x="1264" y="1188" on="1"/>
        <pt x="1112" y="1411" on="0"/>
        <pt x="820" y="1411" on="1"/>
        <pt x="579" y="1411" on="0"/>
        <pt x="422" y="1226" on="1"/>
      </contour>
    </TTGlyph>
    <TTGlyph name="R" xMin="72" yMin="0" xMax="1389" yMax="1508">
      <contour>
        <pt x="1136" y="1279" on="1"/>
        <pt x="1163" y="1210" on="0"/>
        <pt x="1163" y="1034" on="0"/>
        <pt x="1108" y="890" on="0"/>
        <pt x="1056" y="838" on="1"/>
        <pt x="957" y="739" on="0"/>
        <pt x="765" y="699" on="1"/>
        <pt x="783" y="732" on="1"/>
        <pt x="1178" y="132" on="1"/>
        <pt x="1248" y="101" on="1"/>
        <pt x="1389" y="85" on="1"/>
        <pt x="1389" y="0" on="1"/>
        <pt x="1046" y="0" on="1"/>
        <pt x="596" y="719" on="1"/>
        <pt x="680" y="683" on="1"/>
        <pt x="412" y="683" on="1"/>
        <pt x="412" y="108" on="1"/>
        <pt x="562" y="85" on="1"/>
        <pt x="562" y="0" on="1"/>
        <pt x="72" y="0" on="1"/>
        <pt x="72" y="85" on="1"/>
        <pt x="227" y="108" on="1"/>
        <pt x="227" y="1400" on="1"/>
        <pt x="72" y="1423" on="1"/>
        <pt x="72" y="1508" on="1"/>
        <pt x="565" y="1508" on="1"/>
        <pt x="1044" y="1508" on="0"/>
      </contour>
      <contour>
        <pt x="412" y="1387" on="1"/>
        <pt x="412" y="791" on="1"/>
        <pt x="560" y="791" on="1"/>
        <pt x="884" y="791" on="0"/>
        <pt x="952" y="980" on="1"/>
        <pt x="973" y="1037" on="0"/>
        <pt x="973" y="1170" on="0"/>
        <pt x="935" y="1276" on="0"/>
        <pt x="890" y="1312" on="1"/>
        <pt x="797" y="1387" on="0"/>
        <pt x="575" y="1387" on="1"/>
      </contour>
    </TTGlyph>
    <TTGlyph name="Racute" xMin="72" yMin="0" xMax="1389" yMax="2000">
      <component glyphName="R" x="0" y="0" flags="0x1204"/>
      <component glyphName="acute.cap" x="376" y="0" flags="0x1004"/>
    </TTGlyph>
    <TTGlyph name="Rcaron" xMin="72" yMin="0" xMax="1389" yMax="2000">
      <component glyphName="R" x="0" y="0" flags="0x1204"/>
      <component glyphName="caron.cap" x="378" y="0" flags="0x1004"/>
    </TTGlyph>
    <TTGlyph name="Rcommaaccent" xMin="72" yMin="-560" xMax="1389" yMax="1508">
      <component glyphName="R" x="0" y="0" flags="0x1204"/>
      <component glyphName="commaaccent" x="403" y="0" flags="0x1004"/>
    </TTGlyph>
    <TTGlyph name="S" xMin="108" yMin="-78" xMax="1114" yMax="1531">
      <contour>
        <pt x="590" y="96" on="1"/>
        <pt x="664" y="96" on="0"/>
        <pt x="785" y="125" on="0"/>
        <pt x="829" y="156" on="1"/>
        <pt x="923" y="221" on="0"/>
        <pt x="923" y="346" on="1"/>
        <pt x="923" y="452" on="0"/>
        <pt x="854" y="520" on="1"/>
        <pt x="781" y="590" on="0"/>
        <pt x="454" y="733" on="0"/>
        <pt x="283" y="846" on="0"/>
        <pt x="234" y="904" on="1"/>
        <pt x="145" y="1006" on="0"/>
        <pt x="145" y="1151" on="1"/>
        <pt x="145" y="1319" on="0"/>
        <pt x="290" y="1428" on="1"/>
        <pt x="425" y="1531" on="0"/>
        <pt x="617" y="1531" on="1"/>
        <pt x="768" y="1531" on="0"/>
        <pt x="919" y="1476" on="1"/>
        <pt x="982" y="1451" on="0"/>
        <pt x="1033" y="1421" on="1"/>
        <pt x="998" y="1154" on="1"/>
        <pt x="914" y="1154" on="1"/>
        <pt x="914" y="1292" on="0"/>
        <pt x="764" y="1417" on="0"/>
        <pt x="622" y="1417" on="1"/>
        <pt x="426" y="1417" on="0"/>
        <pt x="354" y="1289" on="1"/>
        <pt x="331" y="1247" on="0"/>
        <pt x="331" y="1143" on="0"/>
        <pt x="361" y="1060" on="0"/>
        <pt x="404" y="1020" on="1"/>
        <pt x="488" y="939" on="0"/>
        <pt x="720" y="842" on="1"/>
        <pt x="1044" y="704" on="0"/>
        <pt x="1098" y="516" on="1"/>
        <pt x="1114" y="457" on="0"/>
        <pt x="1114" y="324" on="0"/>
        <pt x="1069" y="205" on="0"/>
        <pt x="991" y="112" on="0"/>
        <pt x="888" y="44" on="0"/>
        <pt x="830" y="22" on="1"/>
        <pt x="573" y="-78" on="0"/>
        <pt x="290" y="38" on="1"/>
        <pt x="187" y="81" on="0"/>
        <pt x="108" y="143" on="1"/>
        <pt x="150" y="430" on="1"/>
        <pt x="235" y="430" on="1"/>
        <pt x="235" y="229" on="0"/>
        <pt x="362" y="150" on="1"/>
        <pt x="449" y="96" on="0"/>
      </contour>
    </TTGlyph>
    <TTGlyph name="Sacute" xMin="108" yMin="-78" xMax="1114" yMax="2000">
      <component glyphName="S" x="0" y="0" flags="0x1204"/>
      <component glyphName="acute.cap" x="316" y="0" flags="0x1004"/>
    </TTGlyph>
    <TTGlyph name="Scaron" xMin="108" yMin="-78" xMax="1114" yMax="2000">
      <component glyphName="S" x="0" y="0" flags="0x1204"/>
      <component glyphName="caron.cap" x="318" y="0" flags="0x1004"/>
    </TTGlyph>
    <TTGlyph name="Scedilla" xMin="108" yMin="-528" xMax="1114" yMax="1531">
      <component glyphName="S" x="0" y="0" flags="0x1204"/>
      <component glyphName="cedilla" x="286" y="0" flags="0x1004"/>
    </TTGlyph>
    <TTGlyph name="Scircumflex" xMin="108" yMin="-78" xMax="1114" yMax="2000">
      <component glyphName="S" x="0" y="0" flags="0x1204"/>
      <component glyphName="circumflex.cap" x="317" y="0" flags="0x1004"/>
    </TTGlyph>
    <TTGlyph name="Scommaaccent" xMin="108" yMin="-560" xMax="1114" yMax="1531">
      <component glyphName="S" x="0" y="0" flags="0x1204"/>
      <component glyphName="commaaccent" x="296" y="0" flags="0x1004"/>
    </TTGlyph>
    <TTGlyph name="T" xMin="108" yMin="0" xMax="1430" yMax="1508">
      <contour>
        <pt x="1406" y="1508" on="1"/>
        <pt x="1430" y="1187" on="1"/>
        <pt x="1340" y="1187" on="1"/>
        <pt x="1289" y="1387" on="1"/>
        <pt x="862" y="1387" on="1"/>
        <pt x="862" y="108" on="1"/>
        <pt x="1082" y="85" on="1"/>
        <pt x="1082" y="0" on="1"/>
        <pt x="457" y="0" on="1"/>
        <pt x="457" y="85" on="1"/>
        <pt x="675" y="108" on="1"/>
        <pt x="675" y="1387" on="1"/>
        <pt x="250" y="1387" on="1"/>
        <pt x="196" y="1187" on="1"/>
        <pt x="108" y="1187" on="1"/>
        <pt x="132" y="1508" on="1"/>
      </contour>
    </TTGlyph>
    <TTGlyph name="Tbar" xMin="109" yMin="0" xMax="1431" yMax="1508">
      <contour>
        <pt x="381" y="828" on="1"/>
        <pt x="1151" y="830" on="1"/>
        <pt x="1123" y="702" on="1"/>
        <pt x="354" y="702" on="1"/>
      </contour>
      <contour>
        <pt x="1407" y="1508" on="1"/>
        <pt x="1431" y="1187" on="1"/>
        <pt x="1341" y="1187" on="1"/>
        <pt x="1290" y="1387" on="1"/>
        <pt x="863" y="1387" on="1"/>
        <pt x="863" y="108" on="1"/>
        <pt x="1083" y="85" on="1"/>
        <pt x="1083" y="0" on="1"/>
        <pt x="458" y="0" on="1"/>
        <pt x="458" y="85" on="1"/>
        <pt x="676" y="108" on="1"/>
        <pt x="676" y="1387" on="1"/>
        <pt x="251" y="1387" on="1"/>
        <pt x="197" y="1187" on="1"/>
        <pt x="109" y="1187" on="1"/>
        <pt x="133" y="1508" on="1"/>
      </contour>
    </TTGlyph>
    <TTGlyph name="Tcaron" xMin="108" yMin="0" xMax="1430" yMax="2000">
      <component glyphName="T" x="0" y="0" flags="0x1204"/>
      <component glyphName="caron.cap" x="486" y="0" flags="0x1004"/>
    </TTGlyph>
    <TTGlyph name="Tcommaaccent" xMin="108" yMin="-560" xMax="1430" yMax="1508">
      <component glyphName="T" x="0" y="0" flags="0x1204"/>
      <component glyphName="commaaccent" x="464" y="0" flags="0x1004"/>
    </TTGlyph>
    <TTGlyph name="Thorn" xMin="72" yMin="0" xMax="1196" yMax="1508">
      <contour>
        <pt x="665" y="490" on="1"/>
        <pt x="824" y="490" on="0"/>
        <pt x="912" y="580" on="1"/>
        <pt x="1000" y="669" on="0"/>
        <pt x="1000" y="820" on="1"/>
        <pt x="1000" y="991" on="0"/>
        <pt x="922" y="1060" on="1"/>
        <pt x="837" y="1135" on="0"/>
        <pt x="622" y="1135" on="1"/>
        <pt x="389" y="1135" on="1"/>
        <pt x="389" y="490" on="1"/>
      </contour>
      <contour>
        <pt x="224" y="1400" on="1"/>
        <pt x="72" y="1423" on="1"/>
        <pt x="72" y="1508" on="1"/>
        <pt x="539" y="1508" on="1"/>
        <pt x="539" y="1423" on="1"/>
        <pt x="389" y="1400" on="1"/>
        <pt x="389" y="1256" on="1"/>
        <pt x="645" y="1256" on="1"/>
        <pt x="1137" y="1256" on="0"/>
        <pt x="1188" y="952" on="1"/>
        <pt x="1196" y="901" on="0"/>
        <pt x="1196" y="732" on="0"/>
        <pt x="1123" y="555" on="0"/>
        <pt x="1052" y="495" on="1"/>
        <pt x="908" y="373" on="0"/>
        <pt x="636" y="373" on="1"/>
        <pt x="389" y="373" on="1"/>
        <pt x="389" y="108" on="1"/>
        <pt x="562" y="85" on="1"/>
        <pt x="562" y="0" on="1"/>
        <pt x="72" y="0" on="1"/>
        <pt x="72" y="85" on="1"/>
        <pt x="224" y="108" on="1"/>
      </contour>
    </TTGlyph>
    <TTGlyph name="U" xMin="35" yMin="-23" xMax="1501" yMax="1508">
      <contour>
        <pt x="789" y="-23" on="1"/>
        <pt x="190" y="-23" on="0"/>
        <pt x="190" y="541" on="1"/>
        <pt x="190" y="1400" on="1"/>
        <pt x="35" y="1423" on="1"/>
        <pt x="35" y="1508" on="1"/>
        <pt x="535" y="1508" on="1"/>
        <pt x="535" y="1423" on="1"/>
        <pt x="375" y="1400" on="1"/>
        <pt x="375" y="571" on="1"/>
        <pt x="375" y="202" on="0"/>
        <pt x="610" y="122" on="1"/>
        <pt x="685" y="97" on="0"/>
        <pt x="898" y="97" on="0"/>
        <pt x="1068" y="151" on="0"/>
        <pt x="1124" y="209" on="1"/>
        <pt x="1235" y="324" on="0"/>
        <pt x="1235" y="571" on="1"/>
        <pt x="1235" y="1400" on="1"/>
        <pt x="1082" y="1423" on="1"/>
        <pt x="1082" y="1508" on="1"/>
        <pt x="1501" y="1508" on="1"/>
        <pt x="1501" y="1423" on="1"/>
        <pt x="1350" y="1400" on="1"/>
        <pt x="1350" y="541" on="1"/>
        <pt x="1350" y="271" on="0"/>
        <pt x="1060" y="-23" on="0"/>
      </contour>
    </TTGlyph>
    <TTGlyph name="Uacute" xMin="35" yMin="-23" xMax="1501" yMax="2000">
      <component glyphName="U" x="0" y="0" flags="0x1204"/>
      <component glyphName="acute.cap" x="484" y="0" flags="0x1004"/>
    </TTGlyph>
    <TTGlyph name="Ubreve" xMin="35" yMin="-23" xMax="1501" yMax="1999">
      <component glyphName="U" x="0" y="0" flags="0x1204"/>
      <component glyphName="breve.cap" x="484" y="0" flags="0x1004"/>
    </TTGlyph>
    <TTGlyph name="Ucircumflex" xMin="35" yMin="-23" xMax="1501" yMax="2000">
      <component glyphName="U" x="0" y="0" flags="0x1204"/>
      <component glyphName="circumflex.cap" x="485" y="0" flags="0x1004"/>
    </TTGlyph>
    <TTGlyph name="Udieresis" xMin="35" yMin="-23" xMax="1501" yMax="2000">
      <component glyphName="U" x="0" y="0" flags="0x1204"/>
      <component glyphName="dieresis.cap" x="485" y="0" flags="0x1004"/>
    </TTGlyph>
    <TTGlyph name="Ugrave" xMin="35" yMin="-23" xMax="1501" yMax="1999">
      <component glyphName="U" x="0" y="0" flags="0x1204"/>
      <component glyphName="grave.cap" x="487" y="0" flags="0x1004"/>
    </TTGlyph>
    <TTGlyph name="Uhungarumlaut" xMin="35" yMin="-23" xMax="1501" yMax="2000">
      <component glyphName="U" x="0" y="0" flags="0x1204"/>
      <component glyphName="hungarumlaut.cap" x="484" y="0" flags="0x1004"/>
    </TTGlyph>
    <TTGlyph name="Umacron" xMin="35" yMin="-23" xMax="1501" yMax="1896">
      <component glyphName="U" x="0" y="0" flags="0x1204"/>
      <component glyphName="macron.cap" x="484" y="0" flags="0x1004"/>
    </TTGlyph>
    <TTGlyph name="Uogonek" xMin="35" yMin="-436" xMax="1501" yMax="1508">
      <contour>
        <pt x="1093" y="-396" on="1"/>
        <pt x="1024" y="-436" on="0"/>
        <pt x="928" y="-436" on="1"/>
        <pt x="763" y="-436" on="0"/>
        <pt x="704" y="-338" on="1"/>
        <pt x="686" y="-308" on="0"/>
        <pt x="686" y="-219" on="0"/>
        <pt x="735" y="-129" on="0"/>
        <pt x="774" y="-90" on="1"/>
        <pt x="859" y="-7" on="0"/>
        <pt x="958" y="18" on="1"/>
        <pt x="1017" y="18" on="0"/>
        <pt x="1071" y="45" on="1"/>
        <pt x="1111" y="46" on="1"/>
        <pt x="998" y="-4" on="0"/>
        <pt x="922" y="-96" on="1"/>
        <pt x="856" y="-176" on="0"/>
        <pt x="856" y="-301" on="0"/>
        <pt x="917" y="-301" on="1"/>
        <pt x="950" y="-301" on="0"/>
        <pt x="973" y="-286" on="1"/>
        <pt x="1013" y="-259" on="0"/>
        <pt x="1013" y="-239" on="1"/>
        <pt x="1054" y="-239" on="1"/>
      </contour>
      <contour>
        <pt x="789" y="-23" on="1"/>
        <pt x="190" y="-23" on="0"/>
        <pt x="190" y="541" on="1"/>
        <pt x="190" y="1400" on="1"/>
        <pt x="35" y="1423" on="1"/>
        <pt x="35" y="1508" on="1"/>
        <pt x="535" y="1508" on="1"/>
        <pt x="535" y="1423" on="1"/>
        <pt x="375" y="1400" on="1"/>
        <pt x="375" y="571" on="1"/>
        <pt x="375" y="202" on="0"/>
        <pt x="610" y="122" on="1"/>
        <pt x="685" y="97" on="0"/>
        <pt x="898" y="97" on="0"/>
        <pt x="1068" y="151" on="0"/>
        <pt x="1124" y="209" on="1"/>
        <pt x="1235" y="324" on="0"/>
        <pt x="1235" y="571" on="1"/>
        <pt x="1235" y="1400" on="1"/>
        <pt x="1082" y="1423" on="1"/>
        <pt x="1082" y="1508" on="1"/>
        <pt x="1501" y="1508" on="1"/>
        <pt x="1501" y="1423" on="1"/>
        <pt x="1350" y="1400" on="1"/>
        <pt x="1350" y="541" on="1"/>
        <pt x="1350" y="271" on="0"/>
        <pt x="1060" y="-23" on="0"/>
      </contour>
    </TTGlyph>
    <TTGlyph name="Uring" xMin="35" yMin="-23" xMax="1501" yMax="2000">
      <component glyphName="U" x="0" y="0" flags="0x1204"/>
      <component glyphName="ring.cap" x="486" y="0" flags="0x1004"/>
    </TTGlyph>
    <TTGlyph name="Utilde" xMin="35" yMin="-23" xMax="1501" yMax="1935">
      <component glyphName="U" x="0" y="0" flags="0x1204"/>
      <component glyphName="tilde.cap" x="484" y="0" flags="0x1004"/>
    </TTGlyph>
    <TTGlyph name="V" xMin="-53" yMin="0" xMax="1419" yMax="1508">
      <contour>
        <pt x="716" y="247" on="1"/>
        <pt x="1174" y="1400" on="1"/>
        <pt x="1025" y="1423" on="1"/>
        <pt x="1025" y="1508" on="1"/>
        <pt x="1419" y="1508" on="1"/>
        <pt x="1419" y="1423" on="1"/>
        <pt x="1306" y="1404" on="1"/>
        <pt x="749" y="0" on="1"/>
        <pt x="641" y="0" on="1"/>
        <pt x="66" y="1400" on="1"/>
        <pt x="-53" y="1423" on="1"/>
        <pt x="-53" y="1508" on="1"/>
        <pt x="410" y="1508" on="1"/>
        <pt x="410" y="1423" on="1"/>
        <pt x="256" y="1400" on="1"/>
      </contour>
    </TTGlyph>
    <TTGlyph name="W" xMin="7" yMin="0" xMax="2035" yMax="1508">
      <contour>
        <pt x="757" y="240" on="1"/>
        <pt x="1014" y="1076" on="1"/>
        <pt x="1004" y="943" on="1"/>
        <pt x="830" y="1400" on="1"/>
        <pt x="705" y="1423" on="1"/>
        <pt x="705" y="1508" on="1"/>
        <pt x="1173" y="1508" on="1"/>
        <pt x="1174" y="1423" on="1"/>
        <pt x="1028" y="1400" on="1"/>
        <pt x="1417" y="247" on="1"/>
        <pt x="1470" y="389" on="0"/>
        <pt x="1516" y="534" on="1"/>
        <pt x="1696" y="1114" on="1"/>
        <pt x="1742" y="1258" on="0"/>
        <pt x="1795" y="1400" on="1"/>
        <pt x="1651" y="1423" on="1"/>
        <pt x="1651" y="1508" on="1"/>
        <pt x="2035" y="1508" on="1"/>
        <pt x="2035" y="1423" on="1"/>
        <pt x="1924" y="1404" on="1"/>
        <pt x="1440" y="0" on="1"/>
        <pt x="1332" y="0" on="1"/>
        <pt x="1016" y="908" on="1"/>
        <pt x="1065" y="897" on="1"/>
        <pt x="780" y="0" on="1"/>
        <pt x="672" y="0" on="1"/>
        <pt x="121" y="1400" on="1"/>
        <pt x="7" y="1423" on="1"/>
        <pt x="7" y="1508" on="1"/>
        <pt x="445" y="1508" on="1"/>
        <pt x="452" y="1423" on="1"/>
        <pt x="319" y="1400" on="1"/>
      </contour>
    </TTGlyph>
    <TTGlyph name="Wacute" xMin="7" yMin="0" xMax="2035" yMax="2000">
      <component glyphName="W" x="0" y="0" flags="0x1204"/>
      <component glyphName="acute.cap" x="740" y="0" flags="0x1004"/>
    </TTGlyph>
    <TTGlyph name="Wcircumflex" xMin="7" yMin="0" xMax="2035" yMax="2000">
      <component glyphName="W" x="0" y="0" flags="0x1204"/>
      <component glyphName="circumflex.cap" x="741" y="0" flags="0x1004"/>
    </TTGlyph>
    <TTGlyph name="Wdieresis" xMin="7" yMin="0" xMax="2035" yMax="2000">
      <component glyphName="W" x="0" y="0" flags="0x1204"/>
      <component glyphName="dieresis.cap" x="741" y="0" flags="0x1004"/>
    </TTGlyph>
    <TTGlyph name="Wgrave" xMin="7" yMin="0" xMax="2035" yMax="1999">
      <component glyphName="W" x="0" y="0" flags="0x1204"/>
      <component glyphName="grave.cap" x="743" y="0" flags="0x1004"/>
    </TTGlyph>
    <TTGlyph name="X" xMin="25" yMin="0" xMax="1512" yMax="1508">
      <contour>
        <pt x="49" y="1508" on="1"/>
        <pt x="590" y="1508" on="1"/>
        <pt x="590" y="1423" on="1"/>
        <pt x="443" y="1400" on="1"/>
        <pt x="778" y="912" on="1"/>
        <pt x="1117" y="1400" on="1"/>
        <pt x="969" y="1423" on="1"/>
        <pt x="969" y="1508" on="1"/>
        <pt x="1433" y="1508" on="1"/>
        <pt x="1433" y="1423" on="1"/>
        <pt x="1263" y="1400" on="1"/>
        <pt x="848" y="813" on="1"/>
        <pt x="1352" y="108" on="1"/>
        <pt x="1512" y="85" on="1"/>
        <pt x="1512" y="0" on="1"/>
        <pt x="962" y="0" on="1"/>
        <pt x="962" y="85" on="1"/>
        <pt x="1126" y="108" on="1"/>
        <pt x="721" y="695" on="1"/>
        <pt x="337" y="108" on="1"/>
        <pt x="508" y="85" on="1"/>
        <pt x="508" y="0" on="1"/>
        <pt x="25" y="0" on="1"/>
        <pt x="25" y="85" on="1"/>
        <pt x="191" y="108" on="1"/>
        <pt x="651" y="793" on="1"/>
        <pt x="219" y="1400" on="1"/>
        <pt x="49" y="1423" on="1"/>
      </contour>
    </TTGlyph>
    <TTGlyph name="Y" xMin="9" yMin="0" xMax="1354" yMax="1508">
      <contour>
        <pt x="9" y="1508" on="1"/>
        <pt x="552" y="1508" on="1"/>
        <pt x="552" y="1423" on="1"/>
        <pt x="379" y="1400" on="1"/>
        <pt x="743" y="735" on="1"/>
        <pt x="1055" y="1400" on="1"/>
        <pt x="890" y="1423" on="1"/>
        <pt x="890" y="1508" on="1"/>
        <pt x="1354" y="1508" on="1"/>
        <pt x="1354" y="1423" on="1"/>
        <pt x="1200" y="1404" on="1"/>
        <pt x="806" y="613" on="1"/>
        <pt x="806" y="108" on="1"/>
        <pt x="980" y="85" on="1"/>
        <pt x="980" y="0" on="1"/>
        <pt x="449" y="0" on="1"/>
        <pt x="449" y="85" on="1"/>
        <pt x="620" y="108" on="1"/>
        <pt x="620" y="612" on="1"/>
        <pt x="146" y="1400" on="1"/>
        <pt x="9" y="1423" on="1"/>
      </contour>
    </TTGlyph>
    <TTGlyph name="Yacute" xMin="7" yMin="0" xMax="1352" yMax="2000">
      <component glyphName="Y" x="-2" y="0" flags="0x1204"/>
      <component glyphName="acute.cap" x="400" y="0" flags="0x1004"/>
    </TTGlyph>
    <TTGlyph name="Ycircumflex" xMin="7" yMin="0" xMax="1352" yMax="2000">
      <component glyphName="Y" x="-2" y="0" flags="0x1204"/>
      <component glyphName="circumflex.cap" x="401" y="0" flags="0x1004"/>
    </TTGlyph>
    <TTGlyph name="Ydieresis" xMin="7" yMin="0" xMax="1352" yMax="2000">
      <component glyphName="Y" x="-2" y="0" flags="0x1204"/>
      <component glyphName="dieresis.cap" x="401" y="0" flags="0x1004"/>
    </TTGlyph>
    <TTGlyph name="Ygrave" xMin="7" yMin="0" xMax="1352" yMax="1999">
      <component glyphName="Y" x="-2" y="0" flags="0x1204"/>
      <component glyphName="grave.cap" x="403" y="0" flags="0x1004"/>
    </TTGlyph>
    <TTGlyph name="Z" xMin="102" yMin="0" xMax="1298" yMax="1508">
      <contour>
        <pt x="1019" y="1382" on="1"/>
        <pt x="330" y="1382" on="1"/>
        <pt x="207" y="1191" on="1"/>
        <pt x="125" y="1191" on="1"/>
        <pt x="202" y="1508" on="1"/>
        <pt x="1241" y="1508" on="1"/>
        <pt x="1241" y="1383" on="1"/>
        <pt x="324" y="120" on="1"/>
        <pt x="1088" y="120" on="1"/>
        <pt x="1212" y="339" on="1"/>
        <pt x="1298" y="339" on="1"/>
        <pt x="1230" y="0" on="1"/>
        <pt x="102" y="0" on="1"/>
        <pt x="102" y="125" on="1"/>
      </contour>
    </TTGlyph>
    <TTGlyph name="Zacute" xMin="102" yMin="0" xMax="1298" yMax="2000">
      <component glyphName="Z" x="0" y="0" flags="0x1204"/>
      <component glyphName="acute.cap" x="399" y="0" flags="0x1004"/>
    </TTGlyph>
    <TTGlyph name="Zcaron" xMin="102" yMin="0" xMax="1298" yMax="2000">
      <component glyphName="Z" x="0" y="0" flags="0x1204"/>
      <component glyphName="caron.cap" x="401" y="0" flags="0x1004"/>
    </TTGlyph>
    <TTGlyph name="Zdotaccent" xMin="102" yMin="0" xMax="1298" yMax="2000">
      <component glyphName="Z" x="0" y="0" flags="0x1204"/>
      <component glyphName="dotaccent.cap" x="410" y="0" flags="0x1004"/>
    </TTGlyph>
    <TTGlyph name="a" xMin="71" yMin="-23" xMax="1019" yMax="1013">
      <contour>
        <pt x="1019" y="52" on="1"/>
        <pt x="873" y="-23" on="0"/>
        <pt x="808" y="-23" on="1"/>
        <pt x="662" y="-23" on="0"/>
        <pt x="662" y="101" on="1"/>
        <pt x="662" y="132" on="1"/>
        <pt x="648" y="111" on="0"/>
        <pt x="523" y="31" on="0"/>
        <pt x="488" y="15" on="1"/>
        <pt x="405" y="-23" on="0"/>
        <pt x="319" y="-23" on="0"/>
        <pt x="263" y="-16" on="0"/>
        <pt x="203" y="4" on="0"/>
        <pt x="145" y="40" on="0"/>
        <pt x="122" y="69" on="1"/>
        <pt x="71" y="133" on="0"/>
        <pt x="71" y="236" on="1"/>
        <pt x="71" y="378" on="0"/>
        <pt x="172" y="434" on="1"/>
        <pt x="236" y="471" on="0"/>
        <pt x="379" y="489" on="0"/>
        <pt x="438" y="494" on="1"/>
        <pt x="550" y="504" on="0"/>
        <pt x="662" y="506" on="1"/>
        <pt x="662" y="716" on="1"/>
        <pt x="662" y="803" on="0"/>
        <pt x="640" y="832" on="1"/>
        <pt x="603" y="883" on="0"/>
        <pt x="525" y="883" on="1"/>
        <pt x="351" y="883" on="0"/>
        <pt x="183" y="770" on="1"/>
        <pt x="125" y="857" on="1"/>
        <pt x="359" y="1013" on="0"/>
        <pt x="544" y="1013" on="1"/>
        <pt x="705" y="1013" on="0"/>
        <pt x="772" y="924" on="1"/>
        <pt x="824" y="855" on="0"/>
        <pt x="824" y="728" on="1"/>
        <pt x="824" y="202" on="1"/>
        <pt x="824" y="128" on="0"/>
        <pt x="852" y="118" on="1"/>
        <pt x="862" y="115" on="0"/>
        <pt x="878" y="115" on="1"/>
        <pt x="918" y="115" on="0"/>
        <pt x="1001" y="146" on="1"/>
      </contour>
      <contour>
        <pt x="662" y="422" on="1"/>
        <pt x="378" y="411" on="0"/>
        <pt x="298" y="365" on="1"/>
        <pt x="237" y="330" on="0"/>
        <pt x="237" y="252" on="1"/>
        <pt x="237" y="139" on="0"/>
        <pt x="324" y="113" on="1"/>
        <pt x="348" y="106" on="0"/>
        <pt x="417" y="106" on="0"/>
        <pt x="509" y="134" on="0"/>
        <pt x="548" y="154" on="1"/>
        <pt x="622" y="190" on="0"/>
        <pt x="662" y="224" on="1"/>
      </contour>
    </TTGlyph>
    <TTGlyph name="aacute" xMin="71" yMin="-23" xMax="1019" yMax="1560">
      <component glyphName="a" x="0" y="0" flags="0x1204"/>
      <component glyphName="acute" x="170" y="0" flags="0x1004"/>
    </TTGlyph>
    <TTGlyph name="abreve" xMin="71" yMin="-23" xMax="1019" yMax="1562">
      <component glyphName="a" x="0" y="0" flags="0x1204"/>
      <component glyphName="breve" x="109" y="0" flags="0x1004"/>
    </TTGlyph>
    <TTGlyph name="acircumflex" xMin="71" yMin="-23" xMax="1019" yMax="1529">
      <component glyphName="a" x="0" y="0" flags="0x1204"/>
      <component glyphName="circumflex" x="80" y="0" flags="0x1004"/>
    </TTGlyph>
    <TTGlyph name="acute" xMin="122" yMin="1190" xMax="526" yMax="1560">
      <contour>
        <pt x="526" y="1510" on="1"/>
        <pt x="169" y="1190" on="1"/>
        <pt x="122" y="1230" on="1"/>
        <pt x="365" y="1560" on="1"/>
      </contour>
    </TTGlyph>
    <TTGlyph name="acute.cap" xMin="163" yMin="1631" xMax="565" yMax="2000">
      <contour>
        <pt x="565" y="1951" on="1"/>
        <pt x="210" y="1631" on="1"/>
        <pt x="163" y="1670" on="1"/>
        <pt x="405" y="2000" on="1"/>
      </contour>
    </TTGlyph>
    <TTGlyph name="adieresis" xMin="71" yMin="-23" xMax="1019" yMax="1359">
      <component glyphName="a" x="0" y="0" flags="0x1204"/>
      <component glyphName="dieresis" x="43" y="0" flags="0x1004"/>
    </TTGlyph>
    <TTGlyph name="ae" xMin="140" yMin="-23" xMax="1562" yMax="1013">
      <contour>
        <pt x="1508" y="229" on="1"/>
        <pt x="1562" y="164" on="1"/>
        <pt x="1412" y="22" on="0"/>
        <pt x="1262" y="-15" on="1"/>
        <pt x="1230" y="-23" on="0"/>
        <pt x="1132" y="-23" on="0"/>
        <pt x="1010" y="8" on="0"/>
        <pt x="958" y="36" on="1"/>
        <pt x="852" y="92" on="0"/>
        <pt x="790" y="191" on="1"/>
        <pt x="766" y="162" on="1"/>
        <pt x="656" y="32" on="0"/>
        <pt x="505" y="-10" on="1"/>
        <pt x="458" y="-23" on="0"/>
        <pt x="386" y="-23" on="0"/>
        <pt x="331" y="-16" on="0"/>
        <pt x="272" y="4" on="0"/>
        <pt x="214" y="40" on="0"/>
        <pt x="191" y="69" on="1"/>
        <pt x="140" y="133" on="0"/>
        <pt x="140" y="236" on="1"/>
        <pt x="140" y="440" on="0"/>
        <pt x="317" y="490" on="1"/>
        <pt x="380" y="507" on="0"/>
        <pt x="426" y="516" on="1"/>
        <pt x="508" y="532" on="1"/>
        <pt x="583" y="545" on="0"/>
        <pt x="729" y="566" on="1"/>
        <pt x="729" y="716" on="1"/>
        <pt x="729" y="803" on="0"/>
        <pt x="708" y="832" on="1"/>
        <pt x="671" y="883" on="0"/>
        <pt x="580" y="883" on="1"/>
        <pt x="421" y="883" on="0"/>
        <pt x="253" y="770" on="1"/>
        <pt x="194" y="857" on="1"/>
        <pt x="428" y="1013" on="0"/>
        <pt x="614" y="1013" on="1"/>
        <pt x="764" y="1013" on="0"/>
        <pt x="824" y="941" on="1"/>
        <pt x="861" y="898" on="0"/>
        <pt x="861" y="838" on="1"/>
        <pt x="908" y="933" on="0"/>
        <pt x="1048" y="988" on="1"/>
        <pt x="1111" y="1013" on="0"/>
        <pt x="1261" y="1013" on="0"/>
        <pt x="1389" y="961" on="0"/>
        <pt x="1442" y="908" on="1"/>
        <pt x="1562" y="786" on="0"/>
        <pt x="1562" y="589" on="1"/>
        <pt x="1518" y="546" on="1"/>
        <pt x="891" y="490" on="1"/>
        <pt x="893" y="323" on="0"/>
        <pt x="987" y="222" on="1"/>
        <pt x="1084" y="117" on="0"/>
        <pt x="1382" y="117" on="0"/>
      </contour>
      <contour>
        <pt x="1266" y="876" on="1"/>
        <pt x="1226" y="895" on="0"/>
        <pt x="1121" y="895" on="0"/>
        <pt x="1042" y="859" on="0"/>
        <pt x="982" y="802" on="0"/>
        <pt x="939" y="732" on="0"/>
        <pt x="925" y="698" on="1"/>
        <pt x="898" y="630" on="0"/>
        <pt x="895" y="584" on="1"/>
        <pt x="1391" y="634" on="1"/>
        <pt x="1388" y="817" on="0"/>
      </contour>
      <contour>
        <pt x="587" y="451" on="0"/>
        <pt x="486" y="427" on="0"/>
        <pt x="394" y="400" on="0"/>
        <pt x="342" y="363" on="0"/>
        <pt x="328" y="342" on="1"/>
        <pt x="307" y="307" on="0"/>
        <pt x="307" y="210" on="0"/>
        <pt x="331" y="153" on="0"/>
        <pt x="350" y="136" on="1"/>
        <pt x="385" y="106" on="0"/>
        <pt x="488" y="106" on="0"/>
        <pt x="591" y="136" on="0"/>
        <pt x="633" y="160" on="1"/>
        <pt x="729" y="216" on="0"/>
        <pt x="729" y="276" on="1"/>
        <pt x="729" y="478" on="1"/>
        <pt x="724" y="477" on="0"/>
        <pt x="669" y="468" on="0"/>
      </contour>
    </TTGlyph>
    <TTGlyph name="aeacute" xMin="140" yMin="-23" xMax="1562" yMax="1560">
      <component glyphName="ae" x="0" y="0" flags="0x1204"/>
      <component glyphName="acute" x="527" y="0" flags="0x1004"/>
    </TTGlyph>
    <TTGlyph name="agrave" xMin="71" yMin="-23" xMax="1019" yMax="1561">
      <component glyphName="a" x="0" y="0" flags="0x1204"/>
      <component glyphName="grave" x="217" y="0" flags="0x1004"/>
    </TTGlyph>
    <TTGlyph name="amacron" xMin="71" yMin="-23" xMax="1019" yMax="1337">
      <component glyphName="a" x="0" y="0" flags="0x1204"/>
      <component glyphName="macron" x="-50" y="0" flags="0x1004"/>
    </TTGlyph>
    <TTGlyph name="ampersand" xMin="122" yMin="-23" xMax="1583" yMax="1456">
      <contour>
        <pt x="857" y="1079" on="1"/>
        <pt x="857" y="1344" on="0"/>
        <pt x="634" y="1344" on="1"/>
        <pt x="536" y="1344" on="0"/>
        <pt x="473" y="1281" on="1"/>
        <pt x="409" y="1217" on="0"/>
        <pt x="409" y="1121" on="1"/>
        <pt x="409" y="1012" on="0"/>
        <pt x="594" y="814" on="1"/>
        <pt x="821" y="574" on="1"/>
        <pt x="991" y="400" on="0"/>
        <pt x="1130" y="271" on="0"/>
        <pt x="1187" y="228" on="1"/>
        <pt x="1311" y="136" on="0"/>
        <pt x="1460" y="136" on="0"/>
        <pt x="1522" y="177" on="1"/>
        <pt x="1583" y="113" on="1"/>
        <pt x="1440" y="-23" on="0"/>
        <pt x="1324" y="-23" on="1"/>
        <pt x="1246" y="-23" on="0"/>
        <pt x="1167" y="29" on="1"/>
        <pt x="1129" y="54" on="0"/>
        <pt x="1088" y="88" on="1"/>
        <pt x="998" y="162" on="1"/>
        <pt x="823" y="-23" on="0"/>
        <pt x="591" y="-23" on="1"/>
        <pt x="379" y="-23" on="0"/>
        <pt x="253" y="78" on="1"/>
        <pt x="122" y="182" on="0"/>
        <pt x="122" y="365" on="1"/>
        <pt x="122" y="508" on="0"/>
        <pt x="214" y="616" on="1"/>
        <pt x="291" y="708" on="0"/>
        <pt x="409" y="753" on="1"/>
        <pt x="233" y="958" on="0"/>
        <pt x="233" y="1110" on="1"/>
        <pt x="233" y="1267" on="0"/>
        <pt x="352" y="1364" on="1"/>
        <pt x="465" y="1456" on="0"/>
        <pt x="629" y="1456" on="1"/>
        <pt x="768" y="1456" on="0"/>
        <pt x="938" y="1399" on="0"/>
        <pt x="973" y="1378" on="1"/>
        <pt x="937" y="1079" on="1"/>
      </contour>
      <contour>
        <pt x="483" y="678" on="1"/>
        <pt x="483" y="676" on="1"/>
        <pt x="408" y="637" on="0"/>
        <pt x="315" y="490" on="0"/>
        <pt x="315" y="333" on="0"/>
        <pt x="352" y="227" on="0"/>
        <pt x="391" y="186" on="1"/>
        <pt x="477" y="94" on="0"/>
        <pt x="638" y="94" on="1"/>
        <pt x="787" y="94" on="0"/>
        <pt x="933" y="218" on="1"/>
        <pt x="858" y="286" on="0"/>
        <pt x="784" y="361" on="1"/>
      </contour>
    </TTGlyph>
    <TTGlyph name="aogonek" xMin="71" yMin="-436" xMax="1045" yMax="1013">
      <contour>
        <pt x="1045" y="-396" on="1"/>
        <pt x="994" y="-436" on="0"/>
        <pt x="900" y="-436" on="1"/>
        <pt x="744" y="-436" on="0"/>
        <pt x="688" y="-324" on="1"/>
        <pt x="669" y="-286" on="0"/>
        <pt x="669" y="-192" on="0"/>
        <pt x="698" y="-110" on="0"/>
        <pt x="718" y="-76" on="1"/>
        <pt x="762" y="-4" on="0"/>
        <pt x="802" y="10" on="1"/>
        <pt x="812" y="36" on="0"/>
        <pt x="904" y="72" on="1"/>
        <pt x="953" y="91" on="1"/>
        <pt x="881" y="9" on="0"/>
        <pt x="810" y="-149" on="0"/>
        <pt x="810" y="-206" on="1"/>
        <pt x="810" y="-301" on="0"/>
        <pt x="889" y="-301" on="1"/>
        <pt x="921" y="-301" on="0"/>
        <pt x="938" y="-286" on="1"/>
        <pt x="965" y="-261" on="0"/>
        <pt x="965" y="-239" on="1"/>
        <pt x="1006" y="-239" on="1"/>
      </contour>
      <contour>
        <pt x="1019" y="52" on="1"/>
        <pt x="873" y="-23" on="0"/>
        <pt x="808" y="-23" on="1"/>
        <pt x="662" y="-23" on="0"/>
        <pt x="662" y="101" on="1"/>
        <pt x="662" y="132" on="1"/>
        <pt x="648" y="111" on="0"/>
        <pt x="523" y="31" on="0"/>
        <pt x="488" y="15" on="1"/>
        <pt x="405" y="-23" on="0"/>
        <pt x="319" y="-23" on="0"/>
        <pt x="263" y="-16" on="0"/>
        <pt x="203" y="4" on="0"/>
        <pt x="145" y="40" on="0"/>
        <pt x="122" y="69" on="1"/>
        <pt x="71" y="133" on="0"/>
        <pt x="71" y="236" on="1"/>
        <pt x="71" y="378" on="0"/>
        <pt x="172" y="434" on="1"/>
        <pt x="236" y="471" on="0"/>
        <pt x="379" y="489" on="0"/>
        <pt x="438" y="494" on="1"/>
        <pt x="550" y="504" on="0"/>
        <pt x="662" y="506" on="1"/>
        <pt x="662" y="716" on="1"/>
        <pt x="662" y="803" on="0"/>
        <pt x="640" y="832" on="1"/>
        <pt x="603" y="883" on="0"/>
        <pt x="525" y="883" on="1"/>
        <pt x="351" y="883" on="0"/>
        <pt x="183" y="770" on="1"/>
        <pt x="125" y="857" on="1"/>
        <pt x="359" y="1013" on="0"/>
        <pt x="544" y="1013" on="1"/>
        <pt x="705" y="1013" on="0"/>
        <pt x="772" y="924" on="1"/>
        <pt x="824" y="855" on="0"/>
        <pt x="824" y="728" on="1"/>
        <pt x="824" y="202" on="1"/>
        <pt x="824" y="128" on="0"/>
        <pt x="852" y="118" on="1"/>
        <pt x="862" y="115" on="0"/>
        <pt x="878" y="115" on="1"/>
        <pt x="918" y="115" on="0"/>
        <pt x="1001" y="146" on="1"/>
      </contour>
      <contour>
        <pt x="662" y="422" on="1"/>
        <pt x="378" y="411" on="0"/>
        <pt x="298" y="365" on="1"/>
        <pt x="237" y="330" on="0"/>
        <pt x="237" y="252" on="1"/>
        <pt x="237" y="139" on="0"/>
        <pt x="324" y="113" on="1"/>
        <pt x="348" y="106" on="0"/>
        <pt x="417" y="106" on="0"/>
        <pt x="509" y="134" on="0"/>
        <pt x="548" y="154" on="1"/>
        <pt x="622" y="190" on="0"/>
        <pt x="662" y="224" on="1"/>
      </contour>
    </TTGlyph>
    <TTGlyph name="approxequal" xMin="136" yMin="179" xMax="1056" yMax="834">
      <contour>
        <pt x="349" y="721" on="1"/>
        <pt x="274" y="721" on="0"/>
        <pt x="179" y="641" on="1"/>
        <pt x="136" y="679" on="1"/>
        <pt x="266" y="834" on="0"/>
        <pt x="372" y="834" on="1"/>
        <pt x="437" y="834" on="0"/>
        <pt x="665" y="777" on="0"/>
        <pt x="710" y="767" on="1"/>
        <pt x="814" y="744" on="0"/>
        <pt x="857" y="744" on="1"/>
        <pt x="935" y="744" on="0"/>
        <pt x="1009" y="825" on="1"/>
        <pt x="1056" y="792" on="1"/>
        <pt x="997" y="707" on="0"/>
        <pt x="918" y="657" on="1"/>
        <pt x="879" y="632" on="0"/>
        <pt x="806" y="632" on="0"/>
        <pt x="727" y="645" on="0"/>
        <pt x="682" y="655" on="1"/>
        <pt x="494" y="698" on="1"/>
        <pt x="392" y="721" on="0"/>
      </contour>
      <contour>
        <pt x="349" y="268" on="1"/>
        <pt x="274" y="268" on="0"/>
        <pt x="179" y="188" on="1"/>
        <pt x="136" y="226" on="1"/>
        <pt x="266" y="381" on="0"/>
        <pt x="372" y="381" on="1"/>
        <pt x="437" y="381" on="0"/>
        <pt x="665" y="324" on="0"/>
        <pt x="710" y="314" on="1"/>
        <pt x="814" y="291" on="0"/>
        <pt x="857" y="291" on="1"/>
        <pt x="935" y="291" on="0"/>
        <pt x="1009" y="372" on="1"/>
        <pt x="1056" y="339" on="1"/>
        <pt x="997" y="254" on="0"/>
        <pt x="918" y="204" on="1"/>
        <pt x="879" y="179" on="0"/>
        <pt x="806" y="179" on="0"/>
        <pt x="727" y="192" on="0"/>
        <pt x="682" y="202" on="1"/>
        <pt x="494" y="245" on="1"/>
        <pt x="392" y="268" on="0"/>
      </contour>
    </TTGlyph>
    <TTGlyph name="aring" xMin="71" yMin="-23" xMax="1019" yMax="1643">
      <component glyphName="a" x="0" y="0" flags="0x1204"/>
      <component glyphName="ring" x="227" y="0" flags="0x1004"/>
    </TTGlyph>
    <TTGlyph name="asciicircum" xMin="129" yMin="178" xMax="1236" yMax="1311">
      <contour>
        <pt x="683" y="1100" on="1"/>
        <pt x="239" y="178" on="1"/>
        <pt x="129" y="225" on="1"/>
        <pt x="659" y="1311" on="1"/>
        <pt x="706" y="1311" on="1"/>
      </contour>
      <contour>
        <pt x="669" y="1281" on="1"/>
        <pt x="706" y="1311" on="1"/>
        <pt x="1236" y="225" on="1"/>
        <pt x="1126" y="178" on="1"/>
        <pt x="682" y="1100" on="1"/>
      </contour>
    </TTGlyph>
    <TTGlyph name="asciitilde" xMin="70" yMin="448" xMax="860" yMax="680">
      <contour>
        <pt x="283" y="537" on="1"/>
        <pt x="208" y="537" on="0"/>
        <pt x="113" y="457" on="1"/>
        <pt x="70" y="495" on="1"/>
        <pt x="168" y="636" on="0"/>
        <pt x="264" y="672" on="1"/>
        <pt x="285" y="680" on="0"/>
        <pt x="347" y="680" on="0"/>
        <pt x="440" y="652" on="0"/>
        <pt x="486" y="635" on="1"/>
        <pt x="610" y="590" on="0"/>
        <pt x="661" y="590" on="1"/>
        <pt x="739" y="590" on="0"/>
        <pt x="813" y="671" on="1"/>
        <pt x="860" y="638" on="1"/>
        <pt x="751" y="448" on="0"/>
        <pt x="638" y="448" on="1"/>
        <pt x="583" y="448" on="0"/>
        <pt x="409" y="509" on="0"/>
        <pt x="320" y="537" on="0"/>
      </contour>
    </TTGlyph>
    <TTGlyph name="asterisk" xMin="70" yMin="1013" xMax="781" yMax="1766">
      <contour>
        <pt x="722" y="1630" on="1"/>
        <pt x="781" y="1526" on="1"/>
        <pt x="513" y="1389" on="1"/>
        <pt x="781" y="1253" on="1"/>
        <pt x="722" y="1149" on="1"/>
        <pt x="470" y="1314" on="1"/>
        <pt x="484" y="1013" on="1"/>
        <pt x="367" y="1013" on="1"/>
        <pt x="381" y="1314" on="1"/>
        <pt x="129" y="1149" on="1"/>
        <pt x="70" y="1253" on="1"/>
        <pt x="336" y="1389" on="1"/>
        <pt x="70" y="1526" on="1"/>
        <pt x="129" y="1630" on="1"/>
        <pt x="381" y="1463" on="1"/>
        <pt x="367" y="1766" on="1"/>
        <pt x="484" y="1766" on="1"/>
        <pt x="470" y="1463" on="1"/>
      </contour>
    </TTGlyph>
    <TTGlyph name="at" xMin="94" yMin="-250" xMax="1613" yMax="1355">
      <contour>
        <pt x="1284" y="-147" on="1"/>
        <pt x="1092" y="-250" on="0"/>
        <pt x="872" y="-250" on="1"/>
        <pt x="537" y="-250" on="0"/>
        <pt x="320" y="-41" on="1"/>
        <pt x="94" y="176" on="0"/>
        <pt x="94" y="528" on="1"/>
        <pt x="94" y="759" on="0"/>
        <pt x="216" y="954" on="1"/>
        <pt x="333" y="1139" on="0"/>
        <pt x="525" y="1246" on="1"/>
        <pt x="720" y="1355" on="0"/>
        <pt x="932" y="1355" on="1"/>
        <pt x="1248" y="1355" on="0"/>
        <pt x="1434" y="1176" on="1"/>
        <pt x="1613" y="1002" on="0"/>
        <pt x="1613" y="721" on="1"/>
        <pt x="1613" y="598" on="0"/>
        <pt x="1554" y="470" on="1"/>
        <pt x="1494" y="340" on="0"/>
        <pt x="1392" y="259" on="1"/>
        <pt x="1281" y="171" on="0"/>
        <pt x="1150" y="171" on="1"/>
        <pt x="1057" y="171" on="0"/>
        <pt x="1018" y="204" on="1"/>
        <pt x="989" y="229" on="0"/>
        <pt x="963" y="301" on="1"/>
        <pt x="853" y="170" on="0"/>
        <pt x="717" y="170" on="1"/>
        <pt x="613" y="170" on="0"/>
        <pt x="554" y="276" on="1"/>
        <pt x="501" y="369" on="0"/>
        <pt x="501" y="578" on="0"/>
        <pt x="562" y="729" on="0"/>
        <pt x="616" y="786" on="1"/>
        <pt x="731" y="908" on="0"/>
        <pt x="899" y="908" on="1"/>
        <pt x="959" y="908" on="0"/>
        <pt x="1022" y="890" on="1"/>
        <pt x="1033" y="930" on="1"/>
        <pt x="1165" y="931" on="1"/>
        <pt x="1084" y="435" on="1"/>
        <pt x="1075" y="381" on="0"/>
        <pt x="1075" y="352" on="1"/>
        <pt x="1075" y="257" on="0"/>
        <pt x="1172" y="257" on="1"/>
        <pt x="1289" y="257" on="0"/>
        <pt x="1376" y="385" on="1"/>
        <pt x="1464" y="516" on="0"/>
        <pt x="1464" y="710" on="1"/>
        <pt x="1464" y="943" on="0"/>
        <pt x="1328" y="1101" on="1"/>
        <pt x="1180" y="1272" on="0"/>
        <pt x="931" y="1272" on="1"/>
        <pt x="793" y="1272" on="0"/>
        <pt x="544" y="1170" on="0"/>
        <pt x="355" y="983" on="0"/>
        <pt x="244" y="716" on="0"/>
        <pt x="244" y="384" on="0"/>
        <pt x="346" y="117" on="0"/>
        <pt x="434" y="24" on="1"/>
        <pt x="618" y="-169" on="0"/>
        <pt x="900" y="-169" on="1"/>
        <pt x="1115" y="-169" on="0"/>
        <pt x="1243" y="-91" on="1"/>
      </contour>
      <contour>
        <pt x="687" y="717" on="0"/>
        <pt x="644" y="585" on="0"/>
        <pt x="644" y="436" on="0"/>
        <pt x="662" y="352" on="0"/>
        <pt x="678" y="320" on="1"/>
        <pt x="712" y="251" on="0"/>
        <pt x="759" y="251" on="1"/>
        <pt x="813" y="251" on="0"/>
        <pt x="854" y="284" on="1"/>
        <pt x="929" y="346" on="0"/>
        <pt x="946" y="431" on="1"/>
        <pt x="1000" y="751" on="1"/>
        <pt x="1010" y="816" on="0"/>
        <pt x="960" y="823" on="1"/>
        <pt x="932" y="827" on="0"/>
        <pt x="852" y="827" on="0"/>
        <pt x="759" y="795" on="0"/>
      </contour>
    </TTGlyph>
    <TTGlyph name="atilde" xMin="71" yMin="-23" xMax="1019" yMax="1459">
      <component glyphName="a" x="0" y="0" flags="0x1204"/>
      <component glyphName="tilde" x="69" y="0" flags="0x1004"/>
    </TTGlyph>
    <TTGlyph name="b" xMin="39" yMin="-23" xMax="1097" yMax="1663">
      <contour>
        <pt x="169" y="1483" on="1"/>
        <pt x="39" y="1508" on="1"/>
        <pt x="39" y="1589" on="1"/>
        <pt x="332" y="1663" on="1"/>
        <pt x="332" y="883" on="1"/>
        <pt x="430" y="952" on="0"/>
        <pt x="611" y="1013" on="0"/>
        <pt x="774" y="1013" on="0"/>
        <pt x="930" y="938" on="0"/>
        <pt x="984" y="872" on="1"/>
        <pt x="1097" y="734" on="0"/>
        <pt x="1097" y="519" on="1"/>
        <pt x="1097" y="296" on="0"/>
        <pt x="964" y="144" on="1"/>
        <pt x="820" y="-23" on="0"/>
        <pt x="574" y="-23" on="1"/>
        <pt x="416" y="-23" on="0"/>
        <pt x="277" y="53" on="1"/>
        <pt x="215" y="86" on="0"/>
        <pt x="169" y="130" on="1"/>
      </contour>
      <contour>
        <pt x="621" y="883" on="1"/>
        <pt x="486" y="883" on="0"/>
        <pt x="332" y="780" on="1"/>
        <pt x="332" y="209" on="1"/>
        <pt x="418" y="94" on="0"/>
        <pt x="605" y="94" on="1"/>
        <pt x="749" y="94" on="0"/>
        <pt x="839" y="204" on="1"/>
        <pt x="923" y="306" on="0"/>
        <pt x="923" y="459" on="1"/>
        <pt x="923" y="741" on="0"/>
        <pt x="758" y="846" on="1"/>
        <pt x="701" y="883" on="0"/>
      </contour>
    </TTGlyph>
    <TTGlyph name="backslash" xMin="74" yMin="-431" xMax="1124" yMax="1672">
      <contour>
        <pt x="1124" y="-389" on="1"/>
        <pt x="1029" y="-431" on="1"/>
        <pt x="74" y="1627" on="1"/>
        <pt x="168" y="1672" on="1"/>
      </contour>
    </TTGlyph>
    <TTGlyph name="bar" xMin="197" yMin="-559" xMax="315" yMax="1766">
      <contour>
        <pt x="197" y="1766" on="1"/>
        <pt x="315" y="1766" on="1"/>
        <pt x="315" y="-559" on="1"/>
        <pt x="197" y="-559" on="1"/>
      </contour>
    </TTGlyph>
    <TTGlyph name="braceleft" xMin="171" yMin="-519" xMax="682" yMax="1658">
      <contour>
        <pt x="480" y="-238" on="1"/>
        <pt x="480" y="-447" on="0"/>
        <pt x="682" y="-447" on="1"/>
        <pt x="682" y="-519" on="1"/>
        <pt x="484" y="-519" on="0"/>
        <pt x="392" y="-433" on="1"/>
        <pt x="320" y="-365" on="0"/>
        <pt x="320" y="-256" on="1"/>
        <pt x="320" y="-202" on="0"/>
        <pt x="325" y="-130" on="1"/>
        <pt x="336" y="21" on="1"/>
        <pt x="351" y="246" on="0"/>
        <pt x="351" y="376" on="0"/>
        <pt x="336" y="433" on="0"/>
        <pt x="323" y="456" on="1"/>
        <pt x="275" y="539" on="0"/>
        <pt x="171" y="570" on="1"/>
        <pt x="171" y="641" on="1"/>
        <pt x="311" y="677" on="0"/>
        <pt x="344" y="804" on="1"/>
        <pt x="351" y="833" on="0"/>
        <pt x="351" y="944" on="0"/>
        <pt x="341" y="1087" on="0"/>
        <pt x="336" y="1154" on="1"/>
        <pt x="325" y="1282" on="1"/>
        <pt x="320" y="1342" on="0"/>
        <pt x="320" y="1447" on="0"/>
        <pt x="358" y="1541" on="0"/>
        <pt x="401" y="1578" on="1"/>
        <pt x="496" y="1658" on="0"/>
        <pt x="682" y="1658" on="1"/>
        <pt x="682" y="1587" on="1"/>
        <pt x="480" y="1587" on="0"/>
        <pt x="480" y="1378" on="1"/>
        <pt x="480" y="1307" on="0"/>
        <pt x="501" y="1062" on="0"/>
        <pt x="504" y="1014" on="1"/>
        <pt x="513" y="899" on="0"/>
        <pt x="513" y="874" on="1"/>
        <pt x="513" y="693" on="0"/>
        <pt x="296" y="605" on="1"/>
        <pt x="396" y="562" on="0"/>
        <pt x="437" y="519" on="1"/>
        <pt x="513" y="438" on="0"/>
        <pt x="513" y="337" on="1"/>
        <pt x="513" y="318" on="0"/>
        <pt x="510" y="276" on="1"/>
        <pt x="504" y="178" on="1"/>
        <pt x="501" y="123" on="0"/>
        <pt x="492" y="-1" on="0"/>
        <pt x="488" y="-58" on="1"/>
        <pt x="480" y="-198" on="0"/>
      </contour>
    </TTGlyph>
    <TTGlyph name="braceright" xMin="171" yMin="-519" xMax="682" yMax="1658">
      <component glyphName="braceleft" x="853" y="0" scalex="-0.999938964844" scaley="1.0" flags="0x1004"/>
    </TTGlyph>
    <TTGlyph name="bracketleft" xMin="172" yMin="-511" xMax="532" yMax="1663">
      <contour>
        <pt x="334" y="-405" on="1"/>
        <pt x="532" y="-427" on="1"/>
        <pt x="532" y="-511" on="1"/>
        <pt x="172" y="-511" on="1"/>
        <pt x="172" y="1663" on="1"/>
        <pt x="532" y="1663" on="1"/>
        <pt x="532" y="1578" on="1"/>
        <pt x="334" y="1557" on="1"/>
      </contour>
    </TTGlyph>
    <TTGlyph name="bracketright" xMin="152" yMin="-511" xMax="512" yMax="1663">
      <contour>
        <pt x="350" y="1557" on="1"/>
        <pt x="152" y="1578" on="1"/>
        <pt x="152" y="1663" on="1"/>
        <pt x="512" y="1663" on="1"/>
        <pt x="512" y="-511" on="1"/>
        <pt x="152" y="-511" on="1"/>
        <pt x="152" y="-427" on="1"/>
        <pt x="350" y="-405" on="1"/>
      </contour>
    </TTGlyph>
    <TTGlyph name="breve" xMin="128" yMin="1258" xMax="719" yMax="1562">
      <contour>
        <pt x="420" y="1368" on="1"/>
        <pt x="583" y="1368" on="0"/>
        <pt x="636" y="1562" on="1"/>
        <pt x="719" y="1544" on="1"/>
        <pt x="702" y="1434" on="0"/>
        <pt x="622" y="1350" on="1"/>
        <pt x="534" y="1258" on="0"/>
        <pt x="422" y="1258" on="1"/>
        <pt x="297" y="1258" on="0"/>
        <pt x="216" y="1346" on="1"/>
        <pt x="148" y="1420" on="0"/>
        <pt x="128" y="1544" on="1"/>
        <pt x="212" y="1562" on="1"/>
        <pt x="239" y="1427" on="0"/>
        <pt x="338" y="1384" on="1"/>
        <pt x="374" y="1368" on="0"/>
      </contour>
    </TTGlyph>
    <TTGlyph name="breve.cap" xMin="-12" yMin="1696" xMax="580" yMax="1999">
      <contour>
        <pt x="281" y="1806" on="1"/>
        <pt x="441" y="1806" on="0"/>
        <pt x="497" y="1999" on="1"/>
        <pt x="580" y="1983" on="1"/>
        <pt x="563" y="1872" on="0"/>
        <pt x="483" y="1788" on="1"/>
        <pt x="395" y="1696" on="0"/>
        <pt x="283" y="1696" on="1"/>
        <pt x="157" y="1696" on="0"/>
        <pt x="76" y="1784" on="1"/>
        <pt x="8" y="1859" on="0"/>
        <pt x="-12" y="1983" on="1"/>
        <pt x="72" y="1999" on="1"/>
        <pt x="99" y="1863" on="0"/>
        <pt x="200" y="1821" on="1"/>
        <pt x="235" y="1806" on="0"/>
      </contour>
    </TTGlyph>
    <TTGlyph name="brokenbar" xMin="197" yMin="-559" xMax="315" yMax="1766">
      <contour>
        <pt x="197" y="494" on="1"/>
        <pt x="315" y="494" on="1"/>
        <pt x="315" y="-559" on="1"/>
        <pt x="197" y="-559" on="1"/>
      </contour>
      <contour>
        <pt x="197" y="1766" on="1"/>
        <pt x="315" y="1766" on="1"/>
        <pt x="315" y="683" on="1"/>
        <pt x="197" y="683" on="1"/>
      </contour>
    </TTGlyph>
    <TTGlyph name="bullet" xMin="91" yMin="398" xMax="421" yMax="719">
      <contour>
        <pt x="91" y="558" on="1"/>
        <pt x="91" y="625" on="0"/>
        <pt x="140" y="672" on="1"/>
        <pt x="188" y="719" on="0"/>
        <pt x="256" y="719" on="1"/>
        <pt x="323" y="719" on="0"/>
        <pt x="372" y="672" on="1"/>
        <pt x="421" y="624" on="0"/>
        <pt x="421" y="558" on="1"/>
        <pt x="421" y="492" on="0"/>
        <pt x="372" y="444" on="1"/>
        <pt x="323" y="398" on="0"/>
        <pt x="222" y="398" on="0"/>
        <pt x="162" y="423" on="0"/>
        <pt x="140" y="444" on="1"/>
        <pt x="91" y="491" on="0"/>
      </contour>
    </TTGlyph>
    <TTGlyph name="c" xMin="91" yMin="-23" xMax="949" yMax="1013">
      <contour>
        <pt x="892" y="229" on="1"/>
        <pt x="949" y="164" on="1"/>
        <pt x="790" y="21" on="0"/>
        <pt x="641" y="-15" on="1"/>
        <pt x="608" y="-23" on="0"/>
        <pt x="576" y="-23" on="1"/>
        <pt x="357" y="-23" on="0"/>
        <pt x="222" y="116" on="1"/>
        <pt x="91" y="251" on="0"/>
        <pt x="91" y="471" on="1"/>
        <pt x="91" y="691" on="0"/>
        <pt x="222" y="844" on="1"/>
        <pt x="368" y="1013" on="0"/>
        <pt x="614" y="1013" on="1"/>
        <pt x="778" y="1013" on="0"/>
        <pt x="904" y="959" on="1"/>
        <pt x="880" y="758" on="1"/>
        <pt x="817" y="758" on="1"/>
        <pt x="817" y="859" on="0"/>
        <pt x="696" y="886" on="1"/>
        <pt x="658" y="895" on="0"/>
        <pt x="522" y="895" on="0"/>
        <pt x="391" y="832" on="0"/>
        <pt x="349" y="780" on="1"/>
        <pt x="266" y="677" on="0"/>
        <pt x="266" y="528" on="1"/>
        <pt x="266" y="345" on="0"/>
        <pt x="356" y="235" on="1"/>
        <pt x="453" y="117" on="0"/>
        <pt x="758" y="117" on="0"/>
      </contour>
    </TTGlyph>
    <TTGlyph name="cacute" xMin="91" yMin="-23" xMax="949" yMax="1560">
      <component glyphName="c" x="0" y="0" flags="0x1204"/>
      <component glyphName="acute" x="234" y="0" flags="0x1004"/>
    </TTGlyph>
    <TTGlyph name="caron" xMin="94" yMin="1239" xMax="735" yMax="1531">
      <contour>
        <pt x="409" y="1239" on="1"/>
        <pt x="94" y="1460" on="1"/>
        <pt x="139" y="1531" on="1"/>
        <pt x="416" y="1375" on="1"/>
        <pt x="692" y="1531" on="1"/>
        <pt x="735" y="1467" on="1"/>
      </contour>
    </TTGlyph>
    <TTGlyph name="caron.cap" xMin="-38" yMin="1708" xMax="603" yMax="2000">
      <contour>
        <pt x="278" y="1708" on="1"/>
        <pt x="-38" y="1929" on="1"/>
        <pt x="7" y="2000" on="1"/>
        <pt x="285" y="1845" on="1"/>
        <pt x="560" y="2000" on="1"/>
        <pt x="603" y="1936" on="1"/>
      </contour>
    </TTGlyph>
    <TTGlyph name="caronvertical" xMin="134" yMin="968" xMax="392" yMax="1533">
      <contour>
        <pt x="192" y="1083" on="1"/>
        <pt x="251" y="1166" on="0"/>
        <pt x="251" y="1249" on="1"/>
        <pt x="251" y="1294" on="0"/>
        <pt x="221" y="1327" on="0"/>
        <pt x="185" y="1353" on="0"/>
        <pt x="155" y="1381" on="0"/>
        <pt x="155" y="1419" on="0"/>
        <pt x="179" y="1463" on="0"/>
        <pt x="198" y="1484" on="1"/>
        <pt x="242" y="1533" on="0"/>
        <pt x="287" y="1533" on="1"/>
        <pt x="324" y="1533" on="0"/>
        <pt x="359" y="1489" on="1"/>
        <pt x="392" y="1447" on="0"/>
        <pt x="392" y="1343" on="0"/>
        <pt x="372" y="1242" on="0"/>
        <pt x="356" y="1200" on="1"/>
        <pt x="296" y="1043" on="0"/>
        <pt x="165" y="968" on="1"/>
        <pt x="134" y="1022" on="1"/>
        <pt x="166" y="1047" on="0"/>
      </contour>
    </TTGlyph>
    <TTGlyph name="ccaron" xMin="91" yMin="-23" xMax="949" yMax="1531">
      <component glyphName="c" x="0" y="0" flags="0x1204"/>
      <component glyphName="caron" x="144" y="0" flags="0x1004"/>
    </TTGlyph>
    <TTGlyph name="ccedilla" xMin="91" yMin="-528" xMax="949" yMax="1013">
      <component glyphName="c" x="0" y="0" flags="0x1204"/>
      <component glyphName="cedilla" x="228" y="0" flags="0x1004"/>
    </TTGlyph>
    <TTGlyph name="ccircumflex" xMin="91" yMin="-23" xMax="949" yMax="1529">
      <component glyphName="c" x="0" y="0" flags="0x1204"/>
      <component glyphName="circumflex" x="144" y="0" flags="0x1004"/>
    </TTGlyph>
    <TTGlyph name="cdotaccent" xMin="91" yMin="-23" xMax="949" yMax="1524">
      <component glyphName="c" x="0" y="0" flags="0x1204"/>
      <component glyphName="dotaccent" x="386" y="0" flags="0x1004"/>
    </TTGlyph>
    <TTGlyph name="cedilla" xMin="94" yMin="-528" xMax="535" yMax="31">
      <contour>
        <pt x="373" y="9" on="1"/>
        <pt x="306" y="-135" on="1"/>
        <pt x="451" y="-135" on="0"/>
        <pt x="512" y="-225" on="1"/>
        <pt x="535" y="-258" on="0"/>
        <pt x="535" y="-300" on="1"/>
        <pt x="535" y="-371" on="0"/>
        <pt x="454" y="-440" on="1"/>
        <pt x="355" y="-528" on="0"/>
        <pt x="292" y="-528" on="1"/>
        <pt x="186" y="-528" on="0"/>
        <pt x="94" y="-463" on="1"/>
        <pt x="128" y="-337" on="1"/>
        <pt x="167" y="-337" on="1"/>
        <pt x="167" y="-400" on="0"/>
        <pt x="254" y="-422" on="1"/>
        <pt x="277" y="-427" on="0"/>
        <pt x="300" y="-427" on="1"/>
        <pt x="365" y="-427" on="0"/>
        <pt x="410" y="-381" on="0"/>
        <pt x="416" y="-344" on="0"/>
        <pt x="416" y="-294" on="0"/>
        <pt x="386" y="-250" on="0"/>
        <pt x="358" y="-235" on="1"/>
        <pt x="306" y="-206" on="0"/>
        <pt x="207" y="-202" on="1"/>
        <pt x="189" y="-158" on="1"/>
        <pt x="310" y="31" on="1"/>
      </contour>
    </TTGlyph>
    <TTGlyph name="cedilla.cap" xMin="94" yMin="-528" xMax="535" yMax="31">
      <contour>
        <pt x="373" y="9" on="1"/>
        <pt x="306" y="-135" on="1"/>
        <pt x="451" y="-135" on="0"/>
        <pt x="512" y="-225" on="1"/>
        <pt x="535" y="-258" on="0"/>
        <pt x="535" y="-300" on="1"/>
        <pt x="535" y="-371" on="0"/>
        <pt x="454" y="-440" on="1"/>
        <pt x="355" y="-528" on="0"/>
        <pt x="292" y="-528" on="1"/>
        <pt x="186" y="-528" on="0"/>
        <pt x="94" y="-463" on="1"/>
        <pt x="128" y="-337" on="1"/>
        <pt x="167" y="-337" on="1"/>
        <pt x="167" y="-400" on="0"/>
        <pt x="254" y="-422" on="1"/>
        <pt x="277" y="-427" on="0"/>
        <pt x="300" y="-427" on="1"/>
        <pt x="365" y="-427" on="0"/>
        <pt x="410" y="-381" on="0"/>
        <pt x="416" y="-344" on="0"/>
        <pt x="416" y="-294" on="0"/>
        <pt x="386" y="-250" on="0"/>
        <pt x="358" y="-235" on="1"/>
        <pt x="306" y="-206" on="0"/>
        <pt x="207" y="-202" on="1"/>
        <pt x="189" y="-158" on="1"/>
        <pt x="310" y="31" on="1"/>
      </contour>
    </TTGlyph>
    <TTGlyph name="cent" xMin="85" yMin="-211" xMax="938" yMax="1197">
      <contour>
        <pt x="624" y="117" on="1"/>
        <pt x="756" y="124" on="0"/>
        <pt x="886" y="229" on="1"/>
        <pt x="938" y="164" on="1"/>
        <pt x="772" y="9" on="0"/>
        <pt x="624" y="-18" on="1"/>
        <pt x="624" y="-211" on="1"/>
        <pt x="518" y="-211" on="1"/>
        <pt x="518" y="-21" on="1"/>
        <pt x="321" y="-1" on="0"/>
        <pt x="204" y="134" on="1"/>
        <pt x="85" y="269" on="0"/>
        <pt x="85" y="471" on="1"/>
        <pt x="85" y="660" on="0"/>
        <pt x="200" y="810" on="1"/>
        <pt x="319" y="966" on="0"/>
        <pt x="518" y="1005" on="1"/>
        <pt x="518" y="1197" on="1"/>
        <pt x="624" y="1197" on="1"/>
        <pt x="624" y="1013" on="1"/>
        <pt x="773" y="1006" on="0"/>
        <pt x="898" y="959" on="1"/>
        <pt x="874" y="758" on="1"/>
        <pt x="811" y="758" on="1"/>
        <pt x="811" y="881" on="0"/>
        <pt x="624" y="895" on="1"/>
      </contour>
      <contour>
        <pt x="260" y="520" on="1"/>
        <pt x="260" y="454" on="0"/>
        <pt x="294" y="324" on="0"/>
        <pt x="327" y="272" on="1"/>
        <pt x="396" y="163" on="0"/>
        <pt x="518" y="130" on="1"/>
        <pt x="518" y="885" on="1"/>
        <pt x="395" y="854" on="0"/>
        <pt x="325" y="748" on="1"/>
        <pt x="260" y="650" on="0"/>
      </contour>
    </TTGlyph>
    <TTGlyph name="circumflex" xMin="83" yMin="1190" xMax="746" yMax="1529">
      <contour>
        <pt x="420" y="1529" on="1"/>
        <pt x="746" y="1261" on="1"/>
        <pt x="690" y="1190" on="1"/>
        <pt x="412" y="1392" on="1"/>
        <pt x="137" y="1190" on="1"/>
        <pt x="83" y="1254" on="1"/>
      </contour>
    </TTGlyph>
    <TTGlyph name="circumflex.cap" xMin="-49" yMin="1661" xMax="615" yMax="2000">
      <contour>
        <pt x="287" y="2000" on="1"/>
        <pt x="615" y="1731" on="1"/>
        <pt x="558" y="1661" on="1"/>
        <pt x="281" y="1864" on="1"/>
        <pt x="5" y="1661" on="1"/>
        <pt x="-49" y="1724" on="1"/>
      </contour>
    </TTGlyph>
    <TTGlyph name="colon" xMin="127" yMin="-23" xMax="384" yMax="1013">
      <contour>
        <pt x="155" y="38" on="0"/>
        <pt x="127" y="83" on="0"/>
        <pt x="127" y="121" on="0"/>
        <pt x="152" y="166" on="0"/>
        <pt x="171" y="186" on="1"/>
        <pt x="216" y="233" on="0"/>
        <pt x="255" y="233" on="1"/>
        <pt x="296" y="233" on="0"/>
        <pt x="327" y="200" on="1"/>
        <pt x="384" y="142" on="0"/>
        <pt x="384" y="103" on="1"/>
        <pt x="384" y="66" on="0"/>
        <pt x="352" y="34" on="1"/>
        <pt x="295" y="-23" on="0"/>
        <pt x="255" y="-23" on="1"/>
        <pt x="221" y="-23" on="0"/>
      </contour>
      <contour>
        <pt x="155" y="818" on="0"/>
        <pt x="127" y="863" on="0"/>
        <pt x="127" y="901" on="0"/>
        <pt x="152" y="946" on="0"/>
        <pt x="171" y="966" on="1"/>
        <pt x="216" y="1013" on="0"/>
        <pt x="255" y="1013" on="1"/>
        <pt x="296" y="1013" on="0"/>
        <pt x="327" y="980" on="1"/>
        <pt x="384" y="922" on="0"/>
        <pt x="384" y="863" on="0"/>
        <pt x="358" y="819" on="0"/>
        <pt x="339" y="800" on="1"/>
        <pt x="295" y="756" on="0"/>
        <pt x="255" y="756" on="1"/>
        <pt x="220" y="756" on="0"/>
      </contour>
    </TTGlyph>
    <TTGlyph name="comma" xMin="97" yMin="-332" xMax="415" yMax="233">
      <contour>
        <pt x="266" y="-91" on="1"/>
        <pt x="274" y="-64" on="0"/>
        <pt x="274" y="-6" on="0"/>
        <pt x="238" y="27" on="0"/>
        <pt x="194" y="53" on="0"/>
        <pt x="158" y="80" on="0"/>
        <pt x="158" y="118" on="0"/>
        <pt x="182" y="163" on="0"/>
        <pt x="200" y="184" on="1"/>
        <pt x="245" y="233" on="0"/>
        <pt x="290" y="233" on="1"/>
        <pt x="329" y="233" on="0"/>
        <pt x="360" y="201" on="1"/>
        <pt x="415" y="144" on="0"/>
        <pt x="415" y="43" on="0"/>
        <pt x="390" y="-59" on="0"/>
        <pt x="370" y="-100" on="1"/>
        <pt x="335" y="-174" on="0"/>
        <pt x="208" y="-296" on="0"/>
        <pt x="128" y="-332" on="1"/>
        <pt x="97" y="-278" on="1"/>
        <pt x="234" y="-208" on="0"/>
      </contour>
    </TTGlyph>
    <TTGlyph name="commaaccent" xMin="169" yMin="-560" xMax="440" yMax="-65">
      <contour>
        <pt x="234" y="-462" on="1"/>
        <pt x="299" y="-402" on="0"/>
        <pt x="299" y="-340" on="1"/>
        <pt x="299" y="-305" on="0"/>
        <pt x="263" y="-273" on="0"/>
        <pt x="220" y="-247" on="0"/>
        <pt x="184" y="-219" on="0"/>
        <pt x="184" y="-180" on="0"/>
        <pt x="207" y="-136" on="0"/>
        <pt x="226" y="-115" on="1"/>
        <pt x="271" y="-65" on="0"/>
        <pt x="315" y="-65" on="1"/>
        <pt x="354" y="-65" on="0"/>
        <pt x="385" y="-97" on="1"/>
        <pt x="440" y="-154" on="0"/>
        <pt x="440" y="-246" on="0"/>
        <pt x="419" y="-332" on="0"/>
        <pt x="402" y="-368" on="1"/>
        <pt x="374" y="-428" on="0"/>
        <pt x="267" y="-530" on="0"/>
        <pt x="200" y="-560" on="1"/>
        <pt x="169" y="-505" on="1"/>
        <pt x="205" y="-488" on="0"/>
      </contour>
    </TTGlyph>
    <TTGlyph name="commaaccent.cap" xMin="169" yMin="-560" xMax="440" yMax="-65">
      <contour>
        <pt x="234" y="-462" on="1"/>
        <pt x="299" y="-402" on="0"/>
        <pt x="299" y="-340" on="1"/>
        <pt x="299" y="-305" on="0"/>
        <pt x="263" y="-273" on="0"/>
        <pt x="220" y="-247" on="0"/>
        <pt x="184" y="-219" on="0"/>
        <pt x="184" y="-180" on="0"/>
        <pt x="207" y="-136" on="0"/>
        <pt x="226" y="-115" on="1"/>
        <pt x="271" y="-65" on="0"/>
        <pt x="315" y="-65" on="1"/>
        <pt x="354" y="-65" on="0"/>
        <pt x="385" y="-97" on="1"/>
        <pt x="440" y="-154" on="0"/>
        <pt x="440" y="-246" on="0"/>
        <pt x="419" y="-332" on="0"/>
        <pt x="402" y="-368" on="1"/>
        <pt x="374" y="-428" on="0"/>
        <pt x="267" y="-530" on="0"/>
        <pt x="200" y="-560" on="1"/>
        <pt x="169" y="-505" on="1"/>
        <pt x="205" y="-488" on="0"/>
      </contour>
    </TTGlyph>
    <TTGlyph name="copyright" xMin="162" yMin="-23" xMax="1719" yMax="1531">
      <contour>
        <pt x="215" y="448" on="0"/>
        <pt x="162" y="645" on="0"/>
        <pt x="162" y="858" on="0"/>
        <pt x="215" y="1056" on="0"/>
        <pt x="314" y="1230" on="0"/>
        <pt x="455" y="1373" on="0"/>
        <pt x="542" y="1424" on="1"/>
        <pt x="725" y="1531" on="0"/>
        <pt x="944" y="1531" on="1"/>
        <pt x="1276" y="1531" on="0"/>
        <pt x="1500" y="1302" on="1"/>
        <pt x="1639" y="1158" on="0"/>
        <pt x="1692" y="957" on="1"/>
        <pt x="1719" y="858" on="0"/>
        <pt x="1719" y="592" on="0"/>
        <pt x="1603" y="311" on="0"/>
        <pt x="1396" y="100" on="0"/>
        <pt x="1112" y="-23" on="0"/>
        <pt x="832" y="-23" on="0"/>
        <pt x="629" y="33" on="0"/>
        <pt x="455" y="134" on="0"/>
        <pt x="314" y="276" on="0"/>
      </contour>
      <contour>
        <pt x="299" y="751" on="1"/>
        <pt x="299" y="469" on="0"/>
        <pt x="486" y="278" on="1"/>
        <pt x="674" y="87" on="0"/>
        <pt x="944" y="87" on="1"/>
        <pt x="1214" y="87" on="0"/>
        <pt x="1402" y="278" on="1"/>
        <pt x="1589" y="469" on="0"/>
        <pt x="1589" y="751" on="1"/>
        <pt x="1589" y="892" on="0"/>
        <pt x="1489" y="1137" on="0"/>
        <pt x="1402" y="1227" on="1"/>
        <pt x="1214" y="1420" on="0"/>
        <pt x="944" y="1420" on="1"/>
        <pt x="674" y="1420" on="0"/>
        <pt x="486" y="1227" on="1"/>
        <pt x="399" y="1137" on="0"/>
        <pt x="299" y="892" on="0"/>
      </contour>
      <contour>
        <pt x="1295" y="365" on="1"/>
        <pt x="1171" y="296" on="0"/>
        <pt x="972" y="296" on="1"/>
        <pt x="768" y="296" on="0"/>
        <pt x="632" y="409" on="1"/>
        <pt x="484" y="531" on="0"/>
        <pt x="484" y="739" on="1"/>
        <pt x="484" y="949" on="0"/>
        <pt x="628" y="1084" on="1"/>
        <pt x="763" y="1209" on="0"/>
        <pt x="1162" y="1209" on="0"/>
        <pt x="1286" y="1145" on="1"/>
        <pt x="1272" y="916" on="1"/>
        <pt x="1223" y="916" on="1"/>
        <pt x="1223" y="1114" on="0"/>
        <pt x="951" y="1114" on="1"/>
        <pt x="814" y="1114" on="0"/>
        <pt x="736" y="1018" on="1"/>
        <pt x="661" y="926" on="0"/>
        <pt x="661" y="770" on="1"/>
        <pt x="661" y="511" on="0"/>
        <pt x="828" y="420" on="1"/>
        <pt x="885" y="390" on="0"/>
        <pt x="1033" y="390" on="0"/>
        <pt x="1134" y="423" on="0"/>
        <pt x="1167" y="450" on="1"/>
        <pt x="1232" y="505" on="0"/>
        <pt x="1232" y="590" on="1"/>
        <pt x="1279" y="590" on="1"/>
      </contour>
    </TTGlyph>
    <TTGlyph name="currency" xMin="153" yMin="179" xMax="1213" yMax="1239">
      <contour>
        <pt x="310" y="420" on="1"/>
        <pt x="205" y="540" on="0"/>
        <pt x="205" y="866" on="0"/>
        <pt x="313" y="996" on="1"/>
        <pt x="153" y="1157" on="1"/>
        <pt x="233" y="1239" on="1"/>
        <pt x="395" y="1074" on="1"/>
        <pt x="530" y="1178" on="0"/>
        <pt x="853" y="1178" on="0"/>
        <pt x="982" y="1090" on="1"/>
        <pt x="1130" y="1239" on="1"/>
        <pt x="1213" y="1159" on="1"/>
        <pt x="1067" y="1013" on="1"/>
        <pt x="1161" y="900" on="0"/>
        <pt x="1161" y="560" on="0"/>
        <pt x="1043" y="427" on="1"/>
        <pt x="1213" y="259" on="1"/>
        <pt x="1130" y="179" on="1"/>
        <pt x="959" y="348" on="1"/>
        <pt x="830" y="259" on="0"/>
        <pt x="529" y="259" on="0"/>
        <pt x="398" y="344" on="1"/>
        <pt x="233" y="179" on="1"/>
        <pt x="153" y="261" on="1"/>
      </contour>
      <contour>
        <pt x="355" y="738" on="1"/>
        <pt x="355" y="660" on="0"/>
        <pt x="404" y="521" on="0"/>
        <pt x="448" y="468" on="1"/>
        <pt x="543" y="353" on="0"/>
        <pt x="685" y="353" on="1"/>
        <pt x="832" y="353" on="0"/>
        <pt x="920" y="440" on="1"/>
        <pt x="1013" y="531" on="0"/>
        <pt x="1013" y="688" on="1"/>
        <pt x="1013" y="847" on="0"/>
        <pt x="924" y="961" on="1"/>
        <pt x="829" y="1083" on="0"/>
        <pt x="676" y="1083" on="1"/>
        <pt x="527" y="1083" on="0"/>
        <pt x="442" y="990" on="1"/>
        <pt x="355" y="896" on="0"/>
      </contour>
    </TTGlyph>
    <TTGlyph name="d" xMin="83" yMin="-23" xMax="1209" yMax="1663">
      <contour>
        <pt x="600" y="1013" on="1"/>
        <pt x="725" y="1013" on="0"/>
        <pt x="849" y="964" on="1"/>
        <pt x="849" y="1477" on="1"/>
        <pt x="696" y="1508" on="1"/>
        <pt x="696" y="1589" on="1"/>
        <pt x="1011" y="1663" on="1"/>
        <pt x="1011" y="160" on="1"/>
        <pt x="1011" y="115" on="0"/>
        <pt x="1112" y="115" on="0"/>
        <pt x="1188" y="146" on="1"/>
        <pt x="1209" y="52" on="1"/>
        <pt x="1066" y="-23" on="0"/>
        <pt x="995" y="-23" on="1"/>
        <pt x="892" y="-23" on="0"/>
        <pt x="860" y="44" on="1"/>
        <pt x="849" y="68" on="0"/>
        <pt x="849" y="101" on="1"/>
        <pt x="774" y="35" on="0"/>
        <pt x="604" y="-23" on="0"/>
        <pt x="421" y="-23" on="0"/>
        <pt x="251" y="47" on="0"/>
        <pt x="194" y="112" on="1"/>
        <pt x="83" y="239" on="0"/>
        <pt x="83" y="471" on="1"/>
        <pt x="83" y="693" on="0"/>
        <pt x="214" y="844" on="1"/>
        <pt x="359" y="1013" on="0"/>
      </contour>
      <contour>
        <pt x="600" y="117" on="1"/>
        <pt x="701" y="117" on="0"/>
        <pt x="849" y="212" on="1"/>
        <pt x="849" y="780" on="1"/>
        <pt x="763" y="895" on="0"/>
        <pt x="575" y="895" on="1"/>
        <pt x="430" y="895" on="0"/>
        <pt x="340" y="778" on="1"/>
        <pt x="256" y="667" on="0"/>
        <pt x="256" y="492" on="1"/>
        <pt x="256" y="333" on="0"/>
        <pt x="336" y="231" on="1"/>
        <pt x="424" y="117" on="0"/>
      </contour>
    </TTGlyph>
    <TTGlyph name="dagger" xMin="17" yMin="-367" xMax="835" yMax="1295">
      <contour>
        <pt x="46" y="777" on="1"/>
        <pt x="378" y="784" on="1"/>
        <pt x="367" y="1295" on="1"/>
        <pt x="484" y="1295" on="1"/>
        <pt x="473" y="789" on="1"/>
        <pt x="835" y="827" on="1"/>
        <pt x="807" y="697" on="1"/>
        <pt x="473" y="690" on="1"/>
        <pt x="484" y="-367" on="1"/>
        <pt x="367" y="-367" on="1"/>
        <pt x="378" y="685" on="1"/>
        <pt x="17" y="650" on="1"/>
      </contour>
    </TTGlyph>
    <TTGlyph name="daggerdbl" xMin="17" yMin="-367" xMax="835" yMax="1295">
      <contour>
        <pt x="46" y="777" on="1"/>
        <pt x="376" y="784" on="1"/>
        <pt x="367" y="1295" on="1"/>
        <pt x="484" y="1295" on="1"/>
        <pt x="475" y="789" on="1"/>
        <pt x="835" y="827" on="1"/>
        <pt x="807" y="697" on="1"/>
        <pt x="475" y="690" on="1"/>
        <pt x="477" y="386" on="1"/>
        <pt x="812" y="424" on="1"/>
        <pt x="783" y="294" on="1"/>
        <pt x="477" y="287" on="1"/>
        <pt x="484" y="-367" on="1"/>
        <pt x="367" y="-367" on="1"/>
        <pt x="371" y="283" on="1"/>
        <pt x="41" y="247" on="1"/>
        <pt x="69" y="375" on="1"/>
        <pt x="374" y="382" on="1"/>
        <pt x="376" y="685" on="1"/>
        <pt x="17" y="650" on="1"/>
      </contour>
    </TTGlyph>
    <TTGlyph name="dcaron" xMin="83" yMin="-23" xMax="1427" yMax="1663">
      <contour>
        <pt x="1227" y="1083" on="1"/>
        <pt x="1286" y="1166" on="0"/>
        <pt x="1286" y="1249" on="1"/>
        <pt x="1286" y="1294" on="0"/>
        <pt x="1256" y="1327" on="0"/>
        <pt x="1220" y="1353" on="0"/>
        <pt x="1190" y="1381" on="0"/>
        <pt x="1190" y="1419" on="0"/>
        <pt x="1214" y="1463" on="0"/>
        <pt x="1232" y="1484" on="1"/>
        <pt x="1277" y="1533" on="0"/>
        <pt x="1322" y="1533" on="1"/>
        <pt x="1359" y="1533" on="0"/>
        <pt x="1394" y="1489" on="1"/>
        <pt x="1427" y="1447" on="0"/>
        <pt x="1427" y="1343" on="0"/>
        <pt x="1407" y="1242" on="0"/>
        <pt x="1391" y="1200" on="1"/>
        <pt x="1331" y="1043" on="0"/>
        <pt x="1200" y="968" on="1"/>
        <pt x="1169" y="1022" on="1"/>
        <pt x="1201" y="1047" on="0"/>
      </contour>
      <contour>
        <pt x="600" y="1013" on="1"/>
        <pt x="725" y="1013" on="0"/>
        <pt x="849" y="964" on="1"/>
        <pt x="849" y="1477" on="1"/>
        <pt x="696" y="1508" on="1"/>
        <pt x="696" y="1589" on="1"/>
        <pt x="1011" y="1663" on="1"/>
        <pt x="1011" y="160" on="1"/>
        <pt x="1011" y="115" on="0"/>
        <pt x="1112" y="115" on="0"/>
        <pt x="1188" y="146" on="1"/>
        <pt x="1209" y="52" on="1"/>
        <pt x="1066" y="-23" on="0"/>
        <pt x="995" y="-23" on="1"/>
        <pt x="892" y="-23" on="0"/>
        <pt x="860" y="44" on="1"/>
        <pt x="849" y="68" on="0"/>
        <pt x="849" y="101" on="1"/>
        <pt x="774" y="35" on="0"/>
        <pt x="604" y="-23" on="0"/>
        <pt x="421" y="-23" on="0"/>
        <pt x="251" y="47" on="0"/>
        <pt x="194" y="112" on="1"/>
        <pt x="83" y="239" on="0"/>
        <pt x="83" y="471" on="1"/>
        <pt x="83" y="693" on="0"/>
        <pt x="214" y="844" on="1"/>
        <pt x="359" y="1013" on="0"/>
      </contour>
      <contour>
        <pt x="600" y="117" on="1"/>
        <pt x="701" y="117" on="0"/>
        <pt x="849" y="212" on="1"/>
        <pt x="849" y="780" on="1"/>
        <pt x="763" y="895" on="0"/>
        <pt x="575" y="895" on="1"/>
        <pt x="430" y="895" on="0"/>
        <pt x="340" y="778" on="1"/>
        <pt x="256" y="667" on="0"/>
        <pt x="256" y="492" on="1"/>
        <pt x="256" y="333" on="0"/>
        <pt x="336" y="231" on="1"/>
        <pt x="424" y="117" on="0"/>
      </contour>
    </TTGlyph>
    <TTGlyph name="dcroat" xMin="83" yMin="-23" xMax="1209" yMax="1663">
      <contour>
        <pt x="593" y="1335" on="1"/>
        <pt x="1132" y="1335" on="1"/>
        <pt x="1132" y="1222" on="1"/>
        <pt x="593" y="1222" on="1"/>
      </contour>
      <contour>
        <pt x="600" y="1013" on="1"/>
        <pt x="725" y="1013" on="0"/>
        <pt x="849" y="964" on="1"/>
        <pt x="849" y="1477" on="1"/>
        <pt x="696" y="1508" on="1"/>
        <pt x="696" y="1589" on="1"/>
        <pt x="1011" y="1663" on="1"/>
        <pt x="1011" y="160" on="1"/>
        <pt x="1011" y="115" on="0"/>
        <pt x="1112" y="115" on="0"/>
        <pt x="1188" y="146" on="1"/>
        <pt x="1209" y="52" on="1"/>
        <pt x="1066" y="-23" on="0"/>
        <pt x="995" y="-23" on="1"/>
        <pt x="892" y="-23" on="0"/>
        <pt x="860" y="44" on="1"/>
        <pt x="849" y="68" on="0"/>
        <pt x="849" y="101" on="1"/>
        <pt x="774" y="35" on="0"/>
        <pt x="604" y="-23" on="0"/>
        <pt x="421" y="-23" on="0"/>
        <pt x="251" y="47" on="0"/>
        <pt x="194" y="112" on="1"/>
        <pt x="83" y="239" on="0"/>
        <pt x="83" y="471" on="1"/>
        <pt x="83" y="693" on="0"/>
        <pt x="214" y="844" on="1"/>
        <pt x="359" y="1013" on="0"/>
      </contour>
      <contour>
        <pt x="600" y="117" on="1"/>
        <pt x="701" y="117" on="0"/>
        <pt x="849" y="212" on="1"/>
        <pt x="849" y="780" on="1"/>
        <pt x="763" y="895" on="0"/>
        <pt x="575" y="895" on="1"/>
        <pt x="430" y="895" on="0"/>
        <pt x="340" y="778" on="1"/>
        <pt x="256" y="667" on="0"/>
        <pt x="256" y="492" on="1"/>
        <pt x="256" y="333" on="0"/>
        <pt x="336" y="231" on="1"/>
        <pt x="424" y="117" on="0"/>
      </contour>
    </TTGlyph>
    <TTGlyph name="degree" xMin="108" yMin="906" xMax="744" yMax="1531">
      <contour>
        <pt x="108" y="1220" on="1"/>
        <pt x="108" y="1359" on="0"/>
        <pt x="202" y="1446" on="1"/>
        <pt x="293" y="1531" on="0"/>
        <pt x="559" y="1531" on="0"/>
        <pt x="650" y="1446" on="1"/>
        <pt x="744" y="1359" on="0"/>
        <pt x="744" y="1220" on="1"/>
        <pt x="744" y="1080" on="0"/>
        <pt x="650" y="991" on="1"/>
        <pt x="559" y="906" on="0"/>
        <pt x="426" y="906" on="1"/>
        <pt x="294" y="906" on="0"/>
        <pt x="202" y="992" on="1"/>
        <pt x="108" y="1081" on="0"/>
      </contour>
      <contour>
        <pt x="243" y="1307" on="1"/>
        <pt x="228" y="1268" on="0"/>
        <pt x="228" y="1170" on="0"/>
        <pt x="258" y="1090" on="0"/>
        <pt x="284" y="1062" on="1"/>
        <pt x="337" y="1003" on="0"/>
        <pt x="426" y="1003" on="1"/>
        <pt x="512" y="1003" on="0"/>
        <pt x="568" y="1062" on="1"/>
        <pt x="624" y="1122" on="0"/>
        <pt x="624" y="1220" on="1"/>
        <pt x="624" y="1314" on="0"/>
        <pt x="568" y="1374" on="1"/>
        <pt x="512" y="1434" on="0"/>
        <pt x="426" y="1434" on="1"/>
        <pt x="292" y="1434" on="0"/>
      </contour>
    </TTGlyph>
    <TTGlyph name="dieresis" xMin="141" yMin="1116" xMax="761" yMax="1359">
      <contour>
        <pt x="168" y="1174" on="0"/>
        <pt x="141" y="1217" on="0"/>
        <pt x="141" y="1253" on="0"/>
        <pt x="165" y="1296" on="0"/>
        <pt x="183" y="1314" on="1"/>
        <pt x="226" y="1359" on="0"/>
        <pt x="280" y="1359" on="0"/>
        <pt x="324" y="1335" on="0"/>
        <pt x="342" y="1316" on="1"/>
        <pt x="384" y="1273" on="0"/>
        <pt x="384" y="1218" on="0"/>
        <pt x="359" y="1176" on="0"/>
        <pt x="340" y="1158" on="1"/>
        <pt x="297" y="1116" on="0"/>
        <pt x="246" y="1116" on="0"/>
        <pt x="205" y="1139" on="0"/>
      </contour>
      <contour>
        <pt x="545" y="1174" on="0"/>
        <pt x="519" y="1217" on="0"/>
        <pt x="519" y="1253" on="0"/>
        <pt x="542" y="1296" on="0"/>
        <pt x="560" y="1314" on="1"/>
        <pt x="603" y="1359" on="0"/>
        <pt x="657" y="1359" on="0"/>
        <pt x="701" y="1335" on="0"/>
        <pt x="719" y="1316" on="1"/>
        <pt x="761" y="1273" on="0"/>
        <pt x="761" y="1218" on="0"/>
        <pt x="737" y="1176" on="0"/>
        <pt x="718" y="1158" on="1"/>
        <pt x="675" y="1116" on="0"/>
        <pt x="623" y="1116" on="0"/>
        <pt x="582" y="1139" on="0"/>
      </contour>
    </TTGlyph>
    <TTGlyph name="dieresis.cap" xMin="-26" yMin="1757" xMax="593" yMax="2000">
      <contour>
        <pt x="0" y="1815" on="0"/>
        <pt x="-26" y="1857" on="0"/>
        <pt x="-26" y="1894" on="0"/>
        <pt x="-2" y="1937" on="0"/>
        <pt x="16" y="1956" on="1"/>
        <pt x="59" y="2000" on="0"/>
        <pt x="113" y="2000" on="0"/>
        <pt x="156" y="1975" on="0"/>
        <pt x="174" y="1956" on="1"/>
        <pt x="216" y="1913" on="0"/>
        <pt x="216" y="1858" on="0"/>
        <pt x="192" y="1816" on="0"/>
        <pt x="174" y="1798" on="1"/>
        <pt x="133" y="1757" on="0"/>
        <pt x="94" y="1757" on="1"/>
        <pt x="63" y="1757" on="0"/>
      </contour>
      <contour>
        <pt x="377" y="1815" on="0"/>
        <pt x="351" y="1857" on="0"/>
        <pt x="351" y="1894" on="0"/>
        <pt x="375" y="1937" on="0"/>
        <pt x="393" y="1956" on="1"/>
        <pt x="436" y="2000" on="0"/>
        <pt x="490" y="2000" on="0"/>
        <pt x="533" y="1975" on="0"/>
        <pt x="551" y="1956" on="1"/>
        <pt x="593" y="1913" on="0"/>
        <pt x="593" y="1858" on="0"/>
        <pt x="569" y="1816" on="0"/>
        <pt x="551" y="1798" on="1"/>
        <pt x="510" y="1757" on="0"/>
        <pt x="471" y="1757" on="1"/>
        <pt x="440" y="1757" on="0"/>
      </contour>
    </TTGlyph>
    <TTGlyph name="divide" xMin="139" yMin="245" xMax="1223" yMax="1281">
      <component glyphName="colon" x="424" y="268" flags="0x1004"/>
      <component glyphName="minus" x="0" y="0" flags="0x1004"/>
    </TTGlyph>
    <TTGlyph name="dollar" xMin="97" yMin="-182" xMax="1098" yMax="1663">
      <contour>
        <pt x="676" y="1519" on="1"/>
        <pt x="861" y="1498" on="0"/>
        <pt x="987" y="1404" on="1"/>
        <pt x="952" y="1140" on="1"/>
        <pt x="867" y="1140" on="1"/>
        <pt x="867" y="1279" on="0"/>
        <pt x="813" y="1340" on="1"/>
        <pt x="755" y="1404" on="0"/>
        <pt x="617" y="1404" on="1"/>
        <pt x="427" y="1404" on="0"/>
        <pt x="362" y="1282" on="1"/>
        <pt x="341" y="1242" on="0"/>
        <pt x="341" y="1155" on="0"/>
        <pt x="352" y="1102" on="0"/>
        <pt x="383" y="1053" on="0"/>
        <pt x="435" y="1005" on="0"/>
        <pt x="476" y="978" on="1"/>
        <pt x="549" y="929" on="0"/>
        <pt x="829" y="789" on="0"/>
        <pt x="978" y="680" on="0"/>
        <pt x="1022" y="626" on="1"/>
        <pt x="1098" y="530" on="0"/>
        <pt x="1098" y="393" on="1"/>
        <pt x="1098" y="167" on="0"/>
        <pt x="856" y="46" on="1"/>
        <pt x="758" y="-3" on="0"/>
        <pt x="649" y="-18" on="1"/>
        <pt x="649" y="-182" on="1"/>
        <pt x="544" y="-182" on="1"/>
        <pt x="544" y="-21" on="1"/>
        <pt x="362" y="-11" on="0"/>
        <pt x="215" y="72" on="1"/>
        <pt x="147" y="108" on="0"/>
        <pt x="97" y="153" on="1"/>
        <pt x="139" y="438" on="1"/>
        <pt x="226" y="438" on="1"/>
        <pt x="226" y="94" on="0"/>
        <pt x="575" y="94" on="1"/>
        <pt x="717" y="94" on="0"/>
        <pt x="812" y="166" on="1"/>
        <pt x="907" y="237" on="0"/>
        <pt x="907" y="344" on="1"/>
        <pt x="907" y="448" on="0"/>
        <pt x="840" y="518" on="1"/>
        <pt x="772" y="588" on="0"/>
        <pt x="450" y="747" on="0"/>
        <pt x="284" y="857" on="0"/>
        <pt x="236" y="911" on="1"/>
        <pt x="153" y="1006" on="0"/>
        <pt x="153" y="1147" on="1"/>
        <pt x="153" y="1307" on="0"/>
        <pt x="277" y="1414" on="1"/>
        <pt x="393" y="1514" on="0"/>
        <pt x="570" y="1524" on="1"/>
        <pt x="570" y="1663" on="1"/>
        <pt x="676" y="1663" on="1"/>
      </contour>
    </TTGlyph>
    <TTGlyph name="dotaccent" xMin="57" yMin="1279" xMax="288" yMax="1524">
      <contour>
        <pt x="77" y="1336" on="0"/>
        <pt x="57" y="1380" on="0"/>
        <pt x="57" y="1423" on="0"/>
        <pt x="77" y="1466" on="0"/>
        <pt x="94" y="1484" on="1"/>
        <pt x="130" y="1524" on="0"/>
        <pt x="191" y="1524" on="0"/>
        <pt x="234" y="1502" on="0"/>
        <pt x="250" y="1484" on="1"/>
        <pt x="288" y="1443" on="0"/>
        <pt x="288" y="1380" on="0"/>
        <pt x="267" y="1336" on="0"/>
        <pt x="250" y="1318" on="1"/>
        <pt x="213" y="1279" on="0"/>
        <pt x="150" y="1279" on="0"/>
        <pt x="110" y="1301" on="0"/>
      </contour>
    </TTGlyph>
    <TTGlyph name="dotaccent.cap" xMin="158" yMin="1755" xMax="389" yMax="2000">
      <contour>
        <pt x="178" y="1812" on="0"/>
        <pt x="158" y="1856" on="0"/>
        <pt x="158" y="1899" on="0"/>
        <pt x="178" y="1942" on="0"/>
        <pt x="194" y="1960" on="1"/>
        <pt x="231" y="2000" on="0"/>
        <pt x="292" y="2000" on="0"/>
        <pt x="335" y="1978" on="0"/>
        <pt x="352" y="1960" on="1"/>
        <pt x="389" y="1919" on="0"/>
        <pt x="389" y="1856" on="0"/>
        <pt x="368" y="1812" on="0"/>
        <pt x="352" y="1794" on="1"/>
        <pt x="314" y="1755" on="0"/>
        <pt x="251" y="1755" on="0"/>
        <pt x="211" y="1777" on="0"/>
      </contour>
    </TTGlyph>
    <TTGlyph name="dotlessi" xMin="50" yMin="0" xMax="470" yMax="1013">
      <contour>
        <pt x="342" y="106" on="1"/>
        <pt x="470" y="83" on="1"/>
        <pt x="470" y="0" on="1"/>
        <pt x="50" y="0" on="1"/>
        <pt x="50" y="83" on="1"/>
        <pt x="180" y="106" on="1"/>
        <pt x="180" y="834" on="1"/>
        <pt x="50" y="857" on="1"/>
        <pt x="50" y="940" on="1"/>
        <pt x="342" y="1013" on="1"/>
      </contour>
    </TTGlyph>
    <TTGlyph name="dotlessj" xMin="-174" yMin="-486" xMax="338" yMax="1013">
      <contour>
        <pt x="-5" y="-337" on="1"/>
        <pt x="176" y="-337" on="0"/>
        <pt x="176" y="9" on="1"/>
        <pt x="176" y="834" on="1"/>
        <pt x="46" y="857" on="1"/>
        <pt x="46" y="940" on="1"/>
        <pt x="338" y="1013" on="1"/>
        <pt x="338" y="167" on="1"/>
        <pt x="338" y="-18" on="0"/>
        <pt x="282" y="-208" on="0"/>
        <pt x="217" y="-322" on="0"/>
        <pt x="118" y="-430" on="0"/>
        <pt x="15" y="-486" on="0"/>
        <pt x="-21" y="-486" on="1"/>
        <pt x="-118" y="-486" on="0"/>
        <pt x="-174" y="-463" on="1"/>
        <pt x="-120" y="-276" on="1"/>
        <pt x="-80" y="-276" on="1"/>
        <pt x="-80" y="-311" on="0"/>
        <pt x="-37" y="-330" on="1"/>
        <pt x="-23" y="-337" on="0"/>
      </contour>
    </TTGlyph>
    <TTGlyph name="e" xMin="71" yMin="-23" xMax="949" yMax="1013">
      <contour>
        <pt x="882" y="229" on="1"/>
        <pt x="939" y="164" on="1"/>
        <pt x="780" y="21" on="0"/>
        <pt x="631" y="-15" on="1"/>
        <pt x="598" y="-23" on="0"/>
        <pt x="566" y="-23" on="1"/>
        <pt x="346" y="-23" on="0"/>
        <pt x="208" y="116" on="1"/>
        <pt x="71" y="252" on="0"/>
        <pt x="71" y="471" on="1"/>
        <pt x="71" y="689" on="0"/>
        <pt x="200" y="844" on="1"/>
        <pt x="342" y="1013" on="0"/>
        <pt x="569" y="1013" on="1"/>
        <pt x="726" y="1013" on="0"/>
        <pt x="834" y="900" on="1"/>
        <pt x="949" y="782" on="0"/>
        <pt x="949" y="593" on="1"/>
        <pt x="902" y="551" on="1"/>
        <pt x="250" y="504" on="1"/>
        <pt x="252" y="322" on="0"/>
        <pt x="368" y="213" on="1"/>
        <pt x="472" y="117" on="0"/>
        <pt x="748" y="117" on="0"/>
      </contour>
      <contour>
        <pt x="257" y="598" on="1"/>
        <pt x="771" y="645" on="1"/>
        <pt x="764" y="811" on="0"/>
        <pt x="643" y="873" on="1"/>
        <pt x="600" y="895" on="0"/>
        <pt x="466" y="895" on="0"/>
        <pt x="361" y="829" on="0"/>
        <pt x="327" y="782" on="1"/>
        <pt x="262" y="693" on="0"/>
      </contour>
    </TTGlyph>
    <TTGlyph name="eacute" xMin="71" yMin="-23" xMax="949" yMax="1560">
      <component glyphName="e" x="0" y="0" flags="0x1204"/>
      <component glyphName="acute" x="221" y="0" flags="0x1004"/>
    </TTGlyph>
    <TTGlyph name="ebreve" xMin="71" yMin="-23" xMax="949" yMax="1562">
      <component glyphName="e" x="0" y="0" flags="0x1204"/>
      <component glyphName="breve" x="122" y="0" flags="0x1004"/>
    </TTGlyph>
    <TTGlyph name="ecaron" xMin="71" yMin="-23" xMax="949" yMax="1531">
      <component glyphName="e" x="0" y="0" flags="0x1204"/>
      <component glyphName="caron" x="131" y="0" flags="0x1004"/>
    </TTGlyph>
    <TTGlyph name="ecircumflex" xMin="71" yMin="-23" xMax="949" yMax="1529">
      <component glyphName="e" x="0" y="0" flags="0x1204"/>
      <component glyphName="circumflex" x="131" y="0" flags="0x1004"/>
    </TTGlyph>
    <TTGlyph name="edieresis" xMin="71" yMin="-23" xMax="949" yMax="1359">
      <component glyphName="e" x="0" y="0" flags="0x1204"/>
      <component glyphName="dieresis" x="94" y="0" flags="0x1004"/>
    </TTGlyph>
    <TTGlyph name="edotaccent" xMin="71" yMin="-23" xMax="949" yMax="1524">
      <component glyphName="e" x="0" y="0" flags="0x1204"/>
      <component glyphName="dotaccent" x="373" y="0" flags="0x1004"/>
    </TTGlyph>
    <TTGlyph name="egrave" xMin="71" yMin="-23" xMax="949" yMax="1561">
      <component glyphName="e" x="0" y="0" flags="0x1204"/>
      <component glyphName="grave" x="268" y="0" flags="0x1004"/>
    </TTGlyph>
    <TTGlyph name="eight" xMin="205" yMin="-23" xMax="1160" yMax="1524">
      <contour>
        <pt x="446" y="1302" on="1"/>
        <pt x="425" y="1265" on="0"/>
        <pt x="425" y="1157" on="0"/>
        <pt x="488" y="1056" on="0"/>
        <pt x="592" y="963" on="0"/>
        <pt x="658" y="918" on="1"/>
        <pt x="792" y="828" on="1"/>
        <pt x="971" y="708" on="0"/>
        <pt x="1097" y="570" on="0"/>
        <pt x="1160" y="439" on="0"/>
        <pt x="1160" y="332" on="0"/>
        <pt x="1143" y="253" on="0"/>
        <pt x="1102" y="168" on="0"/>
        <pt x="1030" y="84" on="0"/>
        <pt x="976" y="51" on="1"/>
        <pt x="853" y="-23" on="0"/>
        <pt x="667" y="-23" on="1"/>
        <pt x="450" y="-23" on="0"/>
        <pt x="324" y="88" on="1"/>
        <pt x="205" y="193" on="0"/>
        <pt x="205" y="360" on="1"/>
        <pt x="205" y="526" on="0"/>
        <pt x="339" y="653" on="1"/>
        <pt x="397" y="708" on="0"/>
        <pt x="466" y="748" on="1"/>
        <pt x="466" y="748" on="0"/>
        <pt x="595" y="822" on="1"/>
        <pt x="672" y="741" on="1"/>
        <pt x="524" y="663" on="0"/>
        <pt x="472" y="611" on="1"/>
        <pt x="363" y="502" on="0"/>
        <pt x="363" y="360" on="1"/>
        <pt x="363" y="255" on="0"/>
        <pt x="440" y="176" on="1"/>
        <pt x="529" y="83" on="0"/>
        <pt x="677" y="83" on="1"/>
        <pt x="821" y="83" on="0"/>
        <pt x="905" y="169" on="1"/>
        <pt x="974" y="240" on="0"/>
        <pt x="974" y="395" on="0"/>
        <pt x="912" y="502" on="0"/>
        <pt x="812" y="599" on="0"/>
        <pt x="748" y="644" on="1"/>
        <pt x="526" y="795" on="0"/>
        <pt x="419" y="873" on="0"/>
        <pt x="369" y="925" on="1"/>
        <pt x="257" y="1041" on="0"/>
        <pt x="257" y="1166" on="1"/>
        <pt x="257" y="1323" on="0"/>
        <pt x="383" y="1425" on="1"/>
        <pt x="505" y="1524" on="0"/>
        <pt x="677" y="1524" on="1"/>
        <pt x="891" y="1524" on="0"/>
        <pt x="1002" y="1420" on="1"/>
        <pt x="1098" y="1331" on="0"/>
        <pt x="1098" y="1194" on="1"/>
        <pt x="1098" y="993" on="0"/>
        <pt x="792" y="813" on="1"/>
        <pt x="698" y="877" on="1"/>
        <pt x="787" y="933" on="1"/>
        <pt x="889" y="996" on="0"/>
        <pt x="929" y="1080" on="1"/>
        <pt x="952" y="1128" on="0"/>
        <pt x="952" y="1258" on="0"/>
        <pt x="904" y="1341" on="0"/>
        <pt x="866" y="1367" on="1"/>
        <pt x="794" y="1416" on="0"/>
        <pt x="687" y="1416" on="1"/>
        <pt x="508" y="1416" on="0"/>
      </contour>
    </TTGlyph>
    <TTGlyph name="ellipsis" xMin="127" yMin="-23" xMax="1408" yMax="233">
      <contour>
        <pt x="155" y="38" on="0"/>
        <pt x="127" y="83" on="0"/>
        <pt x="127" y="121" on="0"/>
        <pt x="152" y="166" on="0"/>
        <pt x="171" y="186" on="1"/>
        <pt x="216" y="233" on="0"/>
        <pt x="255" y="233" on="1"/>
        <pt x="296" y="233" on="0"/>
        <pt x="327" y="200" on="1"/>
        <pt x="384" y="142" on="0"/>
        <pt x="384" y="103" on="1"/>
        <pt x="384" y="66" on="0"/>
        <pt x="352" y="34" on="1"/>
        <pt x="295" y="-23" on="0"/>
        <pt x="255" y="-23" on="1"/>
        <pt x="221" y="-23" on="0"/>
      </contour>
      <contour>
        <pt x="667" y="38" on="0"/>
        <pt x="639" y="83" on="0"/>
        <pt x="639" y="121" on="0"/>
        <pt x="664" y="166" on="0"/>
        <pt x="683" y="186" on="1"/>
        <pt x="728" y="233" on="0"/>
        <pt x="767" y="233" on="1"/>
        <pt x="808" y="233" on="0"/>
        <pt x="839" y="200" on="1"/>
        <pt x="896" y="142" on="0"/>
        <pt x="896" y="103" on="1"/>
        <pt x="896" y="66" on="0"/>
        <pt x="864" y="34" on="1"/>
        <pt x="807" y="-23" on="0"/>
        <pt x="767" y="-23" on="1"/>
        <pt x="733" y="-23" on="0"/>
      </contour>
      <contour>
        <pt x="1179" y="38" on="0"/>
        <pt x="1151" y="83" on="0"/>
        <pt x="1151" y="121" on="0"/>
        <pt x="1176" y="166" on="0"/>
        <pt x="1195" y="186" on="1"/>
        <pt x="1240" y="233" on="0"/>
        <pt x="1279" y="233" on="1"/>
        <pt x="1320" y="233" on="0"/>
        <pt x="1351" y="200" on="1"/>
        <pt x="1408" y="142" on="0"/>
        <pt x="1408" y="103" on="1"/>
        <pt x="1408" y="66" on="0"/>
        <pt x="1376" y="34" on="1"/>
        <pt x="1319" y="-23" on="0"/>
        <pt x="1279" y="-23" on="1"/>
        <pt x="1245" y="-23" on="0"/>
      </contour>
    </TTGlyph>
    <TTGlyph name="emacron" xMin="71" yMin="-23" xMax="949" yMax="1337">
      <component glyphName="e" x="0" y="0" flags="0x1204"/>
      <component glyphName="macron" x="-37" y="0" flags="0x1004"/>
    </TTGlyph>
    <TTGlyph name="emdash" xMin="175" yMin="530" xMax="2381" yMax="660">
      <contour>
        <pt x="176" y="660" on="1"/>
        <pt x="2381" y="660" on="1"/>
        <pt x="2381" y="530" on="1"/>
        <pt x="175" y="530" on="1"/>
      </contour>
    </TTGlyph>
    <TTGlyph name="endash" xMin="174" yMin="530" xMax="1184" yMax="660">
      <contour>
        <pt x="175" y="660" on="1"/>
        <pt x="1184" y="660" on="1"/>
        <pt x="1184" y="530" on="1"/>
        <pt x="174" y="530" on="1"/>
      </contour>
    </TTGlyph>
    <TTGlyph name="eng" xMin="72" yMin="-560" xMax="1015" yMax="1013">
      <contour>
        <pt x="672" y="883" on="1"/>
        <pt x="519" y="883" on="0"/>
        <pt x="365" y="777" on="1"/>
        <pt x="365" y="106" on="1"/>
        <pt x="492" y="83" on="1"/>
        <pt x="492" y="0" on="1"/>
        <pt x="72" y="0" on="1"/>
        <pt x="72" y="83" on="1"/>
        <pt x="202" y="106" on="1"/>
        <pt x="202" y="834" on="1"/>
        <pt x="72" y="857" on="1"/>
        <pt x="72" y="940" on="1"/>
        <pt x="348" y="1013" on="1"/>
        <pt x="348" y="883" on="1"/>
        <pt x="550" y="1013" on="0"/>
        <pt x="723" y="1013" on="1"/>
        <pt x="931" y="1013" on="0"/>
        <pt x="994" y="840" on="1"/>
        <pt x="1015" y="782" on="0"/>
        <pt x="1015" y="704" on="1"/>
        <pt x="1015" y="106" on="1"/>
        <pt x="852" y="106" on="1"/>
        <pt x="852" y="685" on="1"/>
        <pt x="852" y="883" on="0"/>
      </contour>
      <contour>
        <pt x="639" y="-404" on="1"/>
        <pt x="653" y="-411" on="0"/>
        <pt x="717" y="-411" on="0"/>
        <pt x="785" y="-384" on="0"/>
        <pt x="808" y="-350" on="1"/>
        <pt x="852" y="-284" on="0"/>
        <pt x="852" y="-115" on="1"/>
        <pt x="852" y="106" on="1"/>
        <pt x="930" y="170" on="1"/>
        <pt x="1015" y="106" on="1"/>
        <pt x="1014" y="92" on="1"/>
        <pt x="1014" y="-90" on="0"/>
        <pt x="951" y="-282" on="0"/>
        <pt x="883" y="-396" on="0"/>
        <pt x="834" y="-450" on="1"/>
        <pt x="733" y="-560" on="0"/>
        <pt x="657" y="-560" on="1"/>
        <pt x="558" y="-560" on="0"/>
        <pt x="502" y="-537" on="1"/>
        <pt x="556" y="-350" on="1"/>
        <pt x="596" y="-350" on="1"/>
        <pt x="596" y="-385" on="0"/>
      </contour>
    </TTGlyph>
    <TTGlyph name="eogonek" xMin="71" yMin="-436" xMax="949" yMax="1013">
      <contour>
        <pt x="919" y="-396" on="1"/>
        <pt x="868" y="-436" on="0"/>
        <pt x="774" y="-436" on="1"/>
        <pt x="682" y="-436" on="0"/>
        <pt x="617" y="-387" on="1"/>
        <pt x="543" y="-331" on="0"/>
        <pt x="543" y="-235" on="1"/>
        <pt x="543" y="-158" on="0"/>
        <pt x="592" y="-76" on="1"/>
        <pt x="636" y="-4" on="0"/>
        <pt x="676" y="10" on="1"/>
        <pt x="686" y="36" on="0"/>
        <pt x="778" y="72" on="1"/>
        <pt x="827" y="91" on="1"/>
        <pt x="726" y="-7" on="0"/>
        <pt x="695" y="-131" on="1"/>
        <pt x="686" y="-167" on="0"/>
        <pt x="686" y="-244" on="0"/>
        <pt x="725" y="-301" on="0"/>
        <pt x="781" y="-301" on="0"/>
        <pt x="809" y="-288" on="0"/>
        <pt x="819" y="-279" on="1"/>
        <pt x="839" y="-261" on="0"/>
        <pt x="839" y="-239" on="1"/>
        <pt x="880" y="-239" on="1"/>
      </contour>
      <contour>
        <pt x="882" y="229" on="1"/>
        <pt x="939" y="164" on="1"/>
        <pt x="780" y="21" on="0"/>
        <pt x="631" y="-15" on="1"/>
        <pt x="598" y="-23" on="0"/>
        <pt x="566" y="-23" on="1"/>
        <pt x="346" y="-23" on="0"/>
        <pt x="208" y="116" on="1"/>
        <pt x="71" y="252" on="0"/>
        <pt x="71" y="471" on="1"/>
        <pt x="71" y="689" on="0"/>
        <pt x="200" y="844" on="1"/>
        <pt x="342" y="1013" on="0"/>
        <pt x="569" y="1013" on="1"/>
        <pt x="726" y="1013" on="0"/>
        <pt x="834" y="900" on="1"/>
        <pt x="949" y="782" on="0"/>
        <pt x="949" y="593" on="1"/>
        <pt x="902" y="551" on="1"/>
        <pt x="250" y="504" on="1"/>
        <pt x="252" y="322" on="0"/>
        <pt x="368" y="213" on="1"/>
        <pt x="472" y="117" on="0"/>
        <pt x="748" y="117" on="0"/>
      </contour>
      <contour>
        <pt x="257" y="598" on="1"/>
        <pt x="771" y="645" on="1"/>
        <pt x="764" y="811" on="0"/>
        <pt x="643" y="873" on="1"/>
        <pt x="600" y="895" on="0"/>
        <pt x="466" y="895" on="0"/>
        <pt x="361" y="829" on="0"/>
        <pt x="327" y="782" on="1"/>
        <pt x="262" y="693" on="0"/>
      </contour>
    </TTGlyph>
    <TTGlyph name="equal" xMin="139" yMin="506" xMax="1223" yMax="1013">
      <contour>
        <pt x="1223" y="612" on="1"/>
        <pt x="1223" y="506" on="1"/>
        <pt x="139" y="506" on="1"/>
        <pt x="139" y="612" on="1"/>
      </contour>
      <contour>
        <pt x="1223" y="1013" on="1"/>
        <pt x="1223" y="906" on="1"/>
        <pt x="139" y="906" on="1"/>
        <pt x="139" y="1013" on="1"/>
      </contour>
    </TTGlyph>
    <TTGlyph name="eth" xMin="131" yMin="-23" xMax="1082" yMax="1647">
      <contour>
        <pt x="415" y="1634" on="1"/>
        <pt x="538" y="1560" on="0"/>
        <pt x="658" y="1436" on="1"/>
        <pt x="871" y="1647" on="1"/>
        <pt x="917" y="1566" on="1"/>
        <pt x="719" y="1378" on="1"/>
        <pt x="972" y="1096" on="0"/>
        <pt x="1055" y="744" on="1"/>
        <pt x="1082" y="629" on="0"/>
        <pt x="1082" y="395" on="0"/>
        <pt x="1014" y="195" on="0"/>
        <pt x="953" y="124" on="1"/>
        <pt x="825" y="-23" on="0"/>
        <pt x="622" y="-23" on="1"/>
        <pt x="388" y="-23" on="0"/>
        <pt x="255" y="122" on="1"/>
        <pt x="131" y="256" on="0"/>
        <pt x="131" y="478" on="1"/>
        <pt x="131" y="718" on="0"/>
        <pt x="272" y="868" on="1"/>
        <pt x="409" y="1013" on="0"/>
        <pt x="613" y="1013" on="1"/>
        <pt x="707" y="1013" on="0"/>
        <pt x="849" y="942" on="1"/>
        <pt x="783" y="1114" on="0"/>
        <pt x="633" y="1290" on="1"/>
        <pt x="422" y="1083" on="1"/>
        <pt x="375" y="1159" on="1"/>
        <pt x="576" y="1357" on="1"/>
        <pt x="436" y="1497" on="0"/>
        <pt x="359" y="1566" on="1"/>
      </contour>
      <contour>
        <pt x="620" y="94" on="1"/>
        <pt x="909" y="94" on="0"/>
        <pt x="909" y="459" on="1"/>
        <pt x="909" y="661" on="0"/>
        <pt x="864" y="758" on="1"/>
        <pt x="799" y="895" on="0"/>
        <pt x="611" y="895" on="1"/>
        <pt x="465" y="895" on="0"/>
        <pt x="382" y="784" on="1"/>
        <pt x="306" y="682" on="0"/>
        <pt x="306" y="516" on="1"/>
        <pt x="306" y="342" on="0"/>
        <pt x="388" y="222" on="1"/>
        <pt x="476" y="94" on="0"/>
      </contour>
    </TTGlyph>
    <TTGlyph name="exclam" xMin="127" yMin="-23" xMax="385" yMax="1601">
      <contour>
        <pt x="243" y="1601" on="1"/>
        <pt x="284" y="1601" on="0"/>
        <pt x="338" y="1592" on="1"/>
        <pt x="338" y="1184" on="0"/>
        <pt x="326" y="1005" on="1"/>
        <pt x="292" y="519" on="0"/>
        <pt x="288" y="389" on="1"/>
        <pt x="210" y="389" on="1"/>
        <pt x="202" y="570" on="0"/>
        <pt x="192" y="706" on="1"/>
        <pt x="176" y="924" on="1"/>
        <pt x="156" y="1203" on="0"/>
        <pt x="156" y="1592" on="1"/>
        <pt x="197" y="1601" on="0"/>
      </contour>
      <contour>
        <pt x="155" y="38" on="0"/>
        <pt x="127" y="83" on="0"/>
        <pt x="127" y="121" on="0"/>
        <pt x="152" y="166" on="0"/>
        <pt x="172" y="186" on="1"/>
        <pt x="217" y="233" on="0"/>
        <pt x="255" y="233" on="1"/>
        <pt x="295" y="233" on="0"/>
        <pt x="328" y="200" on="1"/>
        <pt x="385" y="143" on="0"/>
        <pt x="385" y="103" on="1"/>
        <pt x="385" y="65" on="0"/>
        <pt x="352" y="34" on="1"/>
        <pt x="294" y="-23" on="0"/>
        <pt x="255" y="-23" on="1"/>
        <pt x="221" y="-23" on="0"/>
      </contour>
    </TTGlyph>
    <TTGlyph name="exclamdown" xMin="127" yMin="-560" xMax="385" yMax="1011">
      <contour>
        <pt x="357" y="948" on="0"/>
        <pt x="385" y="903" on="0"/>
        <pt x="385" y="865" on="0"/>
        <pt x="360" y="820" on="0"/>
        <pt x="340" y="800" on="1"/>
        <pt x="295" y="753" on="0"/>
        <pt x="237" y="753" on="0"/>
        <pt x="191" y="779" on="0"/>
        <pt x="172" y="798" on="1"/>
        <pt x="127" y="843" on="0"/>
        <pt x="127" y="902" on="0"/>
        <pt x="153" y="947" on="0"/>
        <pt x="172" y="966" on="1"/>
        <pt x="217" y="1011" on="0"/>
        <pt x="257" y="1011" on="1"/>
        <pt x="291" y="1011" on="0"/>
      </contour>
      <contour>
        <pt x="174" y="-560" on="1"/>
        <pt x="174" y="-153" on="0"/>
        <pt x="192" y="-49" on="1"/>
        <pt x="192" y="-17" on="0"/>
        <pt x="198" y="78" on="1"/>
        <pt x="208" y="234" on="1"/>
        <pt x="224" y="484" on="0"/>
        <pt x="224" y="598" on="1"/>
        <pt x="302" y="598" on="1"/>
        <pt x="302" y="458" on="0"/>
        <pt x="325" y="171" on="0"/>
        <pt x="329" y="116" on="1"/>
        <pt x="338" y="-6" on="0"/>
        <pt x="338" y="-49" on="1"/>
        <pt x="356" y="-146" on="0"/>
        <pt x="356" y="-513" on="1"/>
      </contour>
    </TTGlyph>
    <TTGlyph name="f" xMin="47" yMin="0" xMax="809" yMax="1663">
      <contour>
        <pt x="347" y="110" on="1"/>
        <pt x="564" y="83" on="1"/>
        <pt x="564" y="0" on="1"/>
        <pt x="47" y="0" on="1"/>
        <pt x="47" y="83" on="1"/>
        <pt x="185" y="106" on="1"/>
        <pt x="185" y="876" on="1"/>
        <pt x="47" y="876" on="1"/>
        <pt x="47" y="959" on="1"/>
        <pt x="185" y="989" on="1"/>
        <pt x="185" y="1201" on="1"/>
        <pt x="185" y="1358" on="0"/>
        <pt x="282" y="1500" on="1"/>
        <pt x="393" y="1663" on="0"/>
        <pt x="573" y="1663" on="1"/>
        <pt x="688" y="1663" on="0"/>
        <pt x="761" y="1617" on="1"/>
        <pt x="793" y="1597" on="0"/>
        <pt x="809" y="1571" on="1"/>
        <pt x="741" y="1394" on="1"/>
        <pt x="676" y="1394" on="1"/>
        <pt x="676" y="1494" on="0"/>
        <pt x="606" y="1530" on="1"/>
        <pt x="581" y="1544" on="0"/>
        <pt x="504" y="1544" on="0"/>
        <pt x="433" y="1511" on="0"/>
        <pt x="406" y="1477" on="1"/>
        <pt x="347" y="1403" on="0"/>
        <pt x="347" y="1270" on="1"/>
        <pt x="347" y="989" on="1"/>
        <pt x="651" y="989" on="1"/>
        <pt x="651" y="872" on="1"/>
        <pt x="347" y="872" on="1"/>
      </contour>
    </TTGlyph>
    <TTGlyph name="ff" xMin="47" yMin="0" xMax="1499" yMax="1663">
      <component glyphName="f" x="0" y="0" flags="0x1004"/>
      <component glyphName="f" x="690" y="0" flags="0x1004"/>
    </TTGlyph>
    <TTGlyph name="fi" xMin="47" yMin="0" xMax="1160" yMax="1663">
      <component glyphName="f" x="0" y="0" flags="0x1004"/>
      <component glyphName="i" x="690" y="0" flags="0x1004"/>
    </TTGlyph>
    <TTGlyph name="five" xMin="190" yMin="-562" xMax="1004" yMax="1076">
      <contour>
        <pt x="361" y="471" on="1"/>
        <pt x="389" y="473" on="0"/>
        <pt x="536" y="473" on="0"/>
        <pt x="749" y="414" on="0"/>
        <pt x="830" y="354" on="1"/>
        <pt x="1004" y="224" on="0"/>
        <pt x="1004" y="-10" on="1"/>
        <pt x="1004" y="-238" on="0"/>
        <pt x="816" y="-390" on="1"/>
        <pt x="602" y="-562" on="0"/>
        <pt x="210" y="-559" on="1"/>
        <pt x="190" y="-458" on="1"/>
        <pt x="491" y="-458" on="0"/>
        <pt x="658" y="-342" on="1"/>
        <pt x="829" y="-223" on="0"/>
        <pt x="829" y="-4" on="1"/>
        <pt x="829" y="134" on="0"/>
        <pt x="701" y="221" on="1"/>
        <pt x="565" y="314" on="0"/>
        <pt x="339" y="314" on="1"/>
        <pt x="296" y="314" on="0"/>
        <pt x="248" y="310" on="1"/>
        <pt x="330" y="989" on="1"/>
        <pt x="809" y="989" on="1"/>
        <pt x="844" y="1076" on="1"/>
        <pt x="937" y="1076" on="1"/>
        <pt x="910" y="836" on="1"/>
        <pt x="405" y="836" on="1"/>
      </contour>
    </TTGlyph>
    <TTGlyph name="fl" xMin="47" yMin="0" xMax="1153" yMax="1663">
      <component glyphName="f" x="0" y="0" flags="0x1004"/>
      <component glyphName="l" x="690" y="0" flags="0x1004"/>
    </TTGlyph>
    <TTGlyph name="florin" xMin="127" yMin="-330" xMax="953" yMax="1663">
      <contour>
        <pt x="289" y="-330" on="1"/>
        <pt x="127" y="-330" on="1"/>
        <pt x="249" y="876" on="1"/>
        <pt x="127" y="876" on="1"/>
        <pt x="127" y="959" on="1"/>
        <pt x="260" y="989" on="1"/>
        <pt x="282" y="1201" on="1"/>
        <pt x="296" y="1355" on="0"/>
        <pt x="414" y="1500" on="1"/>
        <pt x="548" y="1663" on="0"/>
        <pt x="727" y="1663" on="1"/>
        <pt x="842" y="1663" on="0"/>
        <pt x="910" y="1617" on="1"/>
        <pt x="939" y="1597" on="0"/>
        <pt x="953" y="1571" on="1"/>
        <pt x="867" y="1394" on="1"/>
        <pt x="802" y="1394" on="1"/>
        <pt x="813" y="1493" on="0"/>
        <pt x="747" y="1530" on="1"/>
        <pt x="723" y="1544" on="0"/>
        <pt x="646" y="1544" on="0"/>
        <pt x="568" y="1511" on="0"/>
        <pt x="536" y="1477" on="1"/>
        <pt x="464" y="1402" on="0"/>
        <pt x="451" y="1270" on="1"/>
        <pt x="422" y="989" on="1"/>
        <pt x="731" y="989" on="1"/>
        <pt x="731" y="872" on="1"/>
        <pt x="411" y="872" on="1"/>
      </contour>
    </TTGlyph>
    <TTGlyph name="four" xMin="135" yMin="-431" xMax="1230" yMax="989">
      <contour>
        <pt x="924" y="989" on="1"/>
        <pt x="998" y="973" on="1"/>
        <pt x="998" y="130" on="1"/>
        <pt x="1230" y="130" on="1"/>
        <pt x="1230" y="0" on="1"/>
        <pt x="998" y="0" on="1"/>
        <pt x="998" y="-431" on="1"/>
        <pt x="834" y="-431" on="1"/>
        <pt x="834" y="0" on="1"/>
        <pt x="174" y="0" on="1"/>
        <pt x="135" y="106" on="1"/>
      </contour>
      <contour>
        <pt x="834" y="130" on="1"/>
        <pt x="834" y="719" on="1"/>
        <pt x="302" y="130" on="1"/>
      </contour>
    </TTGlyph>
    <TTGlyph name="fraction" xMin="70" yMin="-23" xMax="933" yMax="1672">
      <contour>
        <pt x="838" y="1672" on="1"/>
        <pt x="933" y="1627" on="1"/>
        <pt x="164" y="-23" on="1"/>
        <pt x="70" y="18" on="1"/>
      </contour>
    </TTGlyph>
    <TTGlyph name="g" xMin="69" yMin="-560" xMax="1103" yMax="1013">
      <contour>
        <pt x="926" y="843" on="1"/>
        <pt x="973" y="767" on="0"/>
        <pt x="973" y="654" on="1"/>
        <pt x="973" y="495" on="0"/>
        <pt x="813" y="372" on="1"/>
        <pt x="743" y="318" on="0"/>
        <pt x="649" y="282" on="1"/>
        <pt x="496" y="224" on="1"/>
        <pt x="386" y="183" on="0"/>
        <pt x="357" y="152" on="0"/>
        <pt x="357" y="133" on="0"/>
        <pt x="377" y="115" on="0"/>
        <pt x="400" y="107" on="1"/>
        <pt x="455" y="88" on="0"/>
        <pt x="653" y="88" on="0"/>
        <pt x="825" y="67" on="0"/>
        <pt x="891" y="38" on="1"/>
        <pt x="1035" y="-27" on="0"/>
        <pt x="1035" y="-184" on="1"/>
        <pt x="1035" y="-290" on="0"/>
        <pt x="952" y="-381" on="1"/>
        <pt x="837" y="-506" on="0"/>
        <pt x="626" y="-548" on="1"/>
        <pt x="563" y="-560" on="0"/>
        <pt x="411" y="-560" on="0"/>
        <pt x="253" y="-528" on="0"/>
        <pt x="194" y="-494" on="1"/>
        <pt x="69" y="-423" on="0"/>
        <pt x="69" y="-281" on="1"/>
        <pt x="69" y="-171" on="0"/>
        <pt x="162" y="-112" on="1"/>
        <pt x="227" y="-73" on="1"/>
        <pt x="254" y="-59" on="0"/>
        <pt x="321" y="-45" on="0"/>
        <pt x="355" y="-36" on="1"/>
        <pt x="247" y="-15" on="0"/>
        <pt x="206" y="50" on="1"/>
        <pt x="192" y="73" on="0"/>
        <pt x="192" y="124" on="0"/>
        <pt x="212" y="160" on="0"/>
        <pt x="264" y="196" on="0"/>
        <pt x="310" y="218" on="1"/>
        <pt x="429" y="274" on="1"/>
        <pt x="335" y="292" on="0"/>
        <pt x="253" y="361" on="1"/>
        <pt x="140" y="456" on="0"/>
        <pt x="140" y="629" on="1"/>
        <pt x="140" y="795" on="0"/>
        <pt x="286" y="910" on="1"/>
        <pt x="415" y="1013" on="0"/>
        <pt x="725" y="1013" on="0"/>
        <pt x="838" y="940" on="1"/>
        <pt x="910" y="990" on="0"/>
        <pt x="1076" y="1011" on="1"/>
        <pt x="1103" y="980" on="1"/>
        <pt x="1056" y="843" on="1"/>
      </contour>
      <contour>
        <pt x="244" y="-251" on="0"/>
        <pt x="244" y="-335" on="0"/>
        <pt x="306" y="-406" on="0"/>
        <pt x="354" y="-425" on="1"/>
        <pt x="432" y="-456" on="0"/>
        <pt x="629" y="-456" on="0"/>
        <pt x="733" y="-424" on="0"/>
        <pt x="772" y="-394" on="1"/>
        <pt x="860" y="-328" on="0"/>
        <pt x="860" y="-222" on="1"/>
        <pt x="860" y="-89" on="0"/>
        <pt x="672" y="-72" on="1"/>
        <pt x="617" y="-67" on="0"/>
        <pt x="557" y="-67" on="1"/>
        <pt x="385" y="-67" on="0"/>
        <pt x="284" y="-168" on="1"/>
        <pt x="256" y="-196" on="0"/>
      </contour>
      <contour>
        <pt x="326" y="776" on="1"/>
        <pt x="305" y="727" on="0"/>
        <pt x="305" y="586" on="0"/>
        <pt x="347" y="482" on="0"/>
        <pt x="383" y="446" on="1"/>
        <pt x="456" y="373" on="0"/>
        <pt x="571" y="373" on="1"/>
        <pt x="721" y="373" on="0"/>
        <pt x="785" y="499" on="1"/>
        <pt x="809" y="546" on="0"/>
        <pt x="809" y="685" on="0"/>
        <pt x="767" y="793" on="0"/>
        <pt x="731" y="831" on="1"/>
        <pt x="656" y="910" on="0"/>
        <pt x="543" y="910" on="1"/>
        <pt x="383" y="910" on="0"/>
      </contour>
    </TTGlyph>
    <TTGlyph name="gbreve" xMin="69" yMin="-560" xMax="1103" yMax="1562">
      <component glyphName="g" x="0" y="0" flags="0x1204"/>
      <component glyphName="breve" x="130" y="0" flags="0x1004"/>
    </TTGlyph>
    <TTGlyph name="gcircumflex" xMin="69" yMin="-560" xMax="1103" yMax="1529">
      <component glyphName="g" x="0" y="0" flags="0x1204"/>
      <component glyphName="circumflex" x="139" y="0" flags="0x1004"/>
    </TTGlyph>
    <TTGlyph name="gcommaaccent" xMin="69" yMin="-560" xMax="1103" yMax="1773">
      <component glyphName="g" x="0" y="0" flags="0x1204"/>
      <component glyphName="commaaccent" x="854" y="1213" scale="-0.999938964844" flags="0x1004"/>
    </TTGlyph>
    <TTGlyph name="gdotaccent" xMin="69" yMin="-560" xMax="1103" yMax="1524">
      <component glyphName="g" x="0" y="0" flags="0x1204"/>
      <component glyphName="dotaccent" x="381" y="0" flags="0x1004"/>
    </TTGlyph>
    <TTGlyph name="germandbls" xMin="72" yMin="-23" xMax="1166" yMax="1675">
      <contour>
        <pt x="202" y="876" on="1"/>
        <pt x="72" y="876" on="1"/>
        <pt x="72" y="959" on="1"/>
        <pt x="202" y="989" on="1"/>
        <pt x="202" y="1169" on="1"/>
        <pt x="202" y="1294" on="0"/>
        <pt x="303" y="1462" on="1"/>
        <pt x="378" y="1587" on="0"/>
        <pt x="499" y="1645" on="1"/>
        <pt x="562" y="1675" on="0"/>
        <pt x="727" y="1675" on="0"/>
        <pt x="866" y="1635" on="0"/>
        <pt x="914" y="1598" on="1"/>
        <pt x="1016" y="1522" on="0"/>
        <pt x="1016" y="1402" on="1"/>
        <pt x="1016" y="1293" on="0"/>
        <pt x="896" y="1160" on="1"/>
        <pt x="858" y="1117" on="0"/>
        <pt x="818" y="1077" on="1"/>
        <pt x="754" y="1014" on="1"/>
        <pt x="709" y="965" on="0"/>
        <pt x="689" y="886" on="0"/>
        <pt x="689" y="815" on="0"/>
        <pt x="717" y="754" on="0"/>
        <pt x="748" y="721" on="1"/>
        <pt x="809" y="655" on="0"/>
        <pt x="947" y="573" on="1"/>
        <pt x="1166" y="442" on="0"/>
        <pt x="1166" y="256" on="1"/>
        <pt x="1166" y="119" on="0"/>
        <pt x="1048" y="42" on="1"/>
        <pt x="950" y="-23" on="0"/>
        <pt x="827" y="-23" on="1"/>
        <pt x="677" y="-23" on="0"/>
        <pt x="582" y="72" on="1"/>
        <pt x="605" y="243" on="1"/>
        <pt x="657" y="243" on="1"/>
        <pt x="657" y="134" on="0"/>
        <pt x="748" y="96" on="1"/>
        <pt x="780" y="83" on="0"/>
        <pt x="865" y="83" on="0"/>
        <pt x="930" y="109" on="0"/>
        <pt x="952" y="130" on="1"/>
        <pt x="997" y="171" on="0"/>
        <pt x="997" y="231" on="1"/>
        <pt x="997" y="343" on="0"/>
        <pt x="830" y="438" on="1"/>
        <pt x="584" y="577" on="0"/>
        <pt x="548" y="710" on="1"/>
        <pt x="536" y="752" on="0"/>
        <pt x="536" y="853" on="0"/>
        <pt x="565" y="937" on="0"/>
        <pt x="611" y="1004" on="0"/>
        <pt x="640" y="1032" on="1"/>
        <pt x="698" y="1086" on="1"/>
        <pt x="863" y="1241" on="0"/>
        <pt x="863" y="1352" on="1"/>
        <pt x="863" y="1446" on="0"/>
        <pt x="792" y="1502" on="1"/>
        <pt x="722" y="1556" on="0"/>
        <pt x="609" y="1556" on="1"/>
        <pt x="509" y="1556" on="0"/>
        <pt x="437" y="1460" on="1"/>
        <pt x="365" y="1366" on="0"/>
        <pt x="365" y="1239" on="1"/>
        <pt x="365" y="106" on="1"/>
        <pt x="469" y="83" on="1"/>
        <pt x="469" y="0" on="1"/>
        <pt x="72" y="0" on="1"/>
        <pt x="72" y="83" on="1"/>
        <pt x="202" y="106" on="1"/>
      </contour>
    </TTGlyph>
    <TTGlyph name="grave" xMin="76" yMin="1191" xMax="478" yMax="1561">
      <contour>
        <pt x="236" y="1561" on="1"/>
        <pt x="478" y="1231" on="1"/>
        <pt x="431" y="1191" on="1"/>
        <pt x="76" y="1511" on="1"/>
      </contour>
    </TTGlyph>
    <TTGlyph name="grave.cap" xMin="-30" yMin="1630" xMax="373" yMax="1999">
      <contour>
        <pt x="130" y="1999" on="1"/>
        <pt x="373" y="1669" on="1"/>
        <pt x="326" y="1630" on="1"/>
        <pt x="-30" y="1950" on="1"/>
      </contour>
    </TTGlyph>
    <TTGlyph name="greater" xMin="126" yMin="45" xMax="1061" yMax="1293">
      <contour>
        <pt x="126" y="1204" on="1"/>
        <pt x="182" y="1293" on="1"/>
        <pt x="1061" y="692" on="1"/>
        <pt x="1061" y="645" on="1"/>
        <pt x="182" y="45" on="1"/>
        <pt x="126" y="135" on="1"/>
        <pt x="919" y="669" on="1"/>
      </contour>
    </TTGlyph>
    <TTGlyph name="greaterequal" xMin="126" yMin="0" xMax="1061" yMax="1564">
      <component glyphName="lessequal" x="1198" y="0" scalex="-0.999938964844" scaley="1.0" flags="0x1004"/>
    </TTGlyph>
    <TTGlyph name="guillemotleft" xMin="135" yMin="38" xMax="1065" yMax="906">
      <contour>
        <pt x="524" y="906" on="1"/>
        <pt x="598" y="831" on="1"/>
        <pt x="387" y="596" on="1"/>
        <pt x="265" y="474" on="1"/>
        <pt x="384" y="355" on="1"/>
        <pt x="603" y="117" on="1"/>
        <pt x="524" y="38" on="1"/>
        <pt x="135" y="474" on="1"/>
      </contour>
      <contour>
        <pt x="985" y="906" on="1"/>
        <pt x="1060" y="831" on="1"/>
        <pt x="848" y="596" on="1"/>
        <pt x="725" y="474" on="1"/>
        <pt x="846" y="355" on="1"/>
        <pt x="1065" y="117" on="1"/>
        <pt x="985" y="38" on="1"/>
        <pt x="597" y="474" on="1"/>
      </contour>
    </TTGlyph>
    <TTGlyph name="guillemotright" xMin="135" yMin="38" xMax="1065" yMax="906">
      <component glyphName="guillemotleft" x="1200" y="0" scalex="-0.999938964844" scaley="1.0" flags="0x1004"/>
    </TTGlyph>
    <TTGlyph name="guilsinglleft" xMin="107" yMin="38" xMax="575" yMax="906">
      <contour>
        <pt x="496" y="906" on="1"/>
        <pt x="570" y="831" on="1"/>
        <pt x="359" y="596" on="1"/>
        <pt x="237" y="474" on="1"/>
        <pt x="356" y="355" on="1"/>
        <pt x="575" y="117" on="1"/>
        <pt x="496" y="38" on="1"/>
        <pt x="107" y="474" on="1"/>
      </contour>
    </TTGlyph>
    <TTGlyph name="guilsinglright" xMin="107" yMin="38" xMax="575" yMax="906">
      <contour>
        <pt x="575" y="474" on="1"/>
        <pt x="187" y="38" on="1"/>
        <pt x="107" y="117" on="1"/>
        <pt x="325" y="355" on="1"/>
        <pt x="446" y="474" on="1"/>
        <pt x="323" y="596" on="1"/>
        <pt x="111" y="831" on="1"/>
        <pt x="187" y="906" on="1"/>
      </contour>
    </TTGlyph>
    <TTGlyph name="h" xMin="68" yMin="0" xMax="1143" yMax="1663">
      <contour>
        <pt x="673" y="883" on="1"/>
        <pt x="522" y="883" on="0"/>
        <pt x="361" y="777" on="1"/>
        <pt x="361" y="106" on="1"/>
        <pt x="488" y="83" on="1"/>
        <pt x="488" y="0" on="1"/>
        <pt x="68" y="0" on="1"/>
        <pt x="68" y="83" on="1"/>
        <pt x="198" y="106" on="1"/>
        <pt x="198" y="1483" on="1"/>
        <pt x="68" y="1508" on="1"/>
        <pt x="68" y="1589" on="1"/>
        <pt x="361" y="1663" on="1"/>
        <pt x="361" y="883" on="1"/>
        <pt x="461" y="952" on="0"/>
        <pt x="654" y="1013" on="0"/>
        <pt x="790" y="1013" on="0"/>
        <pt x="898" y="975" on="0"/>
        <pt x="936" y="936" on="1"/>
        <pt x="1016" y="855" on="0"/>
        <pt x="1016" y="704" on="1"/>
        <pt x="1016" y="106" on="1"/>
        <pt x="1143" y="83" on="1"/>
        <pt x="1143" y="0" on="1"/>
        <pt x="724" y="0" on="1"/>
        <pt x="724" y="83" on="1"/>
        <pt x="853" y="106" on="1"/>
        <pt x="853" y="685" on="1"/>
        <pt x="853" y="883" on="0"/>
      </contour>
    </TTGlyph>
    <TTGlyph name="hbar" xMin="65" yMin="0" xMax="1143" yMax="1663">
      <contour>
        <pt x="65" y="1333" on="1"/>
        <pt x="575" y="1333" on="1"/>
        <pt x="575" y="1220" on="1"/>
        <pt x="65" y="1220" on="1"/>
      </contour>
      <contour>
        <pt x="673" y="883" on="1"/>
        <pt x="522" y="883" on="0"/>
        <pt x="361" y="777" on="1"/>
        <pt x="361" y="106" on="1"/>
        <pt x="488" y="83" on="1"/>
        <pt x="488" y="0" on="1"/>
        <pt x="68" y="0" on="1"/>
        <pt x="68" y="83" on="1"/>
        <pt x="198" y="106" on="1"/>
        <pt x="198" y="1483" on="1"/>
        <pt x="68" y="1508" on="1"/>
        <pt x="68" y="1589" on="1"/>
        <pt x="361" y="1663" on="1"/>
        <pt x="361" y="883" on="1"/>
        <pt x="461" y="952" on="0"/>
        <pt x="654" y="1013" on="0"/>
        <pt x="790" y="1013" on="0"/>
        <pt x="898" y="975" on="0"/>
        <pt x="936" y="936" on="1"/>
        <pt x="1016" y="855" on="0"/>
        <pt x="1016" y="704" on="1"/>
        <pt x="1016" y="106" on="1"/>
        <pt x="1143" y="83" on="1"/>
        <pt x="1143" y="0" on="1"/>
        <pt x="724" y="0" on="1"/>
        <pt x="724" y="83" on="1"/>
        <pt x="853" y="106" on="1"/>
        <pt x="853" y="685" on="1"/>
        <pt x="853" y="883" on="0"/>
      </contour>
    </TTGlyph>
    <TTGlyph name="hcircumflex" xMin="68" yMin="0" xMax="1143" yMax="1972">
      <component glyphName="h" x="0" y="0" flags="0x1204"/>
      <component glyphName="circumflex" x="333" y="443" flags="0x1004"/>
    </TTGlyph>
    <TTGlyph name="hungarumlaut" xMin="222" yMin="1232" xMax="992" yMax="1602">
      <contour>
        <pt x="626" y="1563" on="1"/>
        <pt x="269" y="1232" on="1"/>
        <pt x="222" y="1272" on="1"/>
        <pt x="465" y="1602" on="1"/>
      </contour>
      <contour>
        <pt x="992" y="1542" on="1"/>
        <pt x="637" y="1232" on="1"/>
        <pt x="590" y="1272" on="1"/>
        <pt x="833" y="1602" on="1"/>
      </contour>
    </TTGlyph>
    <TTGlyph name="hungarumlaut.cap" xMin="9" yMin="1631" xMax="783" yMax="2000">
      <contour>
        <pt x="401" y="1951" on="1"/>
        <pt x="56" y="1631" on="1"/>
        <pt x="9" y="1670" on="1"/>
        <pt x="251" y="2000" on="1"/>
      </contour>
      <contour>
        <pt x="783" y="1951" on="1"/>
        <pt x="423" y="1631" on="1"/>
        <pt x="376" y="1670" on="1"/>
        <pt x="618" y="2000" on="1"/>
      </contour>
    </TTGlyph>
    <TTGlyph name="hyphen" xMin="174" yMin="530" xMax="680" yMax="660">
      <contour>
        <pt x="175" y="660" on="1"/>
        <pt x="680" y="660" on="1"/>
        <pt x="680" y="530" on="1"/>
        <pt x="174" y="530" on="1"/>
      </contour>
    </TTGlyph>
    <TTGlyph name="i" xMin="50" yMin="0" xMax="470" yMax="1524">
      <contour>
        <pt x="342" y="106" on="1"/>
        <pt x="470" y="83" on="1"/>
        <pt x="470" y="0" on="1"/>
        <pt x="50" y="0" on="1"/>
        <pt x="50" y="83" on="1"/>
        <pt x="180" y="106" on="1"/>
        <pt x="180" y="834" on="1"/>
        <pt x="50" y="857" on="1"/>
        <pt x="50" y="940" on="1"/>
        <pt x="342" y="1013" on="1"/>
      </contour>
      <contour>
        <pt x="158" y="1336" on="0"/>
        <pt x="138" y="1380" on="0"/>
        <pt x="138" y="1423" on="0"/>
        <pt x="158" y="1466" on="0"/>
        <pt x="174" y="1484" on="1"/>
        <pt x="211" y="1524" on="0"/>
        <pt x="272" y="1524" on="0"/>
        <pt x="315" y="1502" on="0"/>
        <pt x="332" y="1484" on="1"/>
        <pt x="369" y="1443" on="0"/>
        <pt x="369" y="1380" on="0"/>
        <pt x="348" y="1336" on="0"/>
        <pt x="332" y="1318" on="1"/>
        <pt x="294" y="1279" on="0"/>
        <pt x="231" y="1279" on="0"/>
        <pt x="191" y="1301" on="0"/>
      </contour>
    </TTGlyph>
    <TTGlyph name="iacute" xMin="50" yMin="0" xMax="483" yMax="1560">
      <component glyphName="dotlessi" x="0" y="0" flags="0x1204"/>
      <component glyphName="acute" x="-43" y="0" flags="0x1004"/>
    </TTGlyph>
    <TTGlyph name="ibreve" xMin="-14" yMin="0" xMax="577" yMax="1562">
      <component glyphName="dotlessi" x="0" y="0" flags="0x1204"/>
      <component glyphName="breve" x="-142" y="0" flags="0x1004"/>
    </TTGlyph>
    <TTGlyph name="icircumflex" xMin="-50" yMin="0" xMax="613" yMax="1529">
      <component glyphName="dotlessi" x="0" y="0" flags="0x1204"/>
      <component glyphName="circumflex" x="-133" y="0" flags="0x1004"/>
    </TTGlyph>
    <TTGlyph name="idieresis" xMin="-29" yMin="0" xMax="591" yMax="1359">
      <component glyphName="dotlessi" x="0" y="0" flags="0x1204"/>
      <component glyphName="dieresis" x="-170" y="0" flags="0x1004"/>
    </TTGlyph>
    <TTGlyph name="igrave" xMin="50" yMin="0" xMax="481" yMax="1561">
      <component glyphName="dotlessi" x="0" y="0" flags="0x1204"/>
      <component glyphName="grave" x="3" y="0" flags="0x1004"/>
    </TTGlyph>
    <TTGlyph name="ij" xMin="50" yMin="-486" xMax="878" yMax="1524">
      <component glyphName="i" x="0" y="0" flags="0x1004"/>
      <component glyphName="j" x="513" y="0" flags="0x1004"/>
    </TTGlyph>
    <TTGlyph name="imacron" xMin="-21" yMin="0" xMax="583" yMax="1337">
      <component glyphName="dotlessi" x="0" y="0" flags="0x1204"/>
      <component glyphName="macron" x="-302" y="0" flags="0x1004"/>
    </TTGlyph>
    <TTGlyph name="infinity" xMin="164" yMin="170" xMax="1713" yMax="852">
      <contour>
        <pt x="670" y="197" on="1"/>
        <pt x="612" y="170" on="0"/>
        <pt x="445" y="170" on="0"/>
        <pt x="302" y="224" on="0"/>
        <pt x="256" y="268" on="1"/>
        <pt x="164" y="356" on="0"/>
        <pt x="164" y="490" on="1"/>
        <pt x="164" y="652" on="0"/>
        <pt x="282" y="754" on="1"/>
        <pt x="396" y="850" on="0"/>
        <pt x="558" y="850" on="1"/>
        <pt x="737" y="850" on="0"/>
        <pt x="910" y="661" on="1"/>
        <pt x="1001" y="561" on="1"/>
        <pt x="875" y="455" on="1"/>
        <pt x="853" y="481" on="0"/>
        <pt x="829" y="513" on="1"/>
        <pt x="778" y="578" on="1"/>
        <pt x="713" y="659" on="0"/>
        <pt x="672" y="691" on="1"/>
        <pt x="592" y="752" on="0"/>
        <pt x="475" y="752" on="0"/>
        <pt x="392" y="717" on="0"/>
        <pt x="362" y="686" on="1"/>
        <pt x="301" y="623" on="0"/>
        <pt x="301" y="524" on="1"/>
        <pt x="301" y="423" on="0"/>
        <pt x="374" y="352" on="1"/>
        <pt x="452" y="276" on="0"/>
        <pt x="574" y="276" on="1"/>
        <pt x="697" y="276" on="0"/>
        <pt x="832" y="444" on="1"/>
        <pt x="901" y="532" on="1"/>
        <pt x="966" y="469" on="1"/>
        <pt x="878" y="362" on="1"/>
        <pt x="780" y="247" on="0"/>
      </contour>
      <contour>
        <pt x="1323" y="735" on="1"/>
        <pt x="1174" y="735" on="0"/>
        <pt x="978" y="486" on="1"/>
        <pt x="914" y="549" on="1"/>
        <pt x="1008" y="655" on="1"/>
        <pt x="1185" y="848" on="0"/>
        <pt x="1355" y="850" on="1"/>
        <pt x="1538" y="852" on="0"/>
        <pt x="1632" y="751" on="1"/>
        <pt x="1713" y="663" on="0"/>
        <pt x="1713" y="527" on="1"/>
        <pt x="1713" y="364" on="0"/>
        <pt x="1595" y="264" on="1"/>
        <pt x="1483" y="170" on="0"/>
        <pt x="1320" y="170" on="1"/>
        <pt x="1138" y="170" on="0"/>
        <pt x="966" y="357" on="1"/>
        <pt x="875" y="456" on="1"/>
        <pt x="1002" y="562" on="1"/>
        <pt x="1076" y="470" on="1"/>
        <pt x="1240" y="269" on="0"/>
        <pt x="1372" y="269" on="1"/>
        <pt x="1523" y="269" on="0"/>
        <pt x="1572" y="402" on="1"/>
        <pt x="1587" y="443" on="0"/>
        <pt x="1587" y="539" on="0"/>
        <pt x="1552" y="626" on="0"/>
        <pt x="1518" y="660" on="1"/>
        <pt x="1445" y="735" on="0"/>
      </contour>
    </TTGlyph>
    <TTGlyph name="integral" xMin="68" yMin="-472" xMax="1132" yMax="1713">
      <contour>
        <pt x="343" y="-472" on="1"/>
        <pt x="212" y="-472" on="0"/>
        <pt x="125" y="-402" on="1"/>
        <pt x="89" y="-373" on="0"/>
        <pt x="68" y="-325" on="1"/>
        <pt x="198" y="-234" on="1"/>
        <pt x="208" y="-278" on="0"/>
        <pt x="245" y="-304" on="1"/>
        <pt x="311" y="-352" on="0"/>
        <pt x="443" y="-352" on="0"/>
        <pt x="528" y="-312" on="0"/>
        <pt x="551" y="-271" on="1"/>
        <pt x="590" y="-201" on="0"/>
        <pt x="590" y="134" on="0"/>
        <pt x="542" y="439" on="0"/>
        <pt x="483" y="743" on="0"/>
        <pt x="435" y="1047" on="0"/>
        <pt x="435" y="1303" on="0"/>
        <pt x="493" y="1490" on="0"/>
        <pt x="548" y="1560" on="1"/>
        <pt x="667" y="1713" on="0"/>
        <pt x="857" y="1713" on="1"/>
        <pt x="988" y="1713" on="0"/>
        <pt x="1075" y="1643" on="1"/>
        <pt x="1111" y="1614" on="0"/>
        <pt x="1132" y="1566" on="1"/>
        <pt x="1002" y="1475" on="1"/>
        <pt x="992" y="1519" on="0"/>
        <pt x="955" y="1545" on="1"/>
        <pt x="889" y="1593" on="0"/>
        <pt x="757" y="1593" on="0"/>
        <pt x="672" y="1553" on="0"/>
        <pt x="649" y="1512" on="1"/>
        <pt x="610" y="1442" on="0"/>
        <pt x="610" y="1107" on="0"/>
        <pt x="658" y="803" on="0"/>
        <pt x="717" y="499" on="0"/>
        <pt x="765" y="195" on="0"/>
        <pt x="765" y="-62" on="0"/>
        <pt x="707" y="-249" on="0"/>
        <pt x="652" y="-320" on="1"/>
        <pt x="533" y="-472" on="0"/>
      </contour>
    </TTGlyph>
    <TTGlyph name="iogonek" xMin="50" yMin="-436" xMax="490" yMax="1524">
      <contour>
        <pt x="490" y="-396" on="1"/>
        <pt x="439" y="-436" on="0"/>
        <pt x="345" y="-436" on="1"/>
        <pt x="189" y="-436" on="0"/>
        <pt x="133" y="-324" on="1"/>
        <pt x="114" y="-286" on="0"/>
        <pt x="114" y="-192" on="0"/>
        <pt x="143" y="-110" on="0"/>
        <pt x="164" y="-76" on="1"/>
        <pt x="207" y="-4" on="0"/>
        <pt x="247" y="10" on="1"/>
        <pt x="257" y="36" on="0"/>
        <pt x="349" y="72" on="1"/>
        <pt x="398" y="91" on="1"/>
        <pt x="311" y="24" on="0"/>
        <pt x="276" y="-123" on="1"/>
        <pt x="267" y="-164" on="0"/>
        <pt x="267" y="-199" on="1"/>
        <pt x="267" y="-301" on="0"/>
        <pt x="334" y="-301" on="1"/>
        <pt x="366" y="-301" on="0"/>
        <pt x="383" y="-286" on="1"/>
        <pt x="410" y="-261" on="0"/>
        <pt x="410" y="-239" on="1"/>
        <pt x="451" y="-239" on="1"/>
      </contour>
      <contour>
        <pt x="342" y="106" on="1"/>
        <pt x="470" y="83" on="1"/>
        <pt x="470" y="0" on="1"/>
        <pt x="50" y="0" on="1"/>
        <pt x="50" y="83" on="1"/>
        <pt x="180" y="106" on="1"/>
        <pt x="180" y="834" on="1"/>
        <pt x="50" y="857" on="1"/>
        <pt x="50" y="940" on="1"/>
        <pt x="342" y="1013" on="1"/>
      </contour>
      <contour>
        <pt x="158" y="1336" on="0"/>
        <pt x="138" y="1380" on="0"/>
        <pt x="138" y="1423" on="0"/>
        <pt x="158" y="1466" on="0"/>
        <pt x="174" y="1484" on="1"/>
        <pt x="211" y="1524" on="0"/>
        <pt x="272" y="1524" on="0"/>
        <pt x="315" y="1502" on="0"/>
        <pt x="332" y="1484" on="1"/>
        <pt x="369" y="1443" on="0"/>
        <pt x="369" y="1380" on="0"/>
        <pt x="348" y="1336" on="0"/>
        <pt x="332" y="1318" on="1"/>
        <pt x="294" y="1279" on="0"/>
        <pt x="231" y="1279" on="0"/>
        <pt x="191" y="1301" on="0"/>
      </contour>
    </TTGlyph>
    <TTGlyph name="itilde" xMin="-74" yMin="0" xMax="636" yMax="1459">
      <component glyphName="dotlessi" x="0" y="0" flags="0x1204"/>
      <component glyphName="tilde" x="-144" y="0" flags="0x1004"/>
    </TTGlyph>
    <TTGlyph name="j" xMin="-174" yMin="-486" xMax="365" yMax="1524">
      <contour>
        <pt x="-5" y="-337" on="1"/>
        <pt x="176" y="-337" on="0"/>
        <pt x="176" y="9" on="1"/>
        <pt x="176" y="834" on="1"/>
        <pt x="46" y="857" on="1"/>
        <pt x="46" y="940" on="1"/>
        <pt x="338" y="1013" on="1"/>
        <pt x="338" y="167" on="1"/>
        <pt x="338" y="-18" on="0"/>
        <pt x="282" y="-208" on="0"/>
        <pt x="217" y="-322" on="0"/>
        <pt x="118" y="-430" on="0"/>
        <pt x="15" y="-486" on="0"/>
        <pt x="-21" y="-486" on="1"/>
        <pt x="-118" y="-486" on="0"/>
        <pt x="-174" y="-463" on="1"/>
        <pt x="-120" y="-276" on="1"/>
        <pt x="-80" y="-276" on="1"/>
        <pt x="-80" y="-311" on="0"/>
        <pt x="-37" y="-330" on="1"/>
        <pt x="-23" y="-337" on="0"/>
      </contour>
      <contour>
        <pt x="155" y="1336" on="0"/>
        <pt x="134" y="1380" on="0"/>
        <pt x="134" y="1423" on="0"/>
        <pt x="155" y="1466" on="0"/>
        <pt x="172" y="1484" on="1"/>
        <pt x="208" y="1524" on="0"/>
        <pt x="249" y="1524" on="1"/>
        <pt x="291" y="1524" on="0"/>
        <pt x="317" y="1495" on="1"/>
        <pt x="365" y="1443" on="0"/>
        <pt x="365" y="1380" on="0"/>
        <pt x="344" y="1336" on="0"/>
        <pt x="328" y="1318" on="1"/>
        <pt x="290" y="1279" on="0"/>
        <pt x="249" y="1279" on="1"/>
        <pt x="209" y="1279" on="0"/>
      </contour>
    </TTGlyph>
    <TTGlyph name="jcircumflex" xMin="-174" yMin="-486" xMax="588" yMax="1529">
      <component glyphName="dotlessj" x="0" y="0" flags="0x1204"/>
      <component glyphName="circumflex" x="-158" y="0" flags="0x1004"/>
    </TTGlyph>
    <TTGlyph name="k" xMin="62" yMin="0" xMax="1136" yMax="1663">
      <contour>
        <pt x="355" y="106" on="1"/>
        <pt x="482" y="83" on="1"/>
        <pt x="482" y="0" on="1"/>
        <pt x="62" y="0" on="1"/>
        <pt x="62" y="83" on="1"/>
        <pt x="192" y="106" on="1"/>
        <pt x="192" y="1483" on="1"/>
        <pt x="62" y="1508" on="1"/>
        <pt x="62" y="1589" on="1"/>
        <pt x="355" y="1663" on="1"/>
      </contour>
      <contour>
        <pt x="810" y="885" on="1"/>
        <pt x="721" y="906" on="1"/>
        <pt x="721" y="989" on="1"/>
        <pt x="1122" y="989" on="1"/>
        <pt x="1122" y="906" on="1"/>
        <pt x="966" y="883" on="1"/>
        <pt x="543" y="558" on="1"/>
        <pt x="963" y="132" on="1"/>
        <pt x="1028" y="99" on="1"/>
        <pt x="1136" y="83" on="1"/>
        <pt x="1136" y="0" on="1"/>
        <pt x="855" y="0" on="1"/>
        <pt x="363" y="532" on="1"/>
      </contour>
    </TTGlyph>
    <TTGlyph name="kcommaaccent" xMin="62" yMin="-560" xMax="1136" yMax="1663">
      <component glyphName="k" x="0" y="0" flags="0x1204"/>
      <component glyphName="commaaccent" x="295" y="0" flags="0x1004"/>
    </TTGlyph>
    <TTGlyph name="kgreenlandic" xMin="72" yMin="0" xMax="1126" yMax="989">
      <contour>
        <pt x="365" y="106" on="1"/>
        <pt x="492" y="83" on="1"/>
        <pt x="492" y="0" on="1"/>
        <pt x="72" y="0" on="1"/>
        <pt x="72" y="83" on="1"/>
        <pt x="202" y="106" on="1"/>
        <pt x="202" y="811" on="1"/>
        <pt x="72" y="834" on="1"/>
        <pt x="72" y="917" on="1"/>
        <pt x="365" y="989" on="1"/>
      </contour>
      <contour>
        <pt x="800" y="885" on="1"/>
        <pt x="711" y="906" on="1"/>
        <pt x="711" y="989" on="1"/>
        <pt x="1112" y="989" on="1"/>
        <pt x="1112" y="906" on="1"/>
        <pt x="956" y="883" on="1"/>
        <pt x="553" y="511" on="1"/>
        <pt x="953" y="132" on="1"/>
        <pt x="1018" y="99" on="1"/>
        <pt x="1126" y="83" on="1"/>
        <pt x="1126" y="0" on="1"/>
        <pt x="845" y="0" on="1"/>
        <pt x="373" y="485" on="1"/>
      </contour>
    </TTGlyph>
    <TTGlyph name="l" xMin="43" yMin="0" xMax="463" yMax="1663">
      <contour>
        <pt x="335" y="106" on="1"/>
        <pt x="463" y="83" on="1"/>
        <pt x="463" y="0" on="1"/>
        <pt x="43" y="0" on="1"/>
        <pt x="43" y="83" on="1"/>
        <pt x="173" y="106" on="1"/>
        <pt x="173" y="1483" on="1"/>
        <pt x="43" y="1508" on="1"/>
        <pt x="43" y="1589" on="1"/>
        <pt x="335" y="1663" on="1"/>
      </contour>
    </TTGlyph>
    <TTGlyph name="lacute" xMin="70" yMin="0" xMax="490" yMax="1958">
      <contour>
        <pt x="362" y="106" on="1"/>
        <pt x="490" y="83" on="1"/>
        <pt x="490" y="0" on="1"/>
        <pt x="70" y="0" on="1"/>
        <pt x="70" y="83" on="1"/>
        <pt x="200" y="106" on="1"/>
        <pt x="200" y="1350" on="1"/>
        <pt x="70" y="1375" on="1"/>
        <pt x="70" y="1456" on="1"/>
        <pt x="362" y="1530" on="1"/>
      </contour>
      <contour>
        <pt x="486" y="1908" on="1"/>
        <pt x="129" y="1588" on="1"/>
        <pt x="82" y="1628" on="1"/>
        <pt x="325" y="1958" on="1"/>
      </contour>
    </TTGlyph>
    <TTGlyph name="lcaron" xMin="43" yMin="0" xMax="767" yMax="1663">
      <contour>
        <pt x="567" y="1083" on="1"/>
        <pt x="626" y="1166" on="0"/>
        <pt x="626" y="1249" on="1"/>
        <pt x="626" y="1294" on="0"/>
        <pt x="596" y="1327" on="0"/>
        <pt x="560" y="1353" on="0"/>
        <pt x="530" y="1381" on="0"/>
        <pt x="530" y="1419" on="0"/>
        <pt x="554" y="1463" on="0"/>
        <pt x="572" y="1484" on="1"/>
        <pt x="617" y="1533" on="0"/>
        <pt x="662" y="1533" on="1"/>
        <pt x="699" y="1533" on="0"/>
        <pt x="734" y="1489" on="1"/>
        <pt x="767" y="1447" on="0"/>
        <pt x="767" y="1343" on="0"/>
        <pt x="747" y="1242" on="0"/>
        <pt x="731" y="1200" on="1"/>
        <pt x="671" y="1043" on="0"/>
        <pt x="540" y="968" on="1"/>
        <pt x="509" y="1022" on="1"/>
        <pt x="541" y="1047" on="0"/>
      </contour>
      <contour>
        <pt x="335" y="106" on="1"/>
        <pt x="463" y="83" on="1"/>
        <pt x="463" y="0" on="1"/>
        <pt x="43" y="0" on="1"/>
        <pt x="43" y="83" on="1"/>
        <pt x="173" y="106" on="1"/>
        <pt x="173" y="1483" on="1"/>
        <pt x="43" y="1508" on="1"/>
        <pt x="43" y="1589" on="1"/>
        <pt x="335" y="1663" on="1"/>
      </contour>
    </TTGlyph>
    <TTGlyph name="lcommaaccent" xMin="43" yMin="-560" xMax="463" yMax="1663">
      <component glyphName="l" x="0" y="0" flags="0x1204"/>
      <component glyphName="commaaccent" x="-23" y="0" flags="0x1004"/>
    </TTGlyph>
    <TTGlyph name="ldot" xMin="43" yMin="0" xMax="897" yMax="1663">
      <component glyphName="l" x="0" y="0" flags="0x1004"/>
      <component glyphName="periodcentered" x="513" y="0" flags="0x1004"/>
    </TTGlyph>
    <TTGlyph name="less" xMin="137" yMin="45" xMax="1072" yMax="1293">
      <contour>
        <pt x="278" y="669" on="1"/>
        <pt x="1072" y="135" on="1"/>
        <pt x="1015" y="45" on="1"/>
        <pt x="137" y="645" on="1"/>
        <pt x="137" y="692" on="1"/>
        <pt x="1015" y="1293" on="1"/>
        <pt x="1072" y="1204" on="1"/>
      </contour>
    </TTGlyph>
    <TTGlyph name="lessequal" xMin="137" yMin="0" xMax="1072" yMax="1564">
      <contour>
        <pt x="278" y="940" on="1"/>
        <pt x="1072" y="406" on="1"/>
        <pt x="1015" y="316" on="1"/>
        <pt x="137" y="916" on="1"/>
        <pt x="137" y="963" on="1"/>
        <pt x="1015" y="1564" on="1"/>
        <pt x="1072" y="1475" on="1"/>
      </contour>
      <contour>
        <pt x="1038" y="107" on="1"/>
        <pt x="1038" y="0" on="1"/>
        <pt x="149" y="0" on="1"/>
        <pt x="149" y="107" on="1"/>
      </contour>
    </TTGlyph>
    <TTGlyph name="logicalnot" xMin="204" yMin="358" xMax="1158" yMax="940">
      <contour>
        <pt x="204" y="940" on="1"/>
        <pt x="1158" y="940" on="1"/>
        <pt x="1158" y="358" on="1"/>
        <pt x="1043" y="358" on="1"/>
        <pt x="1043" y="834" on="1"/>
        <pt x="204" y="834" on="1"/>
      </contour>
    </TTGlyph>
    <TTGlyph name="lozenge" xMin="162" yMin="0" xMax="1201" yMax="1416">
      <contour>
        <pt x="708" y="1346" on="1"/>
        <pt x="308" y="696" on="1"/>
        <pt x="308" y="779" on="1"/>
        <pt x="723" y="69" on="1"/>
        <pt x="655" y="70" on="1"/>
        <pt x="1055" y="720" on="1"/>
        <pt x="1055" y="637" on="1"/>
        <pt x="640" y="1347" on="1"/>
      </contour>
      <contour>
        <pt x="162" y="691" on="1"/>
        <pt x="162" y="745" on="1"/>
        <pt x="593" y="1416" on="1"/>
        <pt x="780" y="1416" on="1"/>
        <pt x="1201" y="725" on="1"/>
        <pt x="1201" y="671" on="1"/>
        <pt x="770" y="0" on="1"/>
        <pt x="583" y="0" on="1"/>
      </contour>
    </TTGlyph>
    <TTGlyph name="lslash" xMin="16" yMin="0" xMax="541" yMax="1663">
      <contour>
        <pt x="362" y="106" on="1"/>
        <pt x="490" y="83" on="1"/>
        <pt x="490" y="0" on="1"/>
        <pt x="70" y="0" on="1"/>
        <pt x="70" y="83" on="1"/>
        <pt x="200" y="106" on="1"/>
        <pt x="200" y="793" on="1"/>
        <pt x="48" y="751" on="1"/>
        <pt x="16" y="868" on="1"/>
        <pt x="200" y="915" on="1"/>
        <pt x="200" y="1483" on="1"/>
        <pt x="70" y="1508" on="1"/>
        <pt x="70" y="1589" on="1"/>
        <pt x="362" y="1663" on="1"/>
        <pt x="362" y="960" on="1"/>
        <pt x="513" y="999" on="1"/>
        <pt x="541" y="885" on="1"/>
        <pt x="362" y="838" on="1"/>
      </contour>
    </TTGlyph>
    <TTGlyph name="m" xMin="92" yMin="0" xMax="1798" yMax="1013">
      <contour>
        <pt x="708" y="883" on="1"/>
        <pt x="533" y="883" on="0"/>
        <pt x="383" y="777" on="1"/>
        <pt x="383" y="106" on="1"/>
        <pt x="510" y="83" on="1"/>
        <pt x="510" y="0" on="1"/>
        <pt x="92" y="0" on="1"/>
        <pt x="92" y="83" on="1"/>
        <pt x="221" y="106" on="1"/>
        <pt x="221" y="834" on="1"/>
        <pt x="92" y="857" on="1"/>
        <pt x="92" y="940" on="1"/>
        <pt x="383" y="1013" on="1"/>
        <pt x="383" y="883" on="1"/>
        <pt x="571" y="1013" on="0"/>
        <pt x="737" y="1013" on="1"/>
        <pt x="945" y="1013" on="0"/>
        <pt x="1007" y="881" on="1"/>
        <pt x="1109" y="952" on="0"/>
        <pt x="1303" y="1013" on="0"/>
        <pt x="1371" y="1013" on="1"/>
        <pt x="1523" y="1013" on="0"/>
        <pt x="1672" y="861" on="0"/>
        <pt x="1672" y="704" on="1"/>
        <pt x="1672" y="106" on="1"/>
        <pt x="1798" y="83" on="1"/>
        <pt x="1798" y="0" on="1"/>
        <pt x="1382" y="0" on="1"/>
        <pt x="1382" y="83" on="1"/>
        <pt x="1509" y="106" on="1"/>
        <pt x="1509" y="704" on="1"/>
        <pt x="1509" y="794" on="0"/>
        <pt x="1456" y="842" on="1"/>
        <pt x="1411" y="883" on="0"/>
        <pt x="1344" y="883" on="1"/>
        <pt x="1172" y="883" on="0"/>
        <pt x="1029" y="780" on="1"/>
        <pt x="1034" y="730" on="0"/>
        <pt x="1034" y="704" on="1"/>
        <pt x="1034" y="106" on="1"/>
        <pt x="1149" y="83" on="1"/>
        <pt x="1149" y="0" on="1"/>
        <pt x="753" y="0" on="1"/>
        <pt x="753" y="83" on="1"/>
        <pt x="870" y="106" on="1"/>
        <pt x="870" y="704" on="1"/>
        <pt x="870" y="794" on="0"/>
        <pt x="820" y="842" on="1"/>
        <pt x="777" y="883" on="0"/>
      </contour>
    </TTGlyph>
    <TTGlyph name="macron" xMin="281" yMin="1209" xMax="885" yMax="1337">
      <contour>
        <pt x="308" y="1335" on="1"/>
        <pt x="885" y="1337" on="1"/>
        <pt x="857" y="1209" on="1"/>
        <pt x="281" y="1209" on="1"/>
      </contour>
    </TTGlyph>
    <TTGlyph name="macron.cap" xMin="-18" yMin="1766" xMax="586" yMax="1896">
      <contour>
        <pt x="9" y="1894" on="1"/>
        <pt x="586" y="1896" on="1"/>
        <pt x="558" y="1766" on="1"/>
        <pt x="-18" y="1766" on="1"/>
      </contour>
    </TTGlyph>
    <TTGlyph name="minus" xMin="139" yMin="706" xMax="1223" yMax="813">
      <contour>
        <pt x="1223" y="813" on="1"/>
        <pt x="1223" y="706" on="1"/>
        <pt x="139" y="706" on="1"/>
        <pt x="139" y="813" on="1"/>
      </contour>
    </TTGlyph>
</ttFont>
